<svg width="269" height="72" viewBox="0 0 269 72" fill="none" xmlns="http://www.w3.org/2000/svg">
<path fill-rule="evenodd" clip-rule="evenodd" d="M159.47 12V48.2104H150.913V13.8049L159.47 12ZM134.883 51.5784C137.293 51.5784 139.222 53.5037 139.222 55.7892C139.222 58.1951 137.293 60 134.883 60C132.472 60 130.543 58.0747 130.543 55.7892C130.664 53.5037 132.592 51.5784 134.883 51.5784ZM134.883 22.2254C142.234 22.2254 148.141 28.1197 148.141 35.3383C148.141 42.557 142.235 48.4512 134.883 48.4512C127.53 48.4512 121.625 42.557 121.625 35.3383C121.625 28.1197 127.651 22.2254 134.883 22.2254ZM134.883 39.6685C137.293 39.6685 139.222 37.7432 139.222 35.4577C139.222 33.0518 137.293 31.2469 134.883 31.2469C132.472 31.2469 130.543 33.1722 130.543 35.4577C130.664 37.7432 132.592 39.6685 134.883 39.6685ZM107.885 39.6685C109.332 39.6685 110.537 38.4655 110.537 37.0218C110.537 35.5781 109.332 34.3752 107.885 34.3752H101.377V39.6685H107.885ZM101.377 20.5409V25.8342H106.198C107.644 25.8342 108.849 24.6313 108.849 23.1876C108.849 21.7439 107.644 20.5409 106.198 20.5409H101.377ZM115.84 29.0819C117.889 31.1265 119.214 33.8936 119.214 37.0218C119.214 43.1569 114.153 48.2094 107.885 48.2094H92.8203V12H106.199C112.466 12 117.528 17.0525 117.528 23.1876C117.528 25.3527 116.925 27.3984 115.84 29.0819ZM175.62 31.2469H171.281V37.984C171.281 40.0286 171.884 41.4724 173.691 41.4724C174.776 41.4724 175.62 41.2316 175.62 41.2316V47.487C175.62 47.487 173.812 48.5696 171.402 48.5696H170.679C165.858 48.3288 162.604 45.322 162.604 40.149V18.0147L171.16 16.2098V22.706H175.5V31.2469H175.62Z" fill="#34D186"/>
</svg>
