<svg width="269" height="72" viewBox="0 0 269 72" fill="none" xmlns="http://www.w3.org/2000/svg">
<path d="M110.104 47.9558H114.184L113.508 44.7878V25.902H109.605V34.5161C108.432 33.1548 106.816 32.3559 104.91 32.3559C101.007 32.3559 97.9847 35.5819 97.9847 40.3183C97.9847 45.0547 101.007 48.2807 104.91 48.2807C106.847 48.2807 108.519 47.4514 109.694 46.0303L110.105 47.9549L110.104 47.9558ZM187.254 36.5898C188.047 36.5898 188.78 36.7959 189.455 37.269L191.304 33.0959C190.452 32.562 189.455 32.3265 188.487 32.3265C186.726 32.3265 185.259 33.1234 184.32 34.6064L183.908 32.6798H179.888L180.533 35.6693V47.9529H184.434V38.2151C184.963 37.2081 185.961 36.5869 187.251 36.5869L187.253 36.5879L187.254 36.5898ZM198.699 44.1675C196.441 44.1675 194.767 42.6581 194.767 40.3193C194.767 37.9511 196.441 36.4721 198.699 36.4721C200.988 36.4721 202.632 37.9511 202.632 40.3193C202.632 42.659 200.988 44.1675 198.699 44.1675ZM101.769 40.3193C101.769 37.9511 103.442 36.4721 105.7 36.4721C107.99 36.4721 109.634 37.9511 109.634 40.3193C109.634 42.659 107.99 44.1675 105.702 44.1675C103.443 44.1675 101.769 42.6581 101.769 40.3193ZM215.984 44.1675C213.725 44.1675 212.053 42.6581 212.053 40.3193C212.053 37.9511 213.726 36.4721 215.984 36.4721C218.273 36.4721 219.916 37.9511 219.916 40.3193C219.916 42.659 218.272 44.1675 215.984 44.1675ZM123.661 36.2346C125.686 36.2346 127.006 37.1816 127.417 38.9276H119.905C120.346 37.1816 121.666 36.2346 123.661 36.2346ZM170.35 36.2346C172.376 36.2346 173.697 37.1816 174.107 38.9276H166.595C167.035 37.1816 168.355 36.2346 170.35 36.2346ZM151.306 47.9568H157.586L161.666 32.6828H157.411L154.419 45.0557L151.425 32.6828H147.228L151.309 47.9568H151.306ZM141.239 47.9568H145.14V32.6818H141.239V47.9568ZM124.258 48.2395C126.431 48.2395 128.573 47.6467 130.363 46.4925L128.866 43.1183C127.457 43.8583 125.902 44.3029 124.317 44.3029C122.264 44.3029 120.825 43.504 120.209 42.0231H131.184C131.301 41.4607 131.361 40.8983 131.361 40.2172C131.361 35.4808 128.104 32.3137 123.731 32.3137C119.33 32.3137 116.101 35.5103 116.101 40.2761C116.101 45.1303 119.3 48.2385 124.259 48.2385L124.258 48.2395ZM223.701 40.3183C223.701 35.5819 220.414 32.3559 215.984 32.3559C211.553 32.3559 208.266 35.5819 208.266 40.3183C208.266 45.0547 211.552 48.2807 215.984 48.2807C220.415 48.2807 223.701 45.0547 223.701 40.3183ZM170.878 48.2807C173.049 48.2807 175.191 47.6889 176.983 46.5347L175.485 43.1586C174.076 43.8986 172.52 44.3422 170.935 44.3422C168.882 44.3422 167.443 43.5443 166.827 42.0623H177.803C177.921 41.5 177.978 40.9376 177.978 40.2575C177.978 35.5211 174.721 32.354 170.348 32.354C165.947 32.354 162.718 35.5505 162.718 40.3163C162.718 45.1705 165.917 48.2787 170.877 48.2787L170.878 48.2807ZM198.698 48.2807C203.129 48.2807 206.415 45.0547 206.415 40.3183C206.415 35.5819 203.129 32.3559 198.698 32.3559C194.266 32.3559 190.98 35.5819 190.98 40.3183C190.98 45.0547 194.267 48.2807 198.698 48.2807ZM133.843 47.9549H137.745V25.902H133.842V47.9558L133.843 47.9549ZM143.204 30.5776C144.582 30.5776 145.639 29.5117 145.639 28.0906C145.639 26.6695 144.584 25.6046 143.204 25.6046C141.796 25.6046 140.739 26.6705 140.739 28.0906C140.739 29.5108 141.796 30.5766 143.205 30.5766L143.204 30.5776ZM76.1554 12L73.9205 33.1646L70.1087 15.3212L58.1585 17.8503L61.9683 35.6928L44.7402 39.3379L47.7832 53.5912L78.0804 60L85.0087 44.512L88.3066 13.2729L76.1554 12ZM66.5823 42.7032C65.9576 43.2724 65.1319 43.2204 64.2552 42.9299C63.3805 42.6404 62.9921 41.5873 63.3236 40.3144C63.5707 39.3693 64.7328 39.227 65.3143 39.2171C65.5349 39.2132 65.7526 39.2584 65.9527 39.3477C66.3636 39.5332 67.0599 39.9287 67.2011 40.5313C67.405 41.4008 67.2089 42.131 66.5842 42.7012L66.5823 42.7032ZM75.3532 43.6856C74.8992 44.4698 73.7087 44.5738 72.5358 44.0036C71.7454 43.6179 71.7523 42.6374 71.8386 42.0388C71.8847 41.7129 72.017 41.4048 72.221 41.1466C72.5035 40.7904 72.9742 40.3271 73.5184 40.3124C74.404 40.2889 75.1649 40.6844 75.5954 41.3999C76.0279 42.1124 75.8112 42.8995 75.3562 43.6856H75.3532Z" fill="#00CCBC"/>
</svg>
