<svg width="269" height="72" viewBox="0 0 269 72" fill="none" xmlns="http://www.w3.org/2000/svg">
<path d="M142.639 51.9986C143.89 52.0181 145.133 51.788 146.295 51.3217C147.456 50.8554 148.513 50.1623 149.404 49.2829C150.295 48.4035 151.001 47.3554 151.482 46.1998C151.963 45.0443 152.209 43.8044 152.206 42.5528C152.209 41.3011 151.963 40.0612 151.482 38.9057C151.001 37.7501 150.295 36.702 149.404 35.8226C148.513 34.9432 147.456 34.2501 146.295 33.7838C145.133 33.3175 143.89 33.0874 142.639 33.1069C141.387 33.0848 140.143 33.3132 138.98 33.7785C137.817 34.2438 136.759 34.9368 135.868 35.8168C134.977 36.6967 134.27 37.7459 133.79 38.9026C133.31 40.0593 133.066 41.3003 133.072 42.5528C133.066 43.8052 133.31 45.0462 133.79 46.2029C134.27 47.3597 134.977 48.4088 135.868 49.2887C136.759 50.1687 137.817 50.8617 138.98 51.327C140.143 51.7924 141.387 52.0207 142.639 51.9986ZM142.639 36.3406C143.446 36.3332 144.246 36.4894 144.99 36.7998C145.735 37.1102 146.409 37.5683 146.972 38.1466C147.535 38.7248 147.974 39.4111 148.265 40.1641C148.555 40.917 148.689 41.7209 148.66 42.5272C148.66 46.1436 146.108 48.7649 142.639 48.7649C139.169 48.7649 136.637 46.1436 136.637 42.5272C136.637 38.9109 139.188 36.3406 142.652 36.3406H142.639ZM114.078 51.7371V33.4322H116.151L126.432 45.0593V33.4003H129.902V51.7371H127.867L117.548 40.0207V51.7371H114.078ZM159.726 51.6606L152.933 33.4322H156.664L156.741 33.6427L160.874 45.1741L165.478 33.4003H167.456V33.4705L172.035 45.1741L176.206 33.4003H179.937L173.17 51.7371H171.187L166.461 39.536L161.76 51.7371H159.751V51.6606H159.726Z" fill="#005478"/>
<path d="M79.1521 51.7372V33.4323H92.3993V36.6213H82.6218V40.7989H91.551V43.8986H82.6218V48.5482H92.3993V51.7372H79.1521ZM44.207 51.7372V33.4323H57.2118V36.6213H47.6767V40.8308H56.4145V44.0198H47.6767V51.7372H44.207ZM70.9436 44.1984C73.4948 43.4521 75.1021 41.4749 75.1021 38.9365C75.1021 35.6837 72.4488 33.4068 68.6603 33.4004H61.0067V51.7372H64.47V44.5045H67.2444L71.9833 51.7372H75.9823L70.9436 44.1984ZM64.4381 41.3219V36.5511H68.5838C70.4143 36.5511 71.5495 37.4759 71.5495 38.9684C71.5495 40.4608 70.4398 41.3219 68.5838 41.3219H64.4381ZM96.4557 51.7372V33.4323H109.677V36.6213H99.8998V40.7989H108.829V43.8986H99.8998V48.5482H109.677V51.7372H96.4557Z" fill="#DF3E3F"/>
<path d="M218.327 20L218.321 20.0064L196.712 41.6725V29.5287L183.995 20.0064L183.988 20H177.432L177.464 20.0255L192.414 31.2636V51.8071V51.839L192.439 51.8135L224.208 20.0255L224.233 20H218.327Z" fill="#005478"/>
</svg>
