<svg width="269" height="72" viewBox="0 0 269 72" fill="none" xmlns="http://www.w3.org/2000/svg">
<path d="M107 33.6303H112.088C113.129 33.6693 113.765 33.9393 113.996 34.4401C114.216 34.9499 114.315 35.5039 114.285 36.0584V42.417C114.273 42.7497 114.195 43.0768 114.056 43.3794C113.917 43.6819 113.72 43.9541 113.476 44.1803C112.499 45.0754 111.348 45.7605 110.095 46.193C108.842 46.6255 107.513 46.7963 106.192 46.6947C104.787 46.7016 103.396 46.4161 102.107 45.8564C100.818 45.2967 99.6597 44.475 98.7055 43.4436C97.6754 42.4168 96.8629 41.1929 96.3166 39.8449C95.7703 38.4969 95.5015 37.0526 95.5262 35.5983C95.4928 34.163 95.7641 32.737 96.3222 31.4142C96.8803 30.0915 97.7126 28.9021 98.764 27.9245C100.611 26.1034 103.058 25.0157 105.647 24.864C108.237 24.7123 110.793 25.5071 112.84 27.1001C113.065 27.2355 113.253 27.4234 113.389 27.6476C113.525 27.8718 113.605 28.1256 113.621 28.3873C113.572 28.9869 113.34 29.5569 112.956 30.0201C112.204 31.0414 111.52 31.552 110.904 31.552C110.26 31.4359 109.654 31.1618 109.141 30.7541C108.278 30.2079 107.273 29.9303 106.252 29.9563C104.801 29.9512 103.404 30.5051 102.35 31.5028C101.788 32.0122 101.345 32.6384 101.05 33.3373C100.756 34.0363 100.618 34.7912 100.646 35.5491C100.629 36.3386 100.774 37.1232 101.071 37.8548C101.369 38.5864 101.812 39.2497 102.374 39.8042C102.875 40.3496 103.482 40.7862 104.159 41.087C104.835 41.3879 105.566 41.5464 106.306 41.5527C107.285 41.5679 108.257 41.3912 109.168 41.0328V37.8828H106.885C106.448 37.9157 106.01 37.836 105.612 37.6514C105.489 37.5767 105.382 37.478 105.298 37.3613C105.214 37.2446 105.154 37.1122 105.121 36.9719C105.034 36.5734 104.995 36.1657 105.006 35.7579C104.996 35.3442 105.04 34.9311 105.139 34.5292C105.168 34.3952 105.226 34.269 105.308 34.1593C105.39 34.0496 105.495 33.959 105.616 33.8936C106.052 33.7018 106.525 33.6118 107 33.6303Z" fill="#796EAE"/>
<path d="M118.583 33.0828C120.063 31.6394 122.048 30.8304 124.115 30.8276C126.183 30.8249 128.169 31.6287 129.653 33.0682C130.961 34.3454 131.79 36.0336 132 37.8494C132.211 39.6653 131.791 41.4983 130.81 43.041C130.065 44.2084 129.022 45.1562 127.789 45.7869C126.646 46.3643 125.385 46.6662 124.104 46.6685C122.813 46.6634 121.542 46.3405 120.405 45.7284C119.179 45.0748 118.14 44.1203 117.384 42.9546C116.564 41.728 116.135 40.2813 116.155 38.8059C116.125 37.7335 116.326 36.6673 116.745 35.6797C117.164 34.6921 117.791 33.8063 118.583 33.0828ZM122.196 40.8709C122.725 41.3112 123.387 41.5608 124.075 41.5797C124.774 41.5573 125.445 41.3033 125.983 40.8576C126.279 40.5899 126.516 40.2643 126.68 39.901C126.844 39.5376 126.931 39.1444 126.936 38.7459C126.942 38.3473 126.865 37.9518 126.711 37.5842C126.557 37.2166 126.328 36.8847 126.04 36.6092C125.493 36.1641 124.81 35.9192 124.104 35.9151C123.394 35.9209 122.709 36.1765 122.168 36.6371C121.863 36.8971 121.623 37.225 121.468 37.5945C121.312 37.9639 121.245 38.3647 121.272 38.7647C121.246 39.1648 121.317 39.5652 121.479 39.932C121.641 40.2987 121.889 40.6208 122.203 40.8709H122.196Z" fill="#796EAE"/>
<path d="M144.977 33.6303H150.064C151.105 33.6693 151.741 33.9393 151.973 34.4401C152.193 34.9499 152.292 35.5039 152.261 36.0584V42.417C152.249 42.7497 152.172 43.0768 152.033 43.3794C151.894 43.6819 151.697 43.9541 151.453 44.1803C150.475 45.0754 149.324 45.7605 148.071 46.193C146.818 46.6255 145.49 46.7963 144.168 46.6947C142.763 46.7016 141.372 46.4161 140.083 45.8564C138.795 45.2967 137.636 44.475 136.682 43.4436C135.652 42.4168 134.839 41.1929 134.293 39.8449C133.747 38.4969 133.478 37.0526 133.503 35.5983C133.469 34.163 133.741 32.737 134.299 31.4142C134.857 30.0915 135.689 28.9021 136.741 27.9245C138.588 26.1034 141.034 25.0157 143.624 24.864C146.213 24.7123 148.77 25.5071 150.817 27.1001C151.041 27.2355 151.23 27.4234 151.366 27.6476C151.502 27.8718 151.581 28.1256 151.598 28.3873C151.549 28.987 151.317 29.5572 150.933 30.0201C150.181 31.0414 149.497 31.552 148.881 31.552C148.236 31.4359 147.63 31.1618 147.118 30.7541C146.255 30.2079 145.249 29.9303 144.228 29.9563C142.777 29.9512 141.38 30.5051 140.327 31.5028C139.765 32.0122 139.321 32.6384 139.027 33.3373C138.732 34.0363 138.594 34.7912 138.622 35.5491C138.606 36.3386 138.751 37.1232 139.048 37.8548C139.345 38.5864 139.788 39.2497 140.351 39.8042C140.851 40.3496 141.459 40.7862 142.135 41.087C142.811 41.3879 143.543 41.5464 144.283 41.5527C145.261 41.5679 146.234 41.3912 147.144 41.0328V37.8828H144.861C144.424 37.9157 143.986 37.836 143.589 37.6514C143.466 37.5767 143.359 37.478 143.275 37.3613C143.19 37.2446 143.13 37.1122 143.098 36.9719C143.01 36.5734 142.971 36.1657 142.982 35.7579C142.972 35.3442 143.017 34.9311 143.115 34.5292C143.144 34.3952 143.202 34.269 143.285 34.1593C143.367 34.0496 143.472 33.959 143.593 33.8936C144.028 33.7018 144.501 33.6118 144.977 33.6303Z" fill="#796EAE"/>
<path d="M169.254 36.9692C169.294 37.4445 169.236 37.9229 169.084 38.3751C168.933 38.8273 168.691 39.2439 168.373 39.5994C168.121 39.8642 167.818 40.0761 167.483 40.2227C167.148 40.3693 166.788 40.4476 166.422 40.4531H159.573C159.59 40.7454 159.689 41.0271 159.857 41.2667C160.026 41.5064 160.257 41.6947 160.526 41.8107C161.102 42.16 161.761 42.3496 162.434 42.3599C163.324 42.3924 164.213 42.2751 165.064 42.0128L165.382 41.8971C165.742 41.7122 166.135 41.604 166.539 41.5794C167.155 41.5794 167.687 42.0128 168.135 42.8798C168.355 43.2904 168.483 43.7442 168.51 44.2095C168.51 45.924 166.458 46.7812 162.354 46.7812C161.05 46.8052 159.755 46.5542 158.554 46.0445C157.54 45.6247 156.649 44.9534 155.966 44.0938C154.779 42.6095 154.137 40.7633 154.146 38.8628C154.098 37.7798 154.284 36.6992 154.69 35.6943C155.097 34.6894 155.715 33.7837 156.502 33.0386C158.103 31.5721 160.214 30.7891 162.384 30.8565C163.528 30.7724 164.675 30.9897 165.709 31.4866C166.744 31.9836 167.63 32.7428 168.28 33.6888C168.923 34.6613 169.262 35.8033 169.254 36.9692ZM163.156 37.8216C163.888 37.8216 164.255 37.5113 164.255 36.8908C164.26 36.6863 164.217 36.4834 164.129 36.2986C164.041 36.1138 163.911 35.9522 163.749 35.827C163.327 35.534 162.817 35.3934 162.304 35.4281C161.612 35.4551 160.953 35.7265 160.442 36.194C160.173 36.3779 159.95 36.6204 159.789 36.9033C159.628 37.1862 159.533 37.502 159.511 37.8269L163.156 37.8216Z" fill="#796EAE"/>
<path d="M189.95 36.2913L188.071 36.1756V40.1648C188.04 40.5565 188.125 40.9488 188.316 41.2924C188.431 41.4216 188.576 41.5207 188.738 41.5812C188.9 41.6417 189.075 41.6617 189.246 41.6394C189.594 41.6344 189.941 41.6486 190.286 41.682C190.549 41.7188 190.8 41.8128 191.023 41.9572C191.485 42.2081 191.716 42.8535 191.716 43.8933C191.716 45.1069 191.446 45.8488 190.907 46.1192C190.666 46.2392 190.408 46.3221 190.141 46.3652C189.82 46.3987 189.497 46.413 189.173 46.4078C187.533 46.5072 185.917 45.9688 184.664 44.9052C184.096 44.3197 183.657 43.6203 183.378 42.8532C183.099 42.0861 182.986 41.2687 183.046 40.4547V36.177C182.12 36.2532 181.35 36.2918 180.734 36.2927L178.098 36.1756V40.1648C178.067 40.5567 178.153 40.949 178.344 41.2924C178.459 41.4216 178.604 41.5207 178.766 41.5812C178.929 41.6417 179.103 41.6617 179.275 41.6394C179.622 41.6343 179.969 41.6486 180.315 41.682C180.586 41.7213 180.846 41.8149 181.081 41.9572C181.524 42.2081 181.746 42.8535 181.746 43.8933C181.746 45.1069 181.476 45.8488 180.936 46.1192C180.694 46.2392 180.436 46.3222 180.17 46.3652C179.848 46.3988 179.524 46.413 179.2 46.4078C177.56 46.5072 175.944 45.9688 174.691 44.9052C174.123 44.3197 173.684 43.6203 173.406 42.8532C173.127 42.0861 173.013 41.2687 173.073 40.4547V36.177C172.677 36.2351 172.277 36.264 171.876 36.2634C171.677 36.2659 171.48 36.2229 171.3 36.1377C171.119 36.0524 170.961 35.9271 170.837 35.7714C170.51 35.277 170.362 34.6858 170.418 34.096C170.397 33.5191 170.446 32.9419 170.563 32.3766C170.62 32.0886 170.758 31.8229 170.961 31.6107C171.29 31.3533 171.7 31.22 172.117 31.2344L173.072 31.3501V28.3729C173.066 28.0447 173.081 27.7166 173.116 27.3902C173.158 27.1422 173.252 26.9059 173.391 26.6961C173.641 26.2147 174.383 25.9741 175.617 25.9741C176.927 25.9741 177.708 26.3287 177.958 27.0379C178.074 27.5201 178.122 28.0158 178.102 28.5112V31.257C179.008 31.2375 179.865 31.2278 180.674 31.2278L183.045 31.257V28.3676C183.039 28.0395 183.053 27.7113 183.087 27.3849C183.127 27.1407 183.21 26.9056 183.333 26.6908C183.599 26.2094 184.35 25.9688 185.587 25.9688C186.897 25.9688 187.668 26.3234 187.899 27.0325C188.038 27.5108 188.097 28.0085 188.074 28.5058V31.3381C188.921 31.261 189.562 31.2224 189.996 31.2224C190.325 31.217 190.653 31.2312 190.979 31.265C191.24 31.3091 191.49 31.4025 191.716 31.5402C192.236 31.7911 192.496 32.5331 192.496 33.7662C192.496 34.9807 192.236 35.7226 191.716 35.9921C191.474 36.1127 191.216 36.1956 190.95 36.2381C190.618 36.2758 190.284 36.2935 189.95 36.2913Z" fill="#796EAE"/>
<path d="M208.764 36.9692C208.804 37.4445 208.746 37.9228 208.594 38.3751C208.443 38.8273 208.2 39.2439 207.882 39.5993C207.63 39.8641 207.328 40.076 206.993 40.2226C206.658 40.3691 206.297 40.4475 205.932 40.453H199.082C199.1 40.7453 199.199 41.027 199.367 41.2667C199.535 41.5064 199.767 41.6946 200.036 41.8107C200.612 42.1599 201.27 42.3495 201.944 42.3598C202.834 42.3923 203.723 42.275 204.574 42.0128L204.892 41.8971C205.251 41.7123 205.644 41.6041 206.047 41.5793C206.668 41.5793 207.2 42.0128 207.643 42.8798C207.864 43.2902 207.993 43.7441 208.019 44.2095C208.019 45.9239 205.967 46.7811 201.863 46.7811C200.558 46.805 199.264 46.554 198.063 46.0445C197.049 45.6244 196.159 44.953 195.476 44.0938C194.289 42.6096 193.646 40.7633 193.656 38.8627C193.608 37.7797 193.794 36.6991 194.2 35.6942C194.607 34.6893 195.225 33.7836 196.012 33.0386C197.613 31.5719 199.723 30.7889 201.893 30.8565C203.038 30.7725 204.184 30.9898 205.219 31.4868C206.253 31.9837 207.14 32.7429 207.789 33.6888C208.432 34.6613 208.772 35.8032 208.764 36.9692ZM202.666 37.8215C203.398 37.8215 203.764 37.5113 203.764 36.8907C203.77 36.6862 203.727 36.4833 203.639 36.2985C203.551 36.1137 203.421 35.9521 203.259 35.8269C202.836 35.534 202.327 35.3933 201.814 35.428C201.122 35.4551 200.462 35.7265 199.952 36.1939C199.683 36.3778 199.46 36.6204 199.299 36.9032C199.137 37.1861 199.043 37.5019 199.021 37.8268L202.666 37.8215Z" fill="#796EAE"/>
<path d="M220.991 31.3474C221.345 31.455 221.661 31.6607 221.902 31.9405C222.177 32.3322 222.305 32.8081 222.264 33.2848C222.24 33.9929 222.052 34.6857 221.715 35.3086C221.59 35.6308 221.371 35.9078 221.086 36.1037C220.801 36.2996 220.464 36.4053 220.119 36.407C219.773 36.4075 219.432 36.3289 219.122 36.177C218.725 36.0071 218.296 35.9281 217.865 35.9456C217.328 35.9506 216.81 36.1451 216.402 36.4947C216.193 36.6477 216.022 36.8478 215.904 37.0787C215.786 37.3097 215.724 37.5651 215.723 37.8245V43.8933C215.728 44.2262 215.714 44.5592 215.68 44.8905C215.634 45.1601 215.541 45.4194 215.405 45.6565C215.116 46.1582 214.363 46.4087 213.144 46.4078C212.444 46.4685 211.743 46.296 211.15 45.9171C210.985 45.755 210.854 45.5615 210.764 45.348C210.675 45.1345 210.629 44.9052 210.63 44.6738V33.6917C210.625 33.3587 210.639 33.0257 210.673 32.6944C210.713 32.4369 210.796 32.188 210.919 31.9578C211.184 31.4383 211.936 31.1781 213.172 31.1772C214.325 31.1772 215.047 31.3989 215.34 31.8421C215.541 32.1196 215.652 32.4526 215.658 32.7955C215.786 32.6222 215.926 32.4578 216.077 32.3035C216.431 31.9933 216.824 31.7309 217.247 31.523C217.723 31.2319 218.264 31.0633 218.821 31.0323C219.203 31.0277 219.585 31.0518 219.963 31.1041C220.312 31.1589 220.655 31.2402 220.991 31.3474Z" fill="#796EAE"/>
<path d="M223.39 45.0486C223.208 44.9317 223.062 44.7681 222.965 44.5748C222.868 44.3815 222.825 44.1658 222.841 43.9503C222.994 43.1039 223.373 42.3147 223.939 41.6672C224.052 41.502 224.206 41.3696 224.387 41.2835C224.567 41.1973 224.767 41.1604 224.966 41.1765C225.655 41.2509 226.315 41.4938 226.887 41.8839C227.545 42.3091 228.302 42.5536 229.084 42.5927C230.259 42.5927 230.847 42.3613 230.847 41.8986C230.847 41.5333 230.202 41.2639 228.911 41.0901C227.626 40.8901 226.396 40.4275 225.298 39.7311C224.691 39.3289 224.209 38.7628 223.91 38.0982C223.525 37.2709 223.337 36.3656 223.361 35.4534C223.361 32.4093 225.452 30.8872 229.633 30.8872C231.094 30.9088 232.533 31.2439 233.852 31.8698C234.527 32.1783 234.864 32.5635 234.864 33.0254C234.811 33.6411 234.591 34.2307 234.229 34.7314C233.804 35.406 233.371 35.7433 232.928 35.7433C232.478 35.6748 232.043 35.5281 231.642 35.3098C231.003 35.0179 230.308 34.87 229.605 34.8763C228.468 34.8763 227.899 35.0882 227.899 35.5119C227.899 36.0899 228.554 36.4658 229.865 36.6395C231.154 36.78 232.407 37.1521 233.564 37.7379C234.165 38.0491 234.654 38.5387 234.965 39.1394C235.367 39.9103 235.561 40.7721 235.529 41.6406C235.556 42.5265 235.362 43.4051 234.965 44.1976C234.617 44.8738 234.067 45.4246 233.391 45.7734C231.931 46.4168 230.346 46.7231 228.752 46.6696C226.846 46.6553 224.985 46.0926 223.39 45.0486Z" fill="#796EAE"/>
<path d="M56.9089 12C52.1622 12.0003 47.5222 13.4081 43.5755 16.0454C39.6289 18.6827 36.553 22.4311 34.7367 26.8165C32.9204 31.202 32.4453 36.0275 33.3715 40.683C34.2977 45.3384 36.5836 49.6147 39.9401 52.971C43.2966 56.3273 47.573 58.613 52.2285 59.5389C56.8841 60.4649 61.7096 59.9895 66.095 58.1729C70.4803 56.3564 74.2286 53.2803 76.8657 49.3335C79.5028 45.3868 80.9103 40.7467 80.9103 36C80.9036 29.6366 78.3727 23.5358 73.873 19.0363C69.3733 14.5369 63.2723 12.0063 56.9089 12ZM56.9089 58.1597C52.5261 58.1597 48.2418 56.86 44.5976 54.4251C40.9535 51.9902 38.1132 48.5293 36.436 44.4801C34.7588 40.431 34.3199 35.9754 35.175 31.6769C36.03 27.3783 38.1405 23.4298 41.2396 20.3308C44.3387 17.2317 48.2872 15.1212 52.5857 14.2661C56.8843 13.4111 61.3399 13.8499 65.3891 15.5271C69.4382 17.2044 72.8991 20.0446 75.3341 23.6888C77.769 27.3329 79.0687 31.6172 79.0687 36C79.0606 41.8743 76.7232 47.5056 72.569 51.6589C68.4149 55.8123 62.7832 58.1486 56.9089 58.1557V58.1597Z" fill="#796EAE"/>
<path d="M64.1674 26.167C66.2211 25.8337 67.6157 23.8988 67.2825 21.8452C66.9492 19.7915 65.0143 18.3969 62.9606 18.7301C60.907 19.0634 59.5123 20.9983 59.8456 23.0519C60.1788 25.1056 62.1138 26.5002 64.1674 26.167Z" fill="#796EAE"/>
<path d="M74.1155 23.704C73.8926 23.56 73.6436 23.4613 73.3825 23.4137C73.1215 23.366 72.8537 23.3703 72.5944 23.4263C72.335 23.4822 72.0893 23.5887 71.8711 23.7397C71.653 23.8907 71.4667 24.0833 71.323 24.3063C70.1342 26.0512 68.3756 27.3284 66.3486 27.9192C65.506 28.0536 64.6447 28.0099 63.8201 27.7907C62.9955 27.5715 62.2261 27.1817 61.5616 26.6466C54.4383 21.6629 48.2192 26.1387 45.9254 29.201C45.6047 29.6293 45.4672 30.1675 45.5433 30.6971C45.6194 31.2268 45.9027 31.7046 46.331 32.0253C46.7593 32.3461 47.2975 32.4835 47.8272 32.4075C48.3568 32.3314 48.8346 32.0481 49.1553 31.6198C49.8875 30.6612 50.8282 29.8817 51.9061 29.3403C52.984 28.799 54.1709 28.5099 55.3771 28.4949L51.5368 35.7219L43.9136 49.2438C43.7629 49.5037 43.6653 49.7909 43.6265 50.0888C43.5876 50.3867 43.6083 50.6893 43.6873 50.9791C43.7663 51.269 43.9021 51.5403 44.0867 51.7772C44.2713 52.0142 44.5012 52.2122 44.7629 52.3597C45.0246 52.5072 45.313 52.6012 45.6113 52.6364C45.9097 52.6716 46.212 52.6473 46.5009 52.5647C46.7897 52.4822 47.0593 52.3431 47.294 52.1556C47.5287 51.9681 47.7239 51.7359 47.8682 51.4724L53.7841 40.9783L53.8133 41.0009L57.7147 43.5047L52.973 46.3889C52.4586 46.7017 52.0896 47.206 51.9471 47.7909C51.8046 48.3758 51.9002 48.9934 52.213 49.5077C52.5258 50.0221 53.0302 50.3911 53.6151 50.5336C54.2 50.6761 54.8175 50.5805 55.3319 50.2676L63.1772 45.4953C63.5061 45.2953 63.7788 45.0148 63.9695 44.6804C64.1602 44.3459 64.2627 43.9684 64.2674 43.5834C64.272 43.1985 64.1787 42.8186 63.9961 42.4797C63.8136 42.1407 63.5477 41.8538 63.2237 41.6458L58.6907 38.7377L62.4911 31.5852C63.9845 32.0772 65.5792 32.1775 67.1225 31.8764C70.2253 31.0693 72.925 29.1535 74.7112 26.4911C75.0009 26.0422 75.1009 25.4968 74.9892 24.9744C74.8776 24.452 74.5634 23.9952 74.1155 23.704Z" fill="#796EAE"/>
<path d="M47.9726 31.2544C47.9207 30.97 47.7703 30.713 47.5478 30.5284C47.3253 30.3439 47.0449 30.2436 46.7559 30.2451C46.4687 30.2451 43.9156 30.3263 43.1085 31.2544L43.038 31.3448C43.0152 31.3699 42.9947 31.3971 42.9768 31.4259L40.344 34.8912L40.2682 34.9975V35.0068C40.0506 35.3619 39.9755 35.7861 40.0581 36.1943C40.0581 36.1943 40.231 37.5532 42.2894 38.7207C44.3478 39.8882 44.7945 39.726 45.2972 39.5093C45.646 39.3733 45.9394 39.1248 46.1309 38.8032L48.3449 34.5481C48.4096 34.4 48.4439 34.2403 48.446 34.0787C48.4054 33.1213 48.2464 32.1727 47.9726 31.2544ZM47.1747 33.1253C45.4461 32.7264 45.111 31.9645 44.9807 31.773L46.212 31.0815L47.3224 31.5257L47.1747 33.1253Z" fill="#796EAE"/>
</svg>
