<svg width="269" height="72" viewBox="0 0 269 72" fill="none" xmlns="http://www.w3.org/2000/svg">
<path d="M56.4579 12.4635C57.3913 11.8455 58.6077 11.8455 59.5411 12.4635C61.9178 13.9457 64.1984 15.5747 66.3676 17.3408C66.3676 17.3408 66.9586 17.7467 66.9748 17.0592C66.9165 16.1702 66.9694 15.2781 67.1325 14.4031C67.3118 13.935 67.7623 13.6244 68.2679 13.6212C68.2679 13.6212 70.9493 13.754 72.6508 13.9811C73.4124 14.0818 74.0055 14.6847 74.0865 15.4419C74.0865 15.4419 75.182 22.6798 75.4272 25.2898C75.4272 25.2898 75.6379 26.6189 77.5792 28.8691C77.5792 28.8691 81.5202 34.3409 81.9783 35.3873C81.9783 35.3873 82.8922 37.2797 80.9217 37.5368C80.9217 37.5368 77.3253 37.8966 76.9796 37.9748C76.4956 38.0326 76.1456 38.4621 76.191 38.9441C76.191 38.9441 76.0019 51.5359 75.0718 57.5849C75.0718 57.5849 74.8276 59.985 73.4945 59.9304C73.4945 59.9304 69.7966 59.8136 68.9377 59.8372C68.9377 59.8372 68.5672 59.8372 68.6223 59.3446C68.6223 59.3446 70.5064 39.7098 69.2294 29.7848C69.2294 29.7848 69.1732 28.5028 68.1891 28.2212C68.1891 28.2212 67.2902 27.8613 66.4303 29.003C62.701 34.1792 60.6603 40.3621 60.5804 46.7217C60.5804 46.7217 60.4777 49.848 60.9596 50.6287C60.9596 50.6287 61.2577 51.176 62.7885 51.3013L64.7266 51.5594C64.7266 51.5594 65.0821 51.5594 65.0497 52.0274C65.0497 52.0274 64.6089 57.7884 64.4836 58.8123C64.4749 59.0457 64.4274 59.2749 64.341 59.4913C64.341 59.4913 64.2697 59.6873 63.6625 59.6637C63.6625 59.6637 55.1172 59.6027 54.1546 59.6637C54.1546 59.6637 53.7527 59.6637 53.6663 59.4527C53.5799 59.2407 53.0743 52.0189 53.0905 50.9961C53.0743 50.7829 53.1942 50.5837 53.3898 50.4948C54.711 49.6691 55.5817 48.2918 55.7557 46.7528C55.8605 45.6571 55.8745 44.5583 55.8032 43.4616C55.8032 43.4616 56.1186 32.4184 56.1986 30.6427C56.1986 30.6427 56.2602 30.0408 55.4726 29.9326C55.0783 29.8405 54.684 30.0815 54.59 30.4713V30.5324C54.59 30.5956 54.039 37.8174 54.1406 40.693C54.1406 40.693 54.3307 42.5769 53.0138 42.6155C53.0138 42.6155 51.7358 42.804 51.6731 41.2328C51.6731 41.2328 51.7671 34.1513 52.0826 30.6502C52.0847 30.2496 51.7822 29.9123 51.3814 29.8684C50.9644 29.8105 50.5755 30.0901 50.4999 30.5013C50.4945 30.5217 50.4945 30.5431 50.4999 30.5624C50.4999 30.5624 49.9479 37.3408 50.0494 40.9201C50.0494 40.9201 50.2071 42.6562 48.8114 42.5919C48.8114 42.5919 47.6446 42.7247 47.582 41.1846C47.582 41.1846 47.8974 31.4856 47.9838 30.7359C47.9633 30.3535 47.6662 30.0429 47.2827 30.0012H47.2028C46.7944 29.9669 46.4271 30.2496 46.358 30.6502C46.3558 30.6738 46.3558 30.6973 46.358 30.7209C46.358 30.7209 45.8394 42.3199 45.9096 45.7267C45.9096 45.7267 45.8621 49.2289 48.4711 50.6512C48.4711 50.6512 48.8567 50.8708 48.8665 51.206C48.8665 51.206 49.1581 57.3578 49.425 59.3435C49.425 59.3435 49.5211 59.8201 49.0944 59.8201L42.5271 60C41.813 59.9957 41.2254 59.4409 41.1865 58.733C40.3352 52.2149 39.93 45.6485 39.9733 39.0758C40.0208 38.5724 39.6827 38.113 39.1846 38.0048C39.1846 38.0048 35.8259 37.7006 35.0135 37.4971C34.267 37.3054 33.8198 36.5493 34.0142 35.8103C34.0466 35.6861 34.0963 35.5672 34.1622 35.4569C39.6189 26.1252 47.2687 18.2362 56.46 12.4635H56.4579ZM102.706 30.6823H96.2245C94.8272 30.6823 93.9813 31.4927 93.6868 33.1135C93.246 35.5436 93.2525 35.6293 95.1766 35.6293H99.0322L96.8402 48.0487C96.3109 50.8236 95.089 52.7386 91.3209 53.8642C90.3594 54.1223 90.099 54.4661 90.099 54.9031C90.166 55.6025 90.3756 56.2804 90.7137 56.8973C91.322 58.3742 91.6763 58.6388 92.1959 58.6388C92.8204 58.5799 93.4383 58.462 94.0411 58.2864C99.3779 56.5514 101.57 52.4719 102.445 47.6096L104.897 33.6351C105.186 31.6652 104.455 30.6802 102.705 30.6802M124.685 30.6802C122.935 30.6802 121.942 31.4045 121.705 32.8533L119.812 44.1395C119.285 47.4382 118.409 49.3456 115.168 49.3456C111.927 49.3456 110.88 47.4371 111.408 44.4833L113.246 33.7218C113.773 30.6813 113.679 30.6813 110.968 30.6813C108.256 30.6813 108.255 30.6813 107.901 32.7676L105.975 44.0549C104.84 50.4798 108.869 54.4651 114.562 54.4651C120.948 54.4651 124.187 51.6044 125.236 44.8357L127.167 33.6351C127.601 30.6802 127.427 30.6802 124.716 30.6802M136.675 49.1721C138.78 49.0865 139.916 48.1333 139.916 47.179C139.916 45.9602 138.426 45.5297 136.415 44.9203C132.474 43.7015 128.886 42.3177 128.886 38.1526C128.886 33.2035 133.002 30.5078 138.165 30.5078C140.241 30.4928 142.317 30.5817 144.385 30.7734C145.781 30.9458 146.136 31.3763 145.693 33.5483C145.252 35.7214 144.731 35.8938 143.509 35.8071C142.019 35.7214 140.088 35.5415 137.817 35.5415C135.192 35.5415 134.402 36.5032 134.402 37.3708C134.402 38.4964 135.451 39.1069 137.903 39.8019C142.451 41.0989 145.432 42.9282 145.432 46.8363C145.432 51.4405 142.018 54.1288 136.5 54.3001C133.864 54.3922 131.225 54.2487 128.615 53.8706C126.858 53.605 126.771 53.605 127.211 51.0882C127.646 48.8369 127.646 48.657 129.309 48.8369C131.746 49.1422 134.206 49.2568 136.664 49.1818M165.307 30.6813H150.507C149.109 30.6813 148.263 31.5224 147.97 33.2045C147.528 35.731 147.622 35.7225 149.459 35.7225H154.278L151.557 51.2927C151.036 54.3247 151.123 54.3247 153.836 54.3247C156.373 54.3247 156.461 54.3247 156.816 52.1603L159.614 35.746H164.259C165.657 35.746 166.504 34.9074 166.799 33.2303C167.239 30.7123 167.232 30.707 165.309 30.707M191.404 35.6614C192.803 35.6614 193.649 34.8221 193.944 33.1435C194.385 30.6277 194.378 30.6277 192.454 30.6277H181.858C178.09 30.6277 178.183 30.6277 177.569 34.3634L174.858 50.0718C174.154 54.1523 174.242 54.1523 178.011 54.1523H188.346C190.538 54.1523 190.442 54.1523 190.883 51.7211C191.325 49.291 191.318 49.2053 189.393 49.2053H180.453L181.156 44.6879H188.597C189.943 44.6879 190.732 43.906 190.963 42.3424C191.311 39.9969 191.311 39.9122 188.597 39.9122H182.03L182.731 35.6529L191.403 35.6604L191.404 35.6614ZM202.592 43.9692L206.007 36.5043C206.185 36.098 206.418 35.8949 206.707 35.8949C207.141 35.8949 207.149 35.8949 207.236 36.59L208.284 43.9681L202.592 43.9692ZM211.871 33.5494C211.523 31.5795 209.947 30.5945 207.14 30.5945C203.199 30.5945 203.285 30.5945 202.063 33.0257L193.218 51.3452C191.902 53.9488 192.169 54.2059 195.402 54.2059C197.099 54.2059 198.297 53.424 198.997 51.8604L200.393 48.7341H208.979L209.413 51.8604C209.767 54.2059 209.854 54.2059 212.393 54.2059C215.287 54.2059 215.546 54.0334 215.018 51.1653L211.873 33.5494H211.871ZM232.818 30.6802H217.933C216.53 30.6802 215.683 31.5213 215.394 33.2035C214.959 35.73 215.038 35.7214 216.876 35.7214H221.694L218.981 51.2917C218.454 54.3237 218.539 54.3237 221.26 54.3237C223.797 54.3237 223.885 54.3237 224.233 52.1592L227.039 35.745H231.675C233.078 35.745 233.925 34.9064 234.215 33.2292C234.648 30.7112 234.742 30.7059 232.819 30.7059" fill="#FF8000"/>
</svg>
