<svg width="269" height="72" viewBox="0 0 269 72" fill="none" xmlns="http://www.w3.org/2000/svg">
<path d="M187.607 34.4762L178.693 49.8622L171.105 49.8855L187.607 20.9114L204.039 49.8855H196.312L187.607 34.4762ZM163.635 43.1848H172.153L168.196 49.8855H157.094L157.118 41.7372V21.0982H163.658L163.635 43.1848ZM140.291 21.0982C148.413 21.1215 154.977 27.5654 154.93 35.5034C154.907 43.4183 148.343 49.8622 140.221 49.8622C132.145 49.8388 125.581 43.3949 125.581 35.4568C125.628 27.5187 132.191 21.0982 140.291 21.0982ZM140.267 43.1614C144.619 43.1614 148.111 39.7294 148.111 35.5034C148.134 31.2776 144.619 27.8222 140.291 27.8222C135.985 27.7988 132.447 31.2543 132.447 35.4801C132.424 39.706 135.962 43.1614 140.267 43.1614ZM113.502 33.2155C113.409 32.0247 113.106 30.4371 112.641 28.9195C111.71 25.791 110.081 22.8959 107.87 20.4911C106.706 19.2303 105.403 18.0863 103.471 16.7088C101.981 15.9851 100.538 15.1913 99.0952 14.3507C98.1643 13.8138 97.0238 13.16 95.5342 12.6931C93.7654 12.2728 91.9733 12.0394 90.1579 12.016C88.389 11.946 86.6435 12.1094 84.9212 12.4363C83.129 12.7398 81.6395 13.2067 79.6612 13.697C75.1925 15.6348 71.7247 18.5533 68.7456 22.429C58.342 36.9977 67.7448 57.38 85.1073 59.7848C87.9701 60.1817 90.8329 60.0182 93.5327 59.3879L95.4411 58.8742C95.511 58.8509 95.604 58.8042 95.6506 58.8042L97.8384 57.9637C97.9547 57.8936 98.0479 57.8703 98.1642 57.8236L99.0719 57.4033C100.817 56.5395 102.47 55.4655 103.96 54.2281C102.586 55.4655 101.097 56.5862 99.5141 57.5435L99.6073 57.6135C99.9098 57.5201 100.189 57.4267 100.492 57.38C100.492 57.38 100.492 57.8469 100.422 57.7769C99.933 58.1271 100.701 57.8002 101.679 57.31C102.656 56.7963 103.587 56.1893 104.448 55.4655C105.705 54.4149 106.799 53.2942 108.335 51.4498C109.918 48.6714 111.896 46.2666 112.804 43.0214C113.106 42.1575 113.386 41.1535 113.572 40.1029C113.758 39.0523 113.874 37.9783 113.874 36.881C113.851 35.7603 113.735 34.6163 113.502 33.2155ZM90.9957 57.6835C96.3255 56.843 100.771 53.9012 104.425 49.8855C105.426 48.4146 106.217 47.0838 107.195 45.6363C108.405 42.6478 108.312 40.0095 108.707 38.1418C109.196 34.7564 108.032 32.0014 107.078 29.083C105.589 25.6975 103.61 23.1527 100.143 21.1915C91.3914 15.7749 79.475 17.2925 73.7961 25.3941C73.7729 25.3941 73.6099 25.6042 73.3074 26.0244C73.703 24.3668 74.7038 23.3862 75.7046 22.429C78.6837 19.9774 82.1515 18.063 86.1082 17.1057C90.5768 16.6388 95.0222 17.1057 99.0021 19.0435C104.96 22.429 108.917 27.7755 109.918 34.0793V39.9162C108.661 49.4419 100.445 56.7029 90.9957 57.6835ZM112.85 35.9471C112.641 21.962 98.746 12.5063 85.2237 14.4208C81.2671 15.4014 76.9614 17.3626 73.8892 20.1176C72.3997 21.0982 71.7014 22.9192 70.2119 24.3668C64.2537 33.0987 65.2777 44.2588 72.7022 51.0529C73.6565 51.9867 74.6572 52.874 75.7512 53.6678C69.5602 49.9555 66.744 44.3054 65.7898 37.4646C65.7898 35.0132 66.2785 32.6084 66.7906 30.1803C70.2584 19.4872 81.174 11.7125 93.0439 13.697C95.0222 14.164 97.0005 14.6776 99.0021 15.1679C101.492 16.1485 103.96 17.6194 105.938 19.5339C107.916 21.4717 109.406 23.8998 110.895 26.328C111.896 28.2658 112.385 30.6939 112.874 32.6318C112.943 33.7291 112.943 34.8498 112.85 35.9471Z" fill="black"/>
<path d="M100.514 36.1576C100.514 42.1812 95.4634 47.0609 89.2491 47.0609C83.0116 47.0609 77.9844 42.1812 77.9844 36.1576C77.9844 30.134 83.0349 25.2544 89.2491 25.2544C95.4634 25.2544 100.514 30.1574 100.514 36.1576Z" fill="white"/>
<path d="M100.586 34.3127C100.423 33.4722 100.19 32.8185 99.9574 31.9079C98.9799 29.8767 97.5602 28.3124 95.675 26.9583C88.6229 22.2888 78.9175 26.7715 77.8935 34.7563C77.4978 37.9082 78.615 40.9434 80.6398 43.2781C80.0347 42.6478 79.3597 41.994 78.9175 41.2469L78.8477 41.3169C78.9175 41.5037 79.1503 41.6204 79.2201 41.7839C79.2201 41.7839 78.9873 41.7838 79.0339 41.7605C78.8477 41.5504 79.0106 41.8773 79.2667 42.3209C79.4994 42.7644 79.8252 43.1847 80.1744 43.5816C80.6863 44.1419 81.245 44.6556 82.1527 45.3327C83.5025 46.0098 84.6663 46.9203 86.2256 47.3172C86.6446 47.4339 87.1334 47.5507 87.6221 47.644C88.1341 47.7375 88.6228 47.7608 89.1815 47.7608C89.6935 47.7608 90.2521 47.6908 90.9037 47.574C91.602 47.504 92.2769 47.3639 92.9286 47.1538C94.4182 46.7102 95.7914 45.9397 96.9318 44.8891C97.5136 44.3521 98.3282 43.675 98.9566 42.7644C99.4687 41.7605 99.5385 41.2469 99.7712 40.8033C100.004 40.3597 100.307 39.846 100.539 39.169C100.702 38.3518 100.819 37.5347 100.842 36.6941C100.819 35.9003 100.772 35.1065 100.586 34.3127ZM93.3475 28.7794C94.3716 29.3631 94.5345 29.4564 93.9759 29.0829C94.7673 29.2697 95.256 29.7133 95.7448 30.1569C96.9318 31.4877 97.9093 33.0753 98.398 34.8964C98.6774 36.951 98.4678 39.0055 97.5835 40.8266C96.0008 43.605 93.4872 45.4494 90.4615 45.9397C90.1357 45.9397 89.7633 45.9397 89.4375 45.9631C90.2986 45.823 90.8339 45.286 92.3933 44.7023C94.069 44.1186 95.9542 41.3403 96.862 39.7293C99.5152 35.3634 96.3499 31.3242 93.3475 28.7794ZM87.6221 45.9864C83.0138 45.5194 79.4529 41.7372 78.9641 37.3479C79.383 39.7993 80.8493 41.6672 82.8276 43.3248C83.5258 43.7684 84.5499 44.3988 85.2481 44.8424C86.4351 45.286 87.1333 45.7763 88.297 45.9631L87.6221 45.9864ZM100.051 38.0483C99.841 38.9822 99.6316 39.8694 99.4221 40.7799C98.9566 41.9006 98.305 43.068 97.3973 44.0019C96.4895 44.9358 95.3259 45.6362 94.1854 46.3133C93.2777 46.7802 92.114 47.037 91.183 47.2705C90.6245 47.3406 89.996 47.0837 89.4607 47.0604C96.2103 46.8736 100.819 40.5931 99.8178 34.3828C99.3291 32.5616 98.3515 30.9974 97.1645 29.4097C96.6757 28.7327 95.7448 28.3125 95.0465 27.612C90.8107 24.9738 85.2249 25.4874 82.0363 28.9895C81.594 29.4564 81.1751 29.9234 80.7795 30.437C82.4785 27.9389 85.2249 26.1878 88.5065 25.6742C89.6702 25.6508 90.8572 25.8609 91.9977 26.0711C97.0714 27.612 100.888 32.5616 100.051 38.0483Z" fill="#D7DF23"/>
</svg>
