<svg width="269" height="72" viewBox="0 0 269 72" fill="none" xmlns="http://www.w3.org/2000/svg">
<g clip-path="url(#clip0_11848_9470)">
<path d="M78.5575 33.0873H67.2619C67.1424 33.0873 67.0455 32.9905 67.0455 32.8709V13.8552C67.0455 12.9504 66.4388 12.3088 65.6943 12.0788C64.9498 11.8488 64.0692 12.0304 63.5199 12.7688L46.5 35.8851C45.577 37.1108 46.5 38.8388 48.0888 38.8388H59.3845C59.504 38.8388 59.6008 38.9356 59.6008 39.0551V58.0724C59.6008 58.9772 60.2076 59.6188 60.9506 59.8488C61.695 60.0788 62.5757 59.8972 63.125 59.1588L80.1448 36.041C81.0694 34.7881 80.1448 33.0873 78.556 33.0873H78.5575Z" fill="#FFCF4F"/>
<path d="M65.6863 12.0788C64.9418 11.8488 64.0612 12.0304 63.5119 12.7688L53.1816 26.7987L61.3602 34.8743C61.5221 35.0332 61.7824 35.0317 61.9428 34.8713L67.0375 29.7085V13.8552C67.0375 12.9504 66.4307 12.3088 65.6863 12.0788Z" fill="#EA3324"/>
<path d="M120.562 46.7628C119.551 45.4191 118.483 43.9922 117.36 42.5093C117.108 42.2021 117.052 41.8935 117.136 41.5863C117.221 41.2791 117.445 41.0264 117.783 40.8312C119.327 39.9914 120.564 38.8445 121.546 37.3903C122.782 35.5715 123.399 33.3896 123.399 30.843C123.399 29.1921 123.118 27.6533 122.585 26.2264C122.304 25.5273 121.968 24.8827 121.602 24.2956C121.208 23.6797 120.759 23.1486 120.254 22.6175C119.243 21.6657 118.062 20.8834 116.687 20.2676C115.254 19.7365 113.709 19.4565 112.025 19.4565H98.3462C98.2342 19.4565 98.0935 19.4838 97.9815 19.5125H91.9713C91.6626 19.5125 91.4372 19.8197 91.5219 20.0996C91.7186 20.8547 91.8593 21.6385 93.6842 22.7295C95.0324 23.5405 96.6621 24.9962 96.942 26.9269V51.0722C96.942 51.4641 97.0827 51.8 97.3641 52.0512C97.6456 52.3311 97.9815 52.4704 98.3477 52.4704H101.914C102.308 52.4704 102.645 52.3311 102.898 52.0512C103.15 51.7713 103.291 51.4354 103.291 51.0722V43.3506C103.291 42.9587 103.432 42.6228 103.712 42.3429C103.993 42.0629 104.329 41.9237 104.723 41.9237H108.206C108.599 41.9237 108.993 42.0357 109.442 42.2309C109.864 42.4548 110.2 42.706 110.426 43.0419L113.403 47.2394C113.909 47.9385 114.414 48.6103 114.92 49.2822C115.425 49.954 115.93 50.6531 116.436 51.3249C116.689 51.6321 116.997 51.8848 117.419 52.08C117.84 52.3039 118.262 52.3871 118.656 52.3871H123.178C123.572 52.3871 123.825 52.2192 123.936 51.8833C124.048 51.5473 123.965 51.2114 123.74 50.8755C122.617 49.5318 121.578 48.1064 120.565 46.7628H120.562ZM116.602 33.2776C116.265 33.9767 115.871 34.5366 115.422 34.9844C114.973 35.4323 114.411 35.7955 113.736 36.0194C113.09 36.2706 112.5 36.3826 111.966 36.3826H104.635C104.241 36.3826 103.904 36.2419 103.624 35.9634C103.343 35.6835 103.203 35.3476 103.203 34.9557V26.4216C103.203 26.0296 103.344 25.6937 103.624 25.4138C103.905 25.1339 104.241 24.9947 104.635 24.9947H111.966C113.062 24.9947 113.932 25.2186 114.635 25.6377C115.31 26.0569 115.815 26.5608 116.18 27.1766C116.321 27.4838 116.462 27.7925 116.601 28.0996C116.713 28.4068 116.825 28.7427 116.882 29.0786C116.994 29.6945 117.05 30.2543 117.05 30.7855C117.05 31.8492 116.882 32.6603 116.601 33.2761L116.602 33.2776Z" fill="#022653"/>
<path d="M156.376 19.5127H151.743C151.35 19.5127 150.956 19.6247 150.534 19.8487C150.113 20.0726 149.832 20.3525 149.664 20.6885C149.439 21.0516 149.243 21.4163 149.018 21.7794C148.792 22.1426 148.569 22.5073 148.343 22.8704C147.978 23.4863 147.612 24.0734 147.276 24.6892C146.939 25.3051 146.574 25.8922 146.21 26.508L144.047 30.1729C143.795 30.5648 143.569 30.9279 143.345 31.2926C143.121 31.6572 142.896 32.0204 142.699 32.3836C142.475 32.7195 142.25 32.8874 141.941 32.8874C141.66 32.8874 141.407 32.7195 141.239 32.3836C140.677 31.4318 140.087 30.4528 139.526 29.501C138.965 28.5492 138.374 27.5702 137.813 26.564C137.196 25.585 136.606 24.606 136.044 23.6255C135.483 22.6737 134.893 21.6947 134.331 20.7444C134.163 20.4085 133.853 20.1286 133.461 19.9046C133.041 19.6807 132.647 19.5687 132.254 19.5687H127.619C127.226 19.5687 126.973 19.6807 126.832 19.9046C126.691 20.1286 126.747 20.4085 126.944 20.7444C127.816 22.2833 128.715 23.7934 129.669 25.2763C130.595 26.7592 131.579 28.2708 132.562 29.8097C133.517 31.3198 134.472 32.8027 135.4 34.3143C136.326 35.7972 137.226 37.3088 138.096 38.8462C138.32 39.1821 138.489 39.6013 138.63 40.1051C138.771 40.609 138.827 41.0569 138.827 41.4488V51.1572C138.827 51.5491 138.968 51.885 139.22 52.1362C139.473 52.4161 139.81 52.5553 140.204 52.5553H143.77C144.164 52.5553 144.501 52.4161 144.754 52.1362C145.035 51.8562 145.176 51.5203 145.176 51.1572V41.4488C145.176 41.0569 145.232 40.609 145.344 40.1051C145.456 39.6013 145.625 39.1821 145.849 38.8462C146.187 38.2863 146.524 37.6992 146.916 37.0834C147.281 36.4675 147.703 35.8517 148.124 35.1814C148.658 34.3143 149.219 33.4185 149.781 32.4955C150.342 31.5725 150.932 30.6495 151.522 29.725C152.084 28.8019 152.674 27.8789 153.235 26.9831C153.798 26.0874 154.359 25.1931 154.893 24.3245C155.314 23.6527 155.708 23.0369 156.072 22.4498C156.437 21.8627 156.774 21.3028 157.112 20.7429C157.28 20.407 157.336 20.1271 157.196 19.9031C157.027 19.6232 156.774 19.5112 156.381 19.5112L156.376 19.5127Z" fill="#022653"/>
<path d="M186.402 23.6268C183.34 20.8563 179.464 19.4854 174.718 19.4854H163.033C162.64 19.4854 162.302 19.6246 162.05 19.9045C161.797 20.1844 161.656 20.5203 161.656 20.8835V51.1282C161.656 51.5201 161.797 51.8561 162.05 52.1073C162.302 52.3872 162.64 52.5264 163.033 52.5264H174.718C177.048 52.5264 179.212 52.1905 181.206 51.4914C183.143 50.8196 184.885 49.8133 186.429 48.4137C188.086 46.9035 189.323 45.112 190.109 43.042C190.53 41.9783 190.839 40.8873 191.064 39.7131C191.288 38.5661 191.373 37.3072 191.373 35.9923C191.373 33.5016 190.952 31.1517 190.109 28.941C189.238 26.8983 188.03 25.1354 186.402 23.6253V23.6268ZM184.042 41.5894C183.368 43.0435 182.554 44.136 181.598 44.8911C180.616 45.7021 179.52 46.2347 178.34 46.5132C177.105 46.7931 175.896 46.9323 174.774 46.9323H169.381C168.987 46.9323 168.65 46.7931 168.397 46.5132C168.145 46.2332 168.004 45.8973 168.004 45.5341V26.5638C168.004 26.1719 168.145 25.836 168.397 25.5848C168.65 25.3049 168.987 25.1657 169.381 25.1657H174.774C175.896 25.1657 177.077 25.3049 178.313 25.5848C179.52 25.8648 180.616 26.3959 181.627 27.1525C182.582 27.9075 183.396 28.9985 184.07 30.4541C184.717 31.9083 185.025 33.7558 185.025 36.0498C184.998 38.3724 184.661 40.2185 184.042 41.5894Z" fill="#022653"/>
<path d="M220.27 19.4854H198.642C198.251 19.4854 197.913 19.6246 197.66 19.9045C197.379 20.1844 197.238 20.5203 197.238 20.8835V51.1282C197.238 51.5201 197.379 51.8561 197.66 52.1073C197.94 52.3872 198.278 52.5264 198.642 52.5264H220.27C220.663 52.5264 221.001 52.3872 221.253 52.1073C221.535 51.8273 221.674 51.4914 221.674 51.1282V48.2185C221.674 47.8266 221.535 47.4906 221.253 47.2395C220.972 46.9595 220.636 46.8203 220.27 46.8203H204.99C204.598 46.8203 204.261 46.6811 203.979 46.4012C203.699 46.1212 203.559 45.7853 203.559 45.3934V40.4409C203.559 40.049 203.699 39.7131 203.979 39.4619C204.261 39.182 204.598 39.0428 204.99 39.0428H218.22C218.613 39.0428 218.95 38.9035 219.203 38.6236C219.485 38.3437 219.624 38.0078 219.624 37.6159V34.6773C219.624 34.2854 219.485 33.9495 219.203 33.6983C218.922 33.4184 218.586 33.2792 218.22 33.2792H204.99C204.598 33.2792 204.261 33.14 203.979 32.86C203.699 32.5801 203.559 32.2442 203.559 31.881V26.4246C203.559 26.0327 203.699 25.6968 203.979 25.4169C204.261 25.1369 204.598 24.9977 204.99 24.9977H220.27C220.663 24.9977 221.001 24.8585 221.253 24.5786C221.535 24.2987 221.674 23.9627 221.674 23.5996V20.8018C221.674 20.4099 221.535 20.074 221.253 19.8228C221.001 19.5988 220.663 19.4869 220.27 19.4869V19.4854Z" fill="#022653"/>
<path d="M66.0752 39.2686C63.7132 39.2686 61.5025 39.9116 59.6035 41.0283V58.1148C59.6035 59.0196 60.2103 59.6612 60.9532 59.8912C61.6977 60.1212 62.5784 59.9396 63.1276 59.2012L75.0739 42.9742C72.7633 40.6833 69.5842 39.2686 66.0737 39.2686H66.0752Z" fill="#126AFB"/>
</g>
<defs>
<clipPath id="clip0_11848_9470">
<rect width="175.542" height="48" fill="white" transform="translate(46.1328 11.9849)"/>
</clipPath>
</defs>
</svg>
