<svg width="269" height="72" viewBox="0 0 269 72" fill="none" xmlns="http://www.w3.org/2000/svg">
<path fill-rule="evenodd" clip-rule="evenodd" d="M173.178 51.2647H168.622V28.4554H173.178V31.0163C174.243 29.0906 176.56 28.2122 178.635 28.2122H180.013V32.7805H178.606C174.782 32.7805 173.177 34.8467 173.177 38.6131L173.178 51.2647ZM88.4297 20H93.3226V39.0985C93.3226 50.5728 108.302 49.7531 108.302 39.0691V20H112.937V51.2553H108.302V48.4406C105.913 50.7175 103.16 51.815 100.482 51.9073C94.2604 52.1211 88.4307 46.9154 88.4307 38.459V20H88.4297ZM121.327 51.2081H116.788V20.0126H121.327V31.2364C123.87 28.9868 126.841 28.0109 129.692 28.1115C137.018 28.3694 140.904 33.8099 140.969 39.4161C141.039 45.4803 136.708 51.7448 129.294 51.9943C126.468 52.0897 123.612 50.9942 121.327 48.471V51.2081ZM128.909 32.2627C124.712 32.2627 121.309 35.7429 121.309 40.0356C121.309 44.3283 124.712 47.8085 128.909 47.8085C133.106 47.8085 136.508 44.3283 136.508 40.0356C136.508 35.7429 133.106 32.2627 128.909 32.2627ZM165.582 41.4759H147.602C148.852 45.734 151.889 47.9312 155.086 47.8809C157.332 47.8452 159.658 46.6995 161.499 44.3765C162.519 45.1889 163.54 46.0003 164.562 46.8127C161.364 52.6725 152.107 53.0656 147.275 49.1975C143.789 46.407 142.859 42.9404 142.912 39.5849C143.03 32.1369 149.157 27.8463 155.016 27.9144C160.692 27.9805 166.116 32.1369 165.584 41.4759H165.582ZM160.983 37.8049C160.439 30.9974 149.364 29.5099 147.654 37.8049H160.983Z" fill="#27252D"/>
</svg>
