<svg width="269" height="72" viewBox="0 0 269 72" fill="none" xmlns="http://www.w3.org/2000/svg">
<path fill-rule="evenodd" clip-rule="evenodd" d="M122.46 51.2648H117.816V28.4554H122.46V31.017C123.545 29.092 125.906 28.2133 128.021 28.2133H129.424V32.7817H127.991C124.093 32.7817 122.459 34.8479 122.459 38.6138L122.46 51.2648ZM36.0918 20H41.0775V39.0988C41.0775 50.5737 56.3423 49.7535 56.3423 39.07V20H61.066V51.256H56.3423V48.4418C53.9074 50.7188 51.1025 51.8164 48.3728 51.9086C42.033 52.1227 36.0918 46.916 36.0918 38.4606V20ZM69.6179 51.2079H64.9916V20.012H69.6179V31.2367C72.2094 28.9878 75.2371 28.012 78.1418 28.1114C85.608 28.3688 89.5688 33.8096 89.6343 39.4163C89.7062 45.4801 85.2917 51.745 77.7368 51.9944C74.8569 52.089 71.9466 50.9938 69.6179 48.4706V51.2079ZM77.3437 32.2622C73.0658 32.2622 69.5987 35.7426 69.5987 40.0353C69.5987 44.3279 73.0666 47.8084 77.3437 47.8084C81.6209 47.8084 85.0888 44.3279 85.0888 40.0353C85.0888 35.7426 81.6209 32.2622 77.3437 32.2622ZM114.718 41.4752H96.3943C97.6685 45.7334 100.763 47.931 104.021 47.8805C106.311 47.8453 108.681 46.6987 110.557 44.376C111.597 45.1882 112.638 46.0004 113.678 46.8126C110.419 52.6727 100.985 53.0663 96.0604 49.1978C92.5078 46.4069 91.5596 42.9409 91.6139 39.5847C91.7337 32.1363 97.9785 27.8461 103.949 27.9142C109.733 27.98 115.26 32.1371 114.718 41.4752ZM110.032 37.804C109.477 30.997 98.191 29.5089 96.4487 37.804H110.032Z" fill="#27252D"/>
<path fill-rule="evenodd" clip-rule="evenodd" d="M146.778 46.2128V38.5195H162.021V33.2404H146.778V25.5472H162.474V20.2681H140.865V51.4919H162.474V46.2128H146.778ZM231.624 35.7647H225.896C225.738 34.968 225.323 34.3128 224.69 33.7792C223.799 33.0276 222.517 32.515 221.221 32.3861C219.201 32.1859 216.892 33.2394 216.825 34.4942C216.783 35.2699 217.599 36.1242 219.872 36.8045C223.673 37.943 228.535 37.4482 231.198 41.0008C234.314 45.1593 231.046 51.7099 222.068 51.9919C216.703 52.1607 211.072 49.7591 210.326 43.9129H215.998C216.448 44.8637 217.055 45.7274 218.066 46.3669C220.033 47.6101 225.86 47.8617 226.228 44.9874C226.281 44.5701 226.104 44.1445 225.573 43.7619C224.558 43.0313 222.699 42.809 221.046 42.4631C213.899 41.4547 211.282 39.0782 210.786 36.0624C210.569 34.7489 210.735 33.383 211.346 32.211C211.763 31.4112 212.32 30.691 212.982 30.0621C215.037 28.107 218.254 27.2506 221.375 27.3491C225.785 27.4875 231.415 29.9698 231.624 35.7636V35.7647ZM208.792 46.1237V51.4091H202.517C198.646 51.4091 196.47 48.7968 196.47 45.0324V33.6409H192.159V28.4278H196.47V21.7577H202.254V28.4278H208.792V33.6419H202.254V43.612C202.254 45.7987 202.996 46.1247 205.04 46.1247L208.792 46.1237ZM183.907 30.3241V28.3806H189.807V51.3965H183.907V49.2507C181.537 51.1606 178.753 52.1104 176.1 51.9741C170.122 51.6669 164.401 46.5608 164.54 39.5657C164.679 32.4878 170.91 27.6835 176.994 27.7632C179.406 27.7947 181.83 28.5945 183.907 30.3241ZM177.066 32.9092C173.323 32.9092 170.288 36.0131 170.288 39.8414C170.288 43.6697 173.323 46.7736 177.066 46.7736C180.809 46.7736 183.844 43.6697 183.844 39.8414C183.844 36.0131 180.809 32.9092 177.066 32.9092Z" fill="#06C167"/>
</svg>
