<svg width="269" height="72" viewBox="0 0 269 72" fill="none" xmlns="http://www.w3.org/2000/svg">
<path d="M162.573 50.2543L148.06 21.4795H147.556H142.668V50.2543H147.556V31.1047L157.333 50.2543H162.573Z" fill="#FFB030"/>
<path d="M171.797 21.4795H171.293L161.113 41.4354L163.835 46.7771L171.797 31.1047V50.2543H176.685V21.4795H171.797Z" fill="#FFB030"/>
<path d="M96.9109 39.5207V39.42C100.842 38.3113 103.261 35.4389 103.261 30.7018C103.261 25.3601 100.287 21.379 93.5345 21.3286L91.3676 25.7129H92.6275C96.155 25.7129 98.1708 27.527 98.1708 30.6011C98.1708 33.4735 96.2558 35.4892 92.2747 35.4892H87.6385H86.5298L84.3125 39.9239H87.6385H91.5188L98.4731 50.2546H104.369L96.9109 39.5207Z" fill="#FFB030"/>
<path d="M74.7883 47.9868L61.2828 21.3789H55.8906L70.6056 50.1537H75.8969L74.7883 47.9868Z" fill="#FFB030"/>
<path d="M84.5139 21.3789L74.3848 41.3852L77.0556 46.7269L89.9564 21.3789H84.5139Z" fill="#FFB030"/>
<path d="M128.912 22.1347L126.543 26.5693C122.008 24.8559 116.767 26.7205 114.449 31.1047C112.08 35.489 113.441 40.8811 117.372 43.7032L115.003 48.1378C108.603 43.9551 106.386 35.5394 110.064 28.6858C113.642 21.9331 121.907 19.111 128.912 22.1347Z" fill="#FFB030"/>
<path d="M119.588 44.963C124.124 46.6764 129.365 44.8119 131.683 40.4276C134.051 36.0434 132.691 30.6512 128.76 27.8292L131.129 23.3945C137.529 27.5772 139.746 35.993 136.067 42.8465C132.388 49.7 124.124 52.4717 117.119 49.4985L119.588 44.963Z" fill="#FFB030"/>
<path d="M202.636 22.1347L200.268 26.5693C195.732 24.8559 190.491 26.7205 188.173 31.1047C185.805 35.489 187.165 40.8811 191.096 43.7032L188.728 48.1378C182.328 43.9551 180.11 35.5394 183.789 28.6858C187.367 21.9331 195.632 19.111 202.636 22.1347Z" fill="#FFB030"/>
<path d="M193.313 44.963C197.848 46.6764 203.089 44.8119 205.408 40.4276C207.776 36.0434 206.415 30.6512 202.485 27.8292L204.853 23.3945C211.253 27.5772 213.471 35.993 209.792 42.8465C206.113 49.7 197.848 52.4717 190.844 49.4985L193.313 44.963Z" fill="#FFB030"/>
</svg>
