<svg xmlns="http://www.w3.org/2000/svg" style="display:none">


  <!-- ============================================
       Finance
       ============================================ -->

  <symbol id="icon-discount" viewBox="0 0 96 96">
    <path d="M38 43C40.7614 43 43 40.7614 43 38C43 35.2386 40.7614 33 38 33C35.2386 33 33 35.2386 33 38C33 40.7614 35.2386 43 38 43Z" fill="currentColor"/>
    <path d="M33.757 59.4142C32.9759 58.6332 32.9759 57.3668 33.757 56.5858L56.3844 33.9584C57.1655 33.1773 58.4318 33.1773 59.2128 33.9584L62.0413 36.7868C62.8223 37.5678 62.8223 38.8342 62.0413 39.6152L39.4138 62.2426C38.6328 63.0237 37.3665 63.0237 36.5854 62.2426L33.757 59.4142Z" fill="currentColor"/>
    <path d="M63 58C63 60.7614 60.7614 63 58 63C55.2386 63 53 60.7614 53 58C53 55.2386 55.2386 53 58 53C60.7614 53 63 55.2386 63 58Z" fill="currentColor"/>
    <path fill-rule="evenodd" clip-rule="evenodd" d="M42.0586 6.46101C45.3399 3.17967 50.6601 3.17966 53.9414 6.46101L58.0339 10.5535L63.6238 9.05572C68.1062 7.85466 72.7135 10.5147 73.9146 14.9971L75.4125 20.5874L81.0028 22.0853C85.4852 23.2864 88.1453 27.8937 86.9442 32.3761L85.4464 37.966L89.539 42.0586C92.8203 45.3399 92.8203 50.66 89.539 53.9414L85.4463 58.0341L86.9442 63.6243C88.1453 68.1067 85.4852 72.7141 81.0028 73.9151L75.4125 75.4131L73.9146 81.0033C72.7135 85.4857 68.1062 88.1458 63.6238 86.9448L58.0335 85.4469L53.9414 89.539C50.6601 92.8203 45.34 92.8203 42.0586 89.539L37.9663 85.4467L32.3756 86.9448C27.8932 88.1458 23.2858 85.4858 22.0848 81.0034L20.5869 75.4131L14.9966 73.9151C10.5142 72.7141 7.8541 68.1067 9.05516 63.6243L10.5532 58.0336L6.46101 53.9414C3.17967 50.6601 3.17966 45.3399 6.46101 42.0586L10.5531 37.9665L9.05517 32.3762C7.85412 27.8938 10.5142 23.2864 14.9966 22.0853L20.5869 20.5874L22.0848 14.9971C23.2858 10.5147 27.8932 7.85465 32.3756 9.05571L37.966 10.5536L42.0586 6.46101ZM48.2845 12.1179C48.1274 11.9607 47.8726 11.9607 47.7154 12.1179L40.3568 19.4765L30.305 16.7831C30.0904 16.7256 29.8697 16.853 29.8122 17.0677L27.1188 27.1194L17.0671 29.8127C16.8525 29.8703 16.7251 30.0909 16.7826 30.3056L19.4759 40.3574L12.1179 47.7155C11.9607 47.8726 11.9607 48.1274 12.1179 48.2845L19.476 55.6427L16.7826 65.6949C16.725 65.9095 16.8524 66.1302 17.0671 66.1877L27.1188 68.8811L29.8122 78.9328C29.8697 79.1475 30.0904 79.2749 30.3051 79.2174L40.3572 76.5239L47.7155 83.8821C47.8726 84.0393 48.1274 84.0393 48.2846 83.8821L55.6427 76.524L65.6943 79.2174C65.909 79.2749 66.1297 79.1475 66.1872 78.9328L68.8805 68.8811L78.9323 66.1877C79.1469 66.1302 79.2743 65.9095 79.2168 65.6949L76.5235 55.6432L83.8821 48.2845C84.0393 48.1274 84.0393 47.8726 83.8821 47.7154L76.5236 40.3569L79.2168 30.3056C79.2743 30.0909 79.1469 29.8703 78.9322 29.8127L68.8805 27.1194L66.1872 17.0677C66.1297 16.853 65.909 16.7256 65.6943 16.7831L55.643 19.4764L48.2845 12.1179Z" fill="currentColor"/>
  </symbol>

  <symbol id="icon-pbs" viewBox="0 0 96 96">
    <path d="M47.5 36.5C45.0147 36.5 43 38.5147 43 41V45H48C49.1046 45 50 45.8954 50 47V50C50 51.1046 49.1046 52 48 52H43V57H56C57.1046 57 58 57.8954 58 59V62C58 63.1046 57.1046 64 56 64H38C36.8954 64 36 63.1046 36 62V41C36 34.6487 41.1487 29.5 47.5 29.5H48.0557C52.4116 29.5 56.3936 31.961 58.3416 35.857C58.7773 36.7284 58.4241 37.7879 57.5528 38.2236L54.4472 39.7764C53.5759 40.2121 52.5163 39.8589 52.0807 38.9875C51.3184 37.463 49.7602 36.5 48.0557 36.5H47.5Z" fill="currentColor"/>
    <path fill-rule="evenodd" clip-rule="evenodd" d="M53.9414 6.46101C50.6601 3.17966 45.3399 3.17967 42.0586 6.46101L37.966 10.5536L32.3756 9.05571C27.8932 7.85465 23.2858 10.5147 22.0848 14.9971L20.5869 20.5874L14.9966 22.0853C10.5142 23.2864 7.85412 27.8938 9.05517 32.3762L10.5531 37.9665L6.46101 42.0586C3.17966 45.3399 3.17967 50.6601 6.46101 53.9414L10.5532 58.0336L9.05516 63.6243C7.8541 68.1067 10.5142 72.7141 14.9966 73.9151L20.5869 75.4131L22.0848 81.0034C23.2858 85.4858 27.8932 88.1458 32.3756 86.9448L37.9663 85.4467L42.0586 89.539C45.34 92.8203 50.6601 92.8203 53.9414 89.539L58.0335 85.4469L63.6238 86.9448C68.1062 88.1458 72.7135 85.4857 73.9146 81.0033L75.4125 75.4131L81.0028 73.9151C85.4852 72.7141 88.1453 68.1067 86.9442 63.6243L85.4463 58.0341L89.539 53.9414C92.8203 50.66 92.8203 45.3399 89.539 42.0586L85.4464 37.966L86.9442 32.3761C88.1453 27.8937 85.4852 23.2864 81.0028 22.0853L75.4125 20.5874L73.9146 14.9971C72.7135 10.5147 68.1062 7.85466 63.6238 9.05572L58.0339 10.5535L53.9414 6.46101ZM47.7154 12.1179C47.8726 11.9607 48.1274 11.9607 48.2845 12.1179L55.643 19.4764L65.6943 16.7831C65.909 16.7256 66.1297 16.853 66.1872 17.0677L68.8805 27.1194L78.9322 29.8127C79.1469 29.8703 79.2743 30.0909 79.2168 30.3056L76.5236 40.3569L83.8821 47.7154C84.0393 47.8726 84.0393 48.1274 83.8821 48.2845L76.5235 55.6432L79.2168 65.6949C79.2743 65.9095 79.1469 66.1302 78.9323 66.1877L68.8805 68.8811L66.1872 78.9328C66.1297 79.1475 65.909 79.2749 65.6943 79.2174L55.6427 76.524L48.2846 83.8821C48.1274 84.0393 47.8726 84.0393 47.7155 83.8821L40.3572 76.5239L30.3051 79.2174C30.0904 79.2749 29.8697 79.1475 29.8122 78.9328L27.1188 68.8811L17.0671 66.1877C16.8524 66.1302 16.725 65.9095 16.7826 65.6949L19.476 55.6427L12.1179 48.2845C11.9607 48.1274 11.9607 47.8726 12.1179 47.7155L19.4759 40.3574L16.7826 30.3056C16.7251 30.0909 16.8525 29.8703 17.0671 29.8127L27.1188 27.1194L29.8122 17.0677C29.8697 16.853 30.0904 16.7256 30.305 16.7831L40.3568 19.4765L47.7154 12.1179Z" fill="currentColor"/>
  </symbol>


  <!-- ============================================
       General
       ============================================ -->

  <symbol id="icon-additional-user" viewBox="0 0 96 96">
    <path fill-rule="evenodd" clip-rule="evenodd" d="M16 20C16 11.1634 23.1634 4 32 4C40.8366 4 48 11.1634 48 20C48 28.8366 40.8366 36 32 36C23.1634 36 16 28.8366 16 20ZM32 12C27.5817 12 24 15.5817 24 20C24 24.4183 27.5817 28 32 28C36.4183 28 40 24.4183 40 20C40 15.5817 36.4183 12 32 12Z" fill="currentColor"/>
    <path fill-rule="evenodd" clip-rule="evenodd" d="M4 52C4 47.5817 7.58172 44 12 44H52C56.4183 44 60 47.5817 60 52V64C60 79.464 47.464 92 32 92C16.536 92 4 79.464 4 64V52ZM52 52H12V64C12 75.0457 20.9543 84 32 84C43.0457 84 52 75.0457 52 64V52Z" fill="currentColor"/>
    <path fill-rule="evenodd" clip-rule="evenodd" d="M72 42C72 43.1046 72.8954 44 74 44H78C79.1046 44 80 43.1046 80 42V32H90C91.1046 32 92 31.1046 92 30V26C92 24.8954 91.1046 24 90 24H80V14C80 12.8954 79.1046 12 78 12H74C72.8954 12 72 12.8954 72 14V24H62C60.8954 24 60 24.8954 60 26V30C60 31.1046 60.8954 32 62 32H72V42Z" fill="currentColor"/>
  </symbol>

  <symbol id="icon-policy" viewBox="0 0 96 96">
    <path d="M64 42C64 43.1046 63.1046 44 62 44H34C32.8954 44 32 43.1046 32 42V38C32 36.8954 32.8954 36 34 36H62C63.1046 36 64 36.8954 64 38V42Z" fill="currentColor"/>
    <path d="M56 58C56 59.1046 55.1046 60 54 60H34C32.8954 60 32 59.1046 32 58V54C32 52.8954 32.8954 52 34 52H54C55.1046 52 56 52.8954 56 54V58Z" fill="currentColor"/>
    <path fill-rule="evenodd" clip-rule="evenodd" d="M20 4C15.5817 4 12 7.58172 12 12V84C12 88.4183 15.5817 92 20 92H76C80.4183 92 84 88.4183 84 84V33.6021C84 30.3609 82.6889 27.2576 80.3649 24.9982L62.2599 7.39606C60.02 5.21833 57.019 4 53.895 4H20ZM20 12L53.895 12C54.9363 12 55.9366 12.4061 56.6833 13.132L74.7883 30.7341C75.563 31.4873 76 32.5217 76 33.6021V84L20 84V12Z" fill="currentColor"/>
  </symbol>


  <!-- ============================================
       Interface
       ============================================ -->

  <symbol id="icon-tick" viewBox="0 0 96 96">
    <path d="M48 4C23.6995 4 4 23.6995 4 48C4 72.3005 23.6995 92 48 92C72.3005 92 92 72.3005 92 48C92 23.6995 72.3005 4 48 4Z" fill="var(--bg-brand-aqua)"/>
    <path fill-rule="evenodd" clip-rule="evenodd" d="M41.9463 54.2307L60.4289 35.7481C61.21 34.967 62.4763 34.967 63.2574 35.7481L66.0858 38.5765C66.8668 39.3576 66.8668 40.6239 66.0858 41.4049L43.405 64.0857C42.624 64.8667 41.3577 64.8667 40.5766 64.0857L30.4142 53.9233C29.6332 53.1423 29.6332 51.8759 30.4142 51.0949L33.1981 48.311C33.9792 47.5299 35.2455 47.5299 36.0266 48.311L41.9463 54.2307Z" fill="var(--colour-navy-70)"/>
  </symbol>

  <symbol id="icon-close" viewBox="0 0 96 96">
    <circle cx="48" cy="48" r="44" fill="currentColor" fill-opacity="0.2"/>
    <path d="M58.9329 65.3572C59.7108 66.1561 60.9917 66.1646 61.7801 65.3762L64.6083 62.548C65.382 61.7743 65.3904 60.5226 64.6271 59.7386L53.2527 48.0565L64.9731 36.6449C65.7719 35.8671 65.7805 34.5862 64.9921 33.7977L62.1639 30.9695C61.3902 30.1959 60.1384 30.1875 59.3545 30.9508L47.6723 42.3251L36.2612 30.6053C35.4834 29.8064 34.2025 29.7978 33.4141 30.5863L30.5859 33.4144C29.8122 34.1881 29.8038 35.4399 30.5671 36.2239L41.941 47.9055L30.2211 59.3166C29.4222 60.0945 29.4137 61.3754 30.2021 62.1638L33.0303 64.992C33.804 65.7657 35.0558 65.774 35.8397 65.0107L47.5214 53.6368L58.9329 65.3572Z" fill="currentColor"/>
  </symbol>

  <symbol id="icon-chevron-down" viewBox="0 0 96 96">
    <path fill-rule="evenodd" clip-rule="evenodd" d="M14.3431 32.3431C16.2957 30.3905 19.4645 30.3905 21.4142 32.3431L48 58.9289L74.5858 32.3431C76.5355 30.3905 79.7043 30.3905 81.6569 32.3431C83.6095 34.2957 83.6095 37.4645 81.6569 39.4142L51.5355 69.5355C49.5829 71.4882 46.4171 71.4882 44.4645 69.5355L14.3431 39.4142C12.3905 37.4645 12.3905 34.2957 14.3431 32.3431Z" fill="currentColor"/>
  </symbol>

  <symbol id="icon-chevron-small-down" viewBox="0 0 12 7">
    <path d="M11.3416 1.98792C11.5702 1.75193 11.5664 1.37599 11.3332 1.14457L10.3552 0.174098C10.1179 -0.061348 9.73401 -0.0574932 9.50151 0.18267L6.02803 3.77064C5.87213 3.93167 5.61435 3.9332 5.45656 3.77401L1.99897 0.285903C1.76469 0.0495567 1.38282 0.0490306 1.14789 0.284731L0.175041 1.26078C-0.0578922 1.49447 -0.058412 1.8724 0.173876 2.10674L4.32711 6.29663C5.11592 7.09241 6.40453 7.08497 7.1841 6.28013L11.3416 1.98792Z" fill="currentColor"/>
  </symbol>

  <symbol id="icon-chevron-small-up" viewBox="0 0 12 7">
    <path d="M0.169026 4.90072C-0.0595573 5.13671 -0.0558328 5.51266 0.177381 5.74407L1.1554 6.71455C1.39267 6.94999 1.7766 6.94614 2.0091 6.70598L5.48258 3.11801C5.63848 2.95697 5.89626 2.95545 6.05405 3.11463L9.51164 6.60274C9.74592 6.83909 10.1278 6.83961 10.3627 6.60391L11.3356 5.62787C11.5685 5.39417 11.569 5.01624 11.3367 4.78191L7.18351 0.592014C6.39469 -0.203764 5.10608 -0.196322 4.32651 0.608513L0.169026 4.90072Z" fill="currentColor"/>
  </symbol>

  <symbol id="icon-chevron-small-right" viewBox="0 0 7 12">
    <path d="M1.98792 0.169026C1.75193 -0.0595573 1.37599 -0.0558328 1.14457 0.177381L0.174098 1.1554C-0.061348 1.39267 -0.0574932 1.7766 0.18267 2.0091L3.77064 5.48258C3.93167 5.63848 3.9332 5.89626 3.77401 6.05405L0.285904 9.51164C0.0495571 9.74592 0.049031 10.1278 0.284731 10.3627L1.26078 11.3356C1.49447 11.5685 1.8724 11.569 2.10674 11.3367L6.29663 7.18351C7.09241 6.39469 7.08497 5.10608 6.28013 4.32651L1.98792 0.169026Z" fill="currentColor"/>
  </symbol>

  <symbol id="icon-chevron-small-left" viewBox="0 0 7 12">
    <path d="M4.90072 11.3416C5.13672 11.5702 5.51266 11.5664 5.74407 11.3332L6.71455 10.3552C6.94999 10.1179 6.94614 9.73401 6.70598 9.50151L3.11801 6.02804C2.95697 5.87213 2.95545 5.61435 3.11463 5.45656L6.60274 1.99897C6.83909 1.76469 6.83961 1.38282 6.60391 1.14789L5.62787 0.175041C5.39417 -0.0578922 5.01624 -0.058412 4.78191 0.173876L0.592014 4.32711C-0.203764 5.11592 -0.196322 6.40453 0.608513 7.1841L4.90072 11.3416Z" fill="currentColor"/>
  </symbol>

  <symbol id="icon-arrow-right" viewBox="0 0 96 96">
    <path d="M43.5937 14.3589C42.8121 13.5783 42.8121 12.3128 43.5937 11.5323L46.5445 8.5854C47.326 7.80487 48.5932 7.80487 49.3748 8.5854L87.2324 46.3928C87.2818 46.4421 87.328 46.4934 87.3712 46.5463L87.4147 46.5898C88.1963 47.3703 88.1963 48.6358 87.4147 49.4164L49.3671 87.4135C48.5856 88.194 47.3184 88.194 46.5368 87.4135L43.586 84.4666C42.8044 83.6861 42.8044 82.4206 43.586 81.64L73.2652 52.0002H10C8.89543 52.0002 8 51.1047 8 50.0002V46.0002C8 44.8956 8.89543 44.0002 10 44.0002H73.2743L43.5937 14.3589Z" fill="currentColor"/>
  </symbol>

  <symbol id="icon-arrow-left" viewBox="0 0 96 96">
    <path d="M52.4072 81.6397C53.1888 82.4202 53.1888 83.6857 52.4072 84.4662L49.4564 87.4131C48.6748 88.1937 47.4076 88.1937 46.6261 87.4131L8.76846 49.6057C8.71909 49.5564 8.67284 49.5052 8.6297 49.4522L8.58612 49.4087C7.80456 48.6282 7.80456 47.3627 8.58612 46.5822L46.6337 8.58503C47.4153 7.8045 48.6825 7.8045 49.464 8.58503L52.4148 11.5319C53.1964 12.3125 53.1964 13.578 52.4148 14.3585L22.7356 43.9984L86.0009 43.9984C87.1054 43.9984 88.0009 44.8938 88.0009 45.9984V49.9984C88.0009 51.1029 87.1054 51.9984 86.0009 51.9984L22.7265 51.9984L52.4072 81.6397Z" fill="currentColor"/>
  </symbol>

  <symbol id="icon-arrow-down" viewBox="0 0 96 96">
    <path d="M81.6409 43.5927C82.4214 42.8111 83.6869 42.8111 84.4674 43.5927L87.4144 46.5435C88.1949 47.3251 88.1949 48.5922 87.4144 49.3738L49.6069 87.2314C49.5576 87.2808 49.5064 87.327 49.4535 87.3702L49.4099 87.4138C48.6294 88.1953 47.3639 88.1953 46.5834 87.4138L8.58625 49.3662C7.80572 48.5846 7.80572 47.3174 8.58625 46.5359L11.5332 43.585C12.3137 42.8035 13.5792 42.8035 14.3597 43.585L43.9996 73.2643L43.9996 9.99902C43.9996 8.89445 44.895 7.99902 45.9996 7.99902H49.9996C51.1042 7.99902 51.9996 8.89445 51.9996 9.99902L51.9996 73.2733L81.6409 43.5927Z" fill="currentColor"/>
  </symbol>

  <symbol id="icon-arrow-up" viewBox="0 0 96 96">
    <path d="M14.36 52.4063C13.5794 53.1879 12.3139 53.1879 11.5334 52.4063L8.5865 49.4555C7.80597 48.674 7.80597 47.4068 8.5865 46.6252L46.3939 8.7676C46.4432 8.71823 46.4945 8.67198 46.5474 8.62885L46.5909 8.58527C47.3714 7.8037 48.6369 7.8037 49.4175 8.58527L87.4146 46.6329C88.1951 47.4144 88.1951 48.6816 87.4146 49.4632L84.4677 52.414C83.6872 53.1956 82.4217 53.1956 81.6411 52.414L52.0013 22.7348L52.0013 86C52.0013 87.1046 51.1058 88 50.0013 88H46.0013C44.8967 88 44.0013 87.1046 44.0013 86L44.0013 22.7257L14.36 52.4063Z" fill="currentColor"/>
  </symbol>

  <symbol id="icon-caution" viewBox="0 0 96 96">
    <path fill-rule="evenodd" clip-rule="evenodd" d="M46 63.9999C44.8955 63.9999 44 63.0231 44 61.8181L44 42.1818C44 40.9768 44.8955 39.9999 46 39.9999H50C51.1046 39.9999 52 40.9768 52 42.1817V61.8181C52 63.0231 51.1046 63.9999 50 63.9999H46Z" fill="currentColor"/>
    <path fill-rule="evenodd" clip-rule="evenodd" d="M46 75.9999C44.8955 75.9999 44 75.1859 44 74.1817L44 69.8181C44 68.814 44.8955 67.9999 46 67.9999H50C51.1046 67.9999 52 68.814 52 69.8181V74.1817C52 75.1859 51.1046 75.9999 50 75.9999H46Z" fill="currentColor"/>
    <path fill-rule="evenodd" clip-rule="evenodd" d="M41.3982 9.32705C44.379 3.44699 52.7935 3.49372 55.7089 9.40655L90.7433 80.4621C93.3646 85.7786 89.4956 91.9999 83.568 91.9999H12.5124C6.54601 91.9999 2.67914 85.7043 5.37694 80.3826L41.3982 9.32705ZM48.5337 12.9443L12.5124 83.9999H83.568L48.5337 12.9443Z" fill="currentColor"/>
  </symbol>

  <symbol id="icon-stop" viewBox="0 0 96 96">
    <path fill-rule="evenodd" clip-rule="evenodd" d="M46 51.9999C44.8954 51.9999 44 51.023 44 49.8181V30.1817C44 28.9767 44.8954 27.9999 46 27.9999L50 27.9999C51.1046 27.9999 52 28.9767 52 30.1817V49.8181C52 51.023 51.1046 51.9999 50 51.9999H46Z" fill="currentColor"/>
    <path fill-rule="evenodd" clip-rule="evenodd" d="M62.0448 12.135C61.5894 12.0256 61.0553 11.9999 58.6901 11.9999H37.3056C34.9411 11.9999 34.4111 12.0256 33.9555 12.135C33.4602 12.2539 32.9841 12.4512 32.5435 12.7212C32.1518 12.9612 31.7665 13.3103 30.1236 14.9533C30.1088 14.9681 30.094 14.9827 30.079 14.9972L30.0584 15.0171L14.9951 30.0805C14.9788 30.0967 14.9624 30.1129 14.9459 30.1288C13.3139 31.7613 12.9628 32.1493 12.7213 32.5434C12.4526 32.9819 12.2545 33.4599 12.1351 33.9575C12.0257 34.4131 12 34.9431 12 37.3076V58.6922C12 61.0567 12.0257 61.587 12.1351 62.0425C12.2542 62.5388 12.4519 63.0157 12.7213 63.4555C12.9659 63.8546 13.3239 64.249 14.9951 65.9201L30.0806 81.0056C31.7522 82.6773 32.144 83.0327 32.5435 83.2775C32.9873 83.5495 33.4639 83.7472 33.9555 83.8652C34.4096 83.9742 34.938 83.9999 37.2956 83.9999H58.7C61.0583 83.9999 61.5909 83.9742 62.0448 83.8652C62.5376 83.7469 63.015 83.5489 63.4577 83.2776C63.858 83.0323 64.2533 82.6747 65.9224 81.0056L81.0079 65.9201C82.677 64.251 83.0345 63.8558 83.2798 63.4555C83.5451 63.0226 83.7421 62.5466 83.8631 62.0425C83.9728 61.5856 84 61.051 84 58.6922V37.3076C84 34.9489 83.9728 34.4145 83.8631 33.9575C83.7418 33.4522 83.5444 32.9752 83.2799 32.5434C83.035 32.1439 82.6795 31.7521 81.0079 30.0804L65.9224 14.995C64.2512 13.3238 63.8569 12.9658 63.4577 12.7212C63.0181 12.4518 62.5411 12.2541 62.0448 12.135ZM59.0434 3.99969C60.8708 3.99825 62.4172 3.99704 63.9124 4.356C65.2301 4.67235 66.4868 5.19479 67.6377 5.90008C68.9485 6.70332 70.0395 7.79601 71.3299 9.08844C71.4122 9.17086 71.4953 9.25409 71.5793 9.33812L86.6647 24.4236C86.7487 24.5075 86.8319 24.5906 86.9142 24.6728C88.2076 25.9641 89.2976 27.0524 90.101 28.3634C90.8111 29.5223 91.3279 30.7813 91.6421 32.09C92.0024 33.5908 92.0014 35.1362 92.0001 36.9793C92.0001 37.0877 92 37.1971 92 37.3076V58.6922C92 58.8027 92.0001 58.9121 92.0001 59.0205C92.0014 60.8636 92.0024 62.4093 91.6421 63.9101C91.3276 65.22 90.8104 66.4777 90.101 67.6354C89.2955 68.9498 88.2033 70.0405 86.9027 71.3392C86.8242 71.4177 86.7448 71.4969 86.6647 71.577L71.5793 86.6625C71.4992 86.7426 71.4199 86.8219 71.3414 86.9005C70.0428 88.201 68.9521 89.2933 67.6377 90.0987C66.4899 90.8021 65.2336 91.3269 63.9124 91.6441C62.4188 92.0027 60.8742 92.0015 59.0524 92.0001C58.9361 92 58.8187 91.9999 58.7 91.9999H37.2956C37.1771 91.9999 37.0597 92 36.9436 92.0001C35.1216 92.0015 33.5815 92.0027 32.0879 91.6441C30.7655 91.3267 29.5103 90.8014 28.3635 90.0987C27.0525 89.2952 25.9643 88.2054 24.6729 86.912C24.5907 86.8296 24.5077 86.7465 24.4237 86.6625L9.33824 71.577C9.25422 71.493 9.17099 71.4099 9.08857 71.3276C7.79616 70.0372 6.70344 68.9462 5.9002 67.6354C5.19492 66.4845 4.67248 65.2278 4.35612 63.9101C3.99717 62.415 3.99838 60.8727 3.99981 59.0452C3.9999 58.9287 4 58.811 4 58.6922V37.3076C4 37.1887 3.9999 37.0711 3.99981 36.9546C3.99838 35.1271 3.99717 33.5851 4.35612 32.09C4.67216 30.7736 5.1942 29.5155 5.9002 28.3634C6.70197 27.055 7.79054 25.9682 9.07619 24.6845C9.15818 24.6027 9.24097 24.52 9.32453 24.4365C9.34085 24.4201 9.35732 24.404 9.37391 24.3879L24.4237 9.33811C24.4385 9.32338 24.4533 9.30875 24.4683 9.29425L24.4886 9.27451C24.5637 9.19939 24.6381 9.12488 24.7119 9.05101C25.98 7.78089 27.0606 6.69851 28.3635 5.90008C29.5135 5.19534 30.7692 4.6726 32.0879 4.356C33.583 3.99705 35.125 3.99826 36.9526 3.99969C37.0691 3.99978 37.1867 3.99987 37.3056 3.99987H58.6901C58.8091 3.99987 58.9268 3.99978 59.0434 3.99969Z" fill="currentColor"/>
    <path fill-rule="evenodd" clip-rule="evenodd" d="M46 67.9998C44.8954 67.9998 44 67.1858 44 66.1817V61.8181C44 60.8139 44.8954 59.9999 46 59.9999H50C51.1046 59.9999 52 60.8139 52 61.8181V66.1817C52 67.1858 51.1046 67.9998 50 67.9998H46Z" fill="currentColor"/>
  </symbol>

  <symbol id="icon-correct" viewBox="0 0 96 96">
    <path fill-rule="evenodd" clip-rule="evenodd" d="M41.9463 54.2308L60.4289 35.7482C61.21 34.9671 62.4763 34.9671 63.2574 35.7482L66.0858 38.5766C66.8668 39.3577 66.8668 40.624 66.0858 41.405L43.405 64.0858C42.624 64.8668 41.3577 64.8668 40.5766 64.0858L30.4142 53.9234C29.6332 53.1423 29.6332 51.876 30.4142 51.095L33.1981 48.311C33.9792 47.53 35.2455 47.53 36.0266 48.311L41.9463 54.2308Z" fill="currentColor"/>
    <path fill-rule="evenodd" clip-rule="evenodd" d="M48 12C28.1177 12 12 28.1177 12 48C12 67.8823 28.1177 84 48 84C67.8823 84 84 67.8823 84 48C84 28.1177 67.8823 12 48 12ZM4 48C4 23.6995 23.6995 4 48 4C72.3005 4 92 23.6995 92 48C92 72.3005 72.3005 92 48 92C23.6995 92 4 72.3005 4 48Z" fill="currentColor"/>
  </symbol>

  <symbol id="icon-search" viewBox="0 0 96 96">
    <path fill-rule="evenodd" clip-rule="evenodd" d="M40.3467 4C20.273 4 4 20.273 4 40.3467C4 60.4205 20.273 76.6935 40.3467 76.6935C48.9287 76.6935 56.8159 73.7192 63.0339 68.7453L85.6972 91.4086C86.4858 92.1971 87.7643 92.1971 88.5529 91.4086L91.4086 88.5529C92.1971 87.7643 92.1971 86.4858 91.4086 85.6972L68.7453 63.0339C73.7192 56.8159 76.6935 48.9287 76.6935 40.3467C76.6935 20.273 60.4205 4 40.3467 4ZM12.0771 40.3467C12.0771 24.7338 24.7338 12.0771 40.3467 12.0771C55.9597 12.0771 68.6164 24.7338 68.6164 40.3467C68.6164 55.9597 55.9597 68.6164 40.3467 68.6164C24.7338 68.6164 12.0771 55.9597 12.0771 40.3467Z" fill="currentColor"/>
  </symbol>


  <!-- ============================================
       Product
       ============================================ -->

  <symbol id="icon-personal-car" viewBox="0 0 96 96">
    <path fill-rule="evenodd" clip-rule="evenodd" d="M22.5943 16.4178C24.8743 13.6903 28.2463 12.114 31.8013 12.114H66.8017L75.1296 35.0156L88.1067 39.882C90.4486 40.7602 92 42.9989 92 45.5V76H79.3172C77.6698 80.6608 73.2249 84 68 84C62.7751 84 58.3302 80.6608 56.6828 76H39.3172C37.6698 80.6608 33.2249 84 28 84C22.7751 84 18.3302 80.6608 16.6828 76H4V38.6624L22.5943 16.4178ZM39.3172 68H56.6828C58.3302 63.3392 62.7751 60 68 60C73.2249 60 77.6698 63.3392 79.3172 68H84V46.886L68.8704 41.2124L61.1983 20.114H31.8013C30.6163 20.114 29.4923 20.6394 28.7323 21.5486L12 41.5656V68H16.6828C18.3302 63.3392 22.7751 60 28 60C33.2249 60 37.6698 63.3392 39.3172 68ZM24 72C24 69.7909 25.7909 68 28 68C30.2091 68 32 69.7909 32 72C32 74.2091 30.2091 76 28 76C25.7909 76 24 74.2091 24 72ZM64 72C64 69.7909 65.7909 68 68 68C70.2091 68 72 69.7909 72 72C72 74.2091 70.2091 76 68 76C65.7909 76 64 74.2091 64 72Z" fill="currentColor"/>
    <path d="M59 37.5C59 40.5376 56.5376 43 53.5 43C50.4624 43 48 40.5376 48 37.5C48 34.4624 50.4624 32 53.5 32C56.5376 32 59 34.4624 59 37.5Z" fill="currentColor"/>
    <path d="M40 37.5C40 40.5376 37.5376 43 34.5 43C31.4624 43 29 40.5376 29 37.5C29 34.4624 31.4624 32 34.5 32C37.5376 32 40 34.4624 40 37.5Z" fill="currentColor"/>
  </symbol>


  <!-- ============================================
       Social
       ============================================ -->

  <symbol id="icon-mail" viewBox="0 0 96 96">
    <path fill-rule="evenodd" clip-rule="evenodd" d="M12 12C7.58172 12 4 15.5817 4 20V76C4 80.4183 7.58172 84 12 84H84C88.4183 84 92 80.4183 92 76V20C92 15.5817 88.4183 12 84 12H12ZM12 20H84V20.0395L48.0001 47.9394L12 20.0393V20ZM12 30.1606V76H84V30.1607L52.9007 54.2627C50.0161 56.4983 45.9841 56.4983 43.0995 54.2627L12 30.1606Z" fill="currentColor"/>
  </symbol>


  <!-- ============================================
       Telematics
       ============================================ -->

  <symbol id="icon-driving" viewBox="0 0 96 96">
    <path d="M54 48C54 51.3137 51.3137 54 48 54C44.6863 54 42 51.3137 42 48C42 44.6863 44.6863 42 48 42C51.3137 42 54 44.6863 54 48Z" fill="currentColor"/>
    <path fill-rule="evenodd" clip-rule="evenodd" d="M4.00054 48.2197C4.00052 48.2197 4.00055 48.2197 4.00054 48.2197C4.01384 50.9404 4.27402 53.6027 4.75993 56.1854C4.75992 56.1854 4.75995 56.1854 4.75993 56.1854C7.80978 72.396 19.7502 85.4689 35.3232 90.1464C35.36 90.1575 35.3969 90.1685 35.4338 90.1795C37.926 90.9208 40.5107 91.4473 43.1664 91.7375C44.7538 91.911 46.3665 92 48 92C49.6335 92 51.2462 91.911 52.8335 91.7375C52.9066 91.7296 52.9795 91.7214 53.0524 91.7131C55.6706 91.4138 58.2189 90.8847 60.6767 90.1464C76.2498 85.4689 88.1902 72.396 91.24 56.1854C91.2649 56.0534 91.2891 55.9212 91.3128 55.7887C91.7519 53.3304 91.9868 50.8013 91.9995 48.2197C91.9998 48.1465 92 48.0733 92 48C92 47.3273 91.9849 46.6581 91.955 45.9928C91.7994 42.5273 91.243 39.166 90.3308 35.9545C85.0924 17.5097 68.1239 4 48 4C28.1067 4 11.2969 17.2019 5.85383 35.3224C4.83202 38.7242 4.21075 42.2993 4.04492 45.9929C4.01505 46.6582 4 47.3273 4 48C4 48.0733 4.00018 48.1465 4.00054 48.2197ZM12.7506 40.6514C12.2586 43.0238 12 45.4817 12 48C12 48.0733 12.0002 48.1466 12.0007 48.2198C29.9289 50.202 43.8891 65.3495 43.9993 83.7802C45.3129 83.9254 46.6477 84 48 84C49.3523 84 50.6871 83.9254 52.0007 83.7802C52.1108 65.3495 66.0711 50.202 83.9993 48.2198C83.9998 48.1466 84 48.0733 84 48C84 45.4817 83.7414 43.0238 83.2494 40.6514C72.7138 35.1259 60.7219 32 48 32C35.2781 32 23.2862 35.1258 12.7506 40.6514ZM12.9959 56.4444C25.4126 58.6808 34.9849 69.1037 35.9242 81.9246C24.5731 77.8838 15.8475 68.3076 12.9959 56.4444ZM83.0041 56.4444C70.5874 58.6807 61.0151 69.1037 60.0757 81.9247C71.4269 77.8839 80.1525 68.3076 83.0041 56.4444ZM16.8322 29.9723C26.4694 26.1193 36.9872 24 48 24C59.0128 24 69.5306 26.1193 79.1678 29.9723C72.9393 19.2272 61.3136 12 48 12C34.6864 12 23.0607 19.2271 16.8322 29.9723Z" fill="currentColor"/>
  </symbol>


  <!-- ============================================
       Tooltip
       ============================================ -->

  <symbol id="icon-information" viewBox="0 0 96 96">
    <path d="M48 28C45.2386 28 43 30.2386 43 33C43 35.7614 45.2386 38 48 38C50.7614 38 53 35.7614 53 33C53 30.2386 50.7614 28 48 28Z" fill="currentColor"/>
    <path d="M52 46C52 44.8954 51.1046 44 50 44H46C44.8954 44 44 44.8954 44 46L44 66C44 67.1046 44.8954 68 46 68L50 68C51.1046 68 52 67.1046 52 66L52 46Z" fill="currentColor"/>
    <path fill-rule="evenodd" clip-rule="evenodd" d="M48 4C23.6995 4 4 23.6995 4 48C4 72.3005 23.6995 92 48 92C72.3005 92 92 72.3005 92 48C92 23.6995 72.3005 4 48 4ZM12 48C12 28.1177 28.1177 12 48 12C67.8823 12 84 28.1177 84 48C84 67.8823 67.8823 84 48 84C28.1177 84 12 67.8823 12 48Z" fill="currentColor"/>
  </symbol>

  <symbol id="icon-warning" viewBox="0 0 96 96">
    <path d="M44 50C44 51.1046 44.8954 52 46 52H50C51.1046 52 52 51.1046 52 50L52 30C52 28.8954 51.1046 28 50 28L46 28C44.8954 28 44 28.8954 44 30L44 50Z" fill="currentColor"/>
    <path d="M48 68C50.7614 68 53 65.7614 53 63C53 60.2386 50.7614 58 48 58C45.2386 58 43 60.2386 43 63C43 65.7614 45.2386 68 48 68Z" fill="currentColor"/>
    <path fill-rule="evenodd" clip-rule="evenodd" d="M48 4C23.6995 4 4 23.6995 4 48C4 72.3005 23.6995 92 48 92C72.3005 92 92 72.3005 92 48C92 23.6995 72.3005 4 48 4ZM12 48C12 28.1177 28.1177 12 48 12C67.8823 12 84 28.1177 84 48C84 67.8823 67.8823 84 48 84C28.1177 84 12 67.8823 12 48Z" fill="currentColor"/>
  </symbol>


</svg>
