<svg xmlns="http://www.w3.org/2000/svg" style="display:none">


  <!-- ============================================
       Brand
       ============================================ -->

  <symbol id="icon-zego-logomark" viewBox="0 0 32 32">
    <path d="M25.7695 8.7179H6.03995C5.47542 8.7179 5.0297 8.2869 5.0297 7.74097V3.97692C5.0297 3.431 5.47542 3 6.03995 3H25.7695C26.3341 3 26.7798 3.431 26.7798 3.97692V7.74097C26.7798 8.2869 26.3043 8.7179 25.7695 8.7179ZM12.9631 23.4868L19.9753 15.9873C20.3319 15.614 20.3319 15.0104 19.9458 14.6369L17.1824 11.9647C16.7664 11.5625 16.1127 11.5912 15.7264 11.9935L5.26741 23.1993C5.08914 23.3719 5 23.6016 5 23.8604V28.2278C5 28.7737 5.44569 29.2047 6.01025 29.2047H25.7397C26.3043 29.2047 26.75 28.7737 26.75 28.2278V24.4637C26.75 23.9178 26.3043 23.4868 25.7397 23.4868H12.9631Z" fill="currentColor"/>
  </symbol>


  <!-- ============================================
       Finance
       ============================================ -->

  <symbol id="icon-discount" viewBox="0 0 96 96">
    <path d="M38 43C40.7614 43 43 40.7614 43 38C43 35.2386 40.7614 33 38 33C35.2386 33 33 35.2386 33 38C33 40.7614 35.2386 43 38 43Z" fill="currentColor"/>
    <path d="M33.757 59.4142C32.9759 58.6332 32.9759 57.3668 33.757 56.5858L56.3844 33.9584C57.1655 33.1773 58.4318 33.1773 59.2128 33.9584L62.0413 36.7868C62.8223 37.5678 62.8223 38.8342 62.0413 39.6152L39.4138 62.2426C38.6328 63.0237 37.3665 63.0237 36.5854 62.2426L33.757 59.4142Z" fill="currentColor"/>
    <path d="M63 58C63 60.7614 60.7614 63 58 63C55.2386 63 53 60.7614 53 58C53 55.2386 55.2386 53 58 53C60.7614 53 63 55.2386 63 58Z" fill="currentColor"/>
    <path fill-rule="evenodd" clip-rule="evenodd" d="M42.0586 6.46101C45.3399 3.17967 50.6601 3.17966 53.9414 6.46101L58.0339 10.5535L63.6238 9.05572C68.1062 7.85466 72.7135 10.5147 73.9146 14.9971L75.4125 20.5874L81.0028 22.0853C85.4852 23.2864 88.1453 27.8937 86.9442 32.3761L85.4464 37.966L89.539 42.0586C92.8203 45.3399 92.8203 50.66 89.539 53.9414L85.4463 58.0341L86.9442 63.6243C88.1453 68.1067 85.4852 72.7141 81.0028 73.9151L75.4125 75.4131L73.9146 81.0033C72.7135 85.4857 68.1062 88.1458 63.6238 86.9448L58.0335 85.4469L53.9414 89.539C50.6601 92.8203 45.34 92.8203 42.0586 89.539L37.9663 85.4467L32.3756 86.9448C27.8932 88.1458 23.2858 85.4858 22.0848 81.0034L20.5869 75.4131L14.9966 73.9151C10.5142 72.7141 7.8541 68.1067 9.05516 63.6243L10.5532 58.0336L6.46101 53.9414C3.17967 50.6601 3.17966 45.3399 6.46101 42.0586L10.5531 37.9665L9.05517 32.3762C7.85412 27.8938 10.5142 23.2864 14.9966 22.0853L20.5869 20.5874L22.0848 14.9971C23.2858 10.5147 27.8932 7.85465 32.3756 9.05571L37.966 10.5536L42.0586 6.46101ZM48.2845 12.1179C48.1274 11.9607 47.8726 11.9607 47.7154 12.1179L40.3568 19.4765L30.305 16.7831C30.0904 16.7256 29.8697 16.853 29.8122 17.0677L27.1188 27.1194L17.0671 29.8127C16.8525 29.8703 16.7251 30.0909 16.7826 30.3056L19.4759 40.3574L12.1179 47.7155C11.9607 47.8726 11.9607 48.1274 12.1179 48.2845L19.476 55.6427L16.7826 65.6949C16.725 65.9095 16.8524 66.1302 17.0671 66.1877L27.1188 68.8811L29.8122 78.9328C29.8697 79.1475 30.0904 79.2749 30.3051 79.2174L40.3572 76.5239L47.7155 83.8821C47.8726 84.0393 48.1274 84.0393 48.2846 83.8821L55.6427 76.524L65.6943 79.2174C65.909 79.2749 66.1297 79.1475 66.1872 78.9328L68.8805 68.8811L78.9323 66.1877C79.1469 66.1302 79.2743 65.9095 79.2168 65.6949L76.5235 55.6432L83.8821 48.2845C84.0393 48.1274 84.0393 47.8726 83.8821 47.7154L76.5236 40.3569L79.2168 30.3056C79.2743 30.0909 79.1469 29.8703 78.9322 29.8127L68.8805 27.1194L66.1872 17.0677C66.1297 16.853 65.909 16.7256 65.6943 16.7831L55.643 19.4764L48.2845 12.1179Z" fill="currentColor"/>
  </symbol>

  <symbol id="icon-pbs" viewBox="0 0 96 96">
    <path d="M47.5 36.5C45.0147 36.5 43 38.5147 43 41V45H48C49.1046 45 50 45.8954 50 47V50C50 51.1046 49.1046 52 48 52H43V57H56C57.1046 57 58 57.8954 58 59V62C58 63.1046 57.1046 64 56 64H38C36.8954 64 36 63.1046 36 62V41C36 34.6487 41.1487 29.5 47.5 29.5H48.0557C52.4116 29.5 56.3936 31.961 58.3416 35.857C58.7773 36.7284 58.4241 37.7879 57.5528 38.2236L54.4472 39.7764C53.5759 40.2121 52.5163 39.8589 52.0807 38.9875C51.3184 37.463 49.7602 36.5 48.0557 36.5H47.5Z" fill="currentColor"/>
    <path fill-rule="evenodd" clip-rule="evenodd" d="M53.9414 6.46101C50.6601 3.17966 45.3399 3.17967 42.0586 6.46101L37.966 10.5536L32.3756 9.05571C27.8932 7.85465 23.2858 10.5147 22.0848 14.9971L20.5869 20.5874L14.9966 22.0853C10.5142 23.2864 7.85412 27.8938 9.05517 32.3762L10.5531 37.9665L6.46101 42.0586C3.17966 45.3399 3.17967 50.6601 6.46101 53.9414L10.5532 58.0336L9.05516 63.6243C7.8541 68.1067 10.5142 72.7141 14.9966 73.9151L20.5869 75.4131L22.0848 81.0034C23.2858 85.4858 27.8932 88.1458 32.3756 86.9448L37.9663 85.4467L42.0586 89.539C45.34 92.8203 50.6601 92.8203 53.9414 89.539L58.0335 85.4469L63.6238 86.9448C68.1062 88.1458 72.7135 85.4857 73.9146 81.0033L75.4125 75.4131L81.0028 73.9151C85.4852 72.7141 88.1453 68.1067 86.9442 63.6243L85.4463 58.0341L89.539 53.9414C92.8203 50.66 92.8203 45.3399 89.539 42.0586L85.4464 37.966L86.9442 32.3761C88.1453 27.8937 85.4852 23.2864 81.0028 22.0853L75.4125 20.5874L73.9146 14.9971C72.7135 10.5147 68.1062 7.85466 63.6238 9.05572L58.0339 10.5535L53.9414 6.46101ZM47.7154 12.1179C47.8726 11.9607 48.1274 11.9607 48.2845 12.1179L55.643 19.4764L65.6943 16.7831C65.909 16.7256 66.1297 16.853 66.1872 17.0677L68.8805 27.1194L78.9322 29.8127C79.1469 29.8703 79.2743 30.0909 79.2168 30.3056L76.5236 40.3569L83.8821 47.7154C84.0393 47.8726 84.0393 48.1274 83.8821 48.2845L76.5235 55.6432L79.2168 65.6949C79.2743 65.9095 79.1469 66.1302 78.9323 66.1877L68.8805 68.8811L66.1872 78.9328C66.1297 79.1475 65.909 79.2749 65.6943 79.2174L55.6427 76.524L48.2846 83.8821C48.1274 84.0393 47.8726 84.0393 47.7155 83.8821L40.3572 76.5239L30.3051 79.2174C30.0904 79.2749 29.8697 79.1475 29.8122 78.9328L27.1188 68.8811L17.0671 66.1877C16.8524 66.1302 16.725 65.9095 16.7826 65.6949L19.476 55.6427L12.1179 48.2845C11.9607 48.1274 11.9607 47.8726 12.1179 47.7155L19.4759 40.3574L16.7826 30.3056C16.7251 30.0909 16.8525 29.8703 17.0671 29.8127L27.1188 27.1194L29.8122 17.0677C29.8697 16.853 30.0904 16.7256 30.305 16.7831L40.3568 19.4765L47.7154 12.1179Z" fill="currentColor"/>
  </symbol>


  <!-- ============================================
       General
       ============================================ -->

  <symbol id="icon-additional-user" viewBox="0 0 96 96">
    <path fill-rule="evenodd" clip-rule="evenodd" d="M16 20C16 11.1634 23.1634 4 32 4C40.8366 4 48 11.1634 48 20C48 28.8366 40.8366 36 32 36C23.1634 36 16 28.8366 16 20ZM32 12C27.5817 12 24 15.5817 24 20C24 24.4183 27.5817 28 32 28C36.4183 28 40 24.4183 40 20C40 15.5817 36.4183 12 32 12Z" fill="currentColor"/>
    <path fill-rule="evenodd" clip-rule="evenodd" d="M4 52C4 47.5817 7.58172 44 12 44H52C56.4183 44 60 47.5817 60 52V64C60 79.464 47.464 92 32 92C16.536 92 4 79.464 4 64V52ZM52 52H12V64C12 75.0457 20.9543 84 32 84C43.0457 84 52 75.0457 52 64V52Z" fill="currentColor"/>
    <path fill-rule="evenodd" clip-rule="evenodd" d="M72 42C72 43.1046 72.8954 44 74 44H78C79.1046 44 80 43.1046 80 42V32H90C91.1046 32 92 31.1046 92 30V26C92 24.8954 91.1046 24 90 24H80V14C80 12.8954 79.1046 12 78 12H74C72.8954 12 72 12.8954 72 14V24H62C60.8954 24 60 24.8954 60 26V30C60 31.1046 60.8954 32 62 32H72V42Z" fill="currentColor"/>
  </symbol>

  <symbol id="icon-policy" viewBox="0 0 96 96">
    <path d="M64 42C64 43.1046 63.1046 44 62 44H34C32.8954 44 32 43.1046 32 42V38C32 36.8954 32.8954 36 34 36H62C63.1046 36 64 36.8954 64 38V42Z" fill="currentColor"/>
    <path d="M56 58C56 59.1046 55.1046 60 54 60H34C32.8954 60 32 59.1046 32 58V54C32 52.8954 32.8954 52 34 52H54C55.1046 52 56 52.8954 56 54V58Z" fill="currentColor"/>
    <path fill-rule="evenodd" clip-rule="evenodd" d="M20 4C15.5817 4 12 7.58172 12 12V84C12 88.4183 15.5817 92 20 92H76C80.4183 92 84 88.4183 84 84V33.6021C84 30.3609 82.6889 27.2576 80.3649 24.9982L62.2599 7.39606C60.02 5.21833 57.019 4 53.895 4H20ZM20 12L53.895 12C54.9363 12 55.9366 12.4061 56.6833 13.132L74.7883 30.7341C75.563 31.4873 76 32.5217 76 33.6021V84L20 84V12Z" fill="currentColor"/>
  </symbol>

  <symbol id="icon-idea" viewBox="0 0 96 96">
    <path d="M50 4C51.1046 4 52 4.89543 52 6V13C52 14.1046 51.1046 15 50 15H46C44.8954 15 44 14.1046 44 13V6C44 4.89543 44.8954 4 46 4H50Z" fill="currentColor"/>
    <path d="M8 42C8 40.8954 8.89543 40 10 40H17C18.1046 40 19 40.8954 19 42V46C19 47.1046 18.1046 48 17 48H10C8.89543 48 8 47.1046 8 46V42Z" fill="currentColor"/>
    <path d="M77 42C77 40.8954 77.8954 40 79 40H86C87.1046 40 88 40.8954 88 42V46C88 47.1046 87.1046 48 86 48H79C77.8954 48 77 47.1046 77 46V42Z" fill="currentColor"/>
    <path d="M38 84C36.8954 84 36 84.8954 36 86V90C36 91.1046 36.8954 92 38 92H58C59.1046 92 60 91.1046 60 90V86C60 84.8954 59.1046 84 58 84H38Z" fill="currentColor"/>
    <path d="M22.6361 12.9793C21.8551 12.1982 20.5888 12.1982 19.8077 12.9793L16.9793 15.8077C16.1982 16.5888 16.1982 17.8551 16.9793 18.6361L21.929 23.5859C22.7101 24.3669 23.9764 24.3669 24.7575 23.5859L27.5859 20.7575C28.3669 19.9764 28.3669 18.7101 27.5859 17.929L22.6361 12.9793Z" fill="currentColor"/>
    <path d="M76.1925 12.9792C75.4115 12.1981 74.1452 12.1981 73.3641 12.9792L68.4144 17.9289C67.6333 18.71 67.6333 19.9763 68.4144 20.7573L71.2428 23.5858C72.0238 24.3668 73.2902 24.3668 74.0712 23.5858L79.021 18.636C79.802 17.855 79.802 16.5886 79.021 15.8076L76.1925 12.9792Z" fill="currentColor"/>
    <path fill-rule="evenodd" clip-rule="evenodd" d="M47.9981 20.0038C34.7443 20.0038 24 30.7481 24 44.0019C24 49.2805 25.7089 54.1717 28.6027 58.1368C30.7582 61.0903 32.052 63.6303 32.052 66.0605V70.0555C32.052 73.3645 34.7318 76.0555 38.0502 76.0555H57.9492C61.2759 76.0555 63.9443 73.3562 63.9443 70.0555V66.0605C63.9443 63.6303 65.238 61.0903 67.3935 58.1368C70.2873 54.1717 71.9962 49.2805 71.9962 44.0019C71.9962 30.7481 61.2519 20.0038 47.9981 20.0038ZM32 44.0019C32 35.1664 39.1626 28.0038 47.9981 28.0038C56.8336 28.0038 63.9962 35.1664 63.9962 44.0019C63.9962 47.529 62.8595 50.7788 60.9314 53.4207C58.6209 56.5865 55.9443 60.9149 55.9443 66.0605V68.0555H40.052V66.0605C40.052 60.9149 37.3753 56.5865 35.0648 53.4207C33.1367 50.7788 32 47.529 32 44.0019Z" fill="currentColor"/>
  </symbol>


  <!-- ============================================
       Interface
       ============================================ -->

  <symbol id="icon-tick" viewBox="0 0 96 96">
    <path d="M48 4C23.6995 4 4 23.6995 4 48C4 72.3005 23.6995 92 48 92C72.3005 92 92 72.3005 92 48C92 23.6995 72.3005 4 48 4Z" fill="var(--bg-brand-aqua)"/>
    <path fill-rule="evenodd" clip-rule="evenodd" d="M41.9463 54.2307L60.4289 35.7481C61.21 34.967 62.4763 34.967 63.2574 35.7481L66.0858 38.5765C66.8668 39.3576 66.8668 40.6239 66.0858 41.4049L43.405 64.0857C42.624 64.8667 41.3577 64.8667 40.5766 64.0857L30.4142 53.9233C29.6332 53.1423 29.6332 51.8759 30.4142 51.0949L33.1981 48.311C33.9792 47.5299 35.2455 47.5299 36.0266 48.311L41.9463 54.2307Z" fill="var(--colour-navy-70)"/>
  </symbol>

  <symbol id="icon-tick-small" viewBox="0 0 24 24">
    <path d="M17.289 5.25373C17.6282 4.91487 18.1785 4.91468 18.5176 5.25373L19.7451 6.48225C20.0843 6.82144 20.0843 7.37157 19.7451 7.71076L9.89549 17.5604C9.55634 17.8994 9.0071 17.8993 8.66795 17.5604L4.25388 13.1473C3.91489 12.8081 3.91488 12.2579 4.25388 11.9188L5.46287 10.7098C5.80201 10.3706 6.35218 10.3707 6.69138 10.7098L9.26267 13.2811L17.289 5.25373Z" fill="currentColor"/>
  </symbol>

  <symbol id="icon-close" viewBox="0 0 96 96">
    <circle cx="48" cy="48" r="44" fill="currentColor" fill-opacity="0.2"/>
    <path d="M58.9329 65.3572C59.7108 66.1561 60.9917 66.1646 61.7801 65.3762L64.6083 62.548C65.382 61.7743 65.3904 60.5226 64.6271 59.7386L53.2527 48.0565L64.9731 36.6449C65.7719 35.8671 65.7805 34.5862 64.9921 33.7977L62.1639 30.9695C61.3902 30.1959 60.1384 30.1875 59.3545 30.9508L47.6723 42.3251L36.2612 30.6053C35.4834 29.8064 34.2025 29.7978 33.4141 30.5863L30.5859 33.4144C29.8122 34.1881 29.8038 35.4399 30.5671 36.2239L41.941 47.9055L30.2211 59.3166C29.4222 60.0945 29.4137 61.3754 30.2021 62.1638L33.0303 64.992C33.804 65.7657 35.0558 65.774 35.8397 65.0107L47.5214 53.6368L58.9329 65.3572Z" fill="currentColor"/>
  </symbol>

  <symbol id="icon-chevron-down" viewBox="0 0 96 96">
    <path fill-rule="evenodd" clip-rule="evenodd" d="M14.3431 32.3431C16.2957 30.3905 19.4645 30.3905 21.4142 32.3431L48 58.9289L74.5858 32.3431C76.5355 30.3905 79.7043 30.3905 81.6569 32.3431C83.6095 34.2957 83.6095 37.4645 81.6569 39.4142L51.5355 69.5355C49.5829 71.4882 46.4171 71.4882 44.4645 69.5355L14.3431 39.4142C12.3905 37.4645 12.3905 34.2957 14.3431 32.3431Z" fill="currentColor"/>
  </symbol>

  <symbol id="icon-chevron-small-down" viewBox="0 0 12 7">
    <path d="M11.3416 1.98792C11.5702 1.75193 11.5664 1.37599 11.3332 1.14457L10.3552 0.174098C10.1179 -0.061348 9.73401 -0.0574932 9.50151 0.18267L6.02803 3.77064C5.87213 3.93167 5.61435 3.9332 5.45656 3.77401L1.99897 0.285903C1.76469 0.0495567 1.38282 0.0490306 1.14789 0.284731L0.175041 1.26078C-0.0578922 1.49447 -0.058412 1.8724 0.173876 2.10674L4.32711 6.29663C5.11592 7.09241 6.40453 7.08497 7.1841 6.28013L11.3416 1.98792Z" fill="currentColor"/>
  </symbol>

  <symbol id="icon-chevron-small-up" viewBox="0 0 12 7">
    <path d="M0.169026 4.90072C-0.0595573 5.13671 -0.0558328 5.51266 0.177381 5.74407L1.1554 6.71455C1.39267 6.94999 1.7766 6.94614 2.0091 6.70598L5.48258 3.11801C5.63848 2.95697 5.89626 2.95545 6.05405 3.11463L9.51164 6.60274C9.74592 6.83909 10.1278 6.83961 10.3627 6.60391L11.3356 5.62787C11.5685 5.39417 11.569 5.01624 11.3367 4.78191L7.18351 0.592014C6.39469 -0.203764 5.10608 -0.196322 4.32651 0.608513L0.169026 4.90072Z" fill="currentColor"/>
  </symbol>

  <symbol id="icon-chevron-small-right" viewBox="0 0 7 12">
    <path d="M1.98792 0.169026C1.75193 -0.0595573 1.37599 -0.0558328 1.14457 0.177381L0.174098 1.1554C-0.061348 1.39267 -0.0574932 1.7766 0.18267 2.0091L3.77064 5.48258C3.93167 5.63848 3.9332 5.89626 3.77401 6.05405L0.285904 9.51164C0.0495571 9.74592 0.049031 10.1278 0.284731 10.3627L1.26078 11.3356C1.49447 11.5685 1.8724 11.569 2.10674 11.3367L6.29663 7.18351C7.09241 6.39469 7.08497 5.10608 6.28013 4.32651L1.98792 0.169026Z" fill="currentColor"/>
  </symbol>

  <symbol id="icon-chevron-small-left" viewBox="0 0 7 12">
    <path d="M4.90072 11.3416C5.13672 11.5702 5.51266 11.5664 5.74407 11.3332L6.71455 10.3552C6.94999 10.1179 6.94614 9.73401 6.70598 9.50151L3.11801 6.02804C2.95697 5.87213 2.95545 5.61435 3.11463 5.45656L6.60274 1.99897C6.83909 1.76469 6.83961 1.38282 6.60391 1.14789L5.62787 0.175041C5.39417 -0.0578922 5.01624 -0.058412 4.78191 0.173876L0.592014 4.32711C-0.203764 5.11592 -0.196322 6.40453 0.608513 7.1841L4.90072 11.3416Z" fill="currentColor"/>
  </symbol>

  <symbol id="icon-arrow-right" viewBox="0 0 96 96">
    <path d="M43.5937 14.3589C42.8121 13.5783 42.8121 12.3128 43.5937 11.5323L46.5445 8.5854C47.326 7.80487 48.5932 7.80487 49.3748 8.5854L87.2324 46.3928C87.2818 46.4421 87.328 46.4934 87.3712 46.5463L87.4147 46.5898C88.1963 47.3703 88.1963 48.6358 87.4147 49.4164L49.3671 87.4135C48.5856 88.194 47.3184 88.194 46.5368 87.4135L43.586 84.4666C42.8044 83.6861 42.8044 82.4206 43.586 81.64L73.2652 52.0002H10C8.89543 52.0002 8 51.1047 8 50.0002V46.0002C8 44.8956 8.89543 44.0002 10 44.0002H73.2743L43.5937 14.3589Z" fill="currentColor"/>
  </symbol>

  <symbol id="icon-arrow-left" viewBox="0 0 96 96">
    <path d="M52.4072 81.6397C53.1888 82.4202 53.1888 83.6857 52.4072 84.4662L49.4564 87.4131C48.6748 88.1937 47.4076 88.1937 46.6261 87.4131L8.76846 49.6057C8.71909 49.5564 8.67284 49.5052 8.6297 49.4522L8.58612 49.4087C7.80456 48.6282 7.80456 47.3627 8.58612 46.5822L46.6337 8.58503C47.4153 7.8045 48.6825 7.8045 49.464 8.58503L52.4148 11.5319C53.1964 12.3125 53.1964 13.578 52.4148 14.3585L22.7356 43.9984L86.0009 43.9984C87.1054 43.9984 88.0009 44.8938 88.0009 45.9984V49.9984C88.0009 51.1029 87.1054 51.9984 86.0009 51.9984L22.7265 51.9984L52.4072 81.6397Z" fill="currentColor"/>
  </symbol>

  <symbol id="icon-arrow-down" viewBox="0 0 96 96">
    <path d="M81.6409 43.5927C82.4214 42.8111 83.6869 42.8111 84.4674 43.5927L87.4144 46.5435C88.1949 47.3251 88.1949 48.5922 87.4144 49.3738L49.6069 87.2314C49.5576 87.2808 49.5064 87.327 49.4535 87.3702L49.4099 87.4138C48.6294 88.1953 47.3639 88.1953 46.5834 87.4138L8.58625 49.3662C7.80572 48.5846 7.80572 47.3174 8.58625 46.5359L11.5332 43.585C12.3137 42.8035 13.5792 42.8035 14.3597 43.585L43.9996 73.2643L43.9996 9.99902C43.9996 8.89445 44.895 7.99902 45.9996 7.99902H49.9996C51.1042 7.99902 51.9996 8.89445 51.9996 9.99902L51.9996 73.2733L81.6409 43.5927Z" fill="currentColor"/>
  </symbol>

  <symbol id="icon-arrow-up" viewBox="0 0 96 96">
    <path d="M14.36 52.4063C13.5794 53.1879 12.3139 53.1879 11.5334 52.4063L8.5865 49.4555C7.80597 48.674 7.80597 47.4068 8.5865 46.6252L46.3939 8.7676C46.4432 8.71823 46.4945 8.67198 46.5474 8.62885L46.5909 8.58527C47.3714 7.8037 48.6369 7.8037 49.4175 8.58527L87.4146 46.6329C88.1951 47.4144 88.1951 48.6816 87.4146 49.4632L84.4677 52.414C83.6872 53.1956 82.4217 53.1956 81.6411 52.414L52.0013 22.7348L52.0013 86C52.0013 87.1046 51.1058 88 50.0013 88H46.0013C44.8967 88 44.0013 87.1046 44.0013 86L44.0013 22.7257L14.36 52.4063Z" fill="currentColor"/>
  </symbol>

  <symbol id="icon-caution" viewBox="0 0 96 96">
    <path fill-rule="evenodd" clip-rule="evenodd" d="M46 63.9999C44.8955 63.9999 44 63.0231 44 61.8181L44 42.1818C44 40.9768 44.8955 39.9999 46 39.9999H50C51.1046 39.9999 52 40.9768 52 42.1817V61.8181C52 63.0231 51.1046 63.9999 50 63.9999H46Z" fill="currentColor"/>
    <path fill-rule="evenodd" clip-rule="evenodd" d="M46 75.9999C44.8955 75.9999 44 75.1859 44 74.1817L44 69.8181C44 68.814 44.8955 67.9999 46 67.9999H50C51.1046 67.9999 52 68.814 52 69.8181V74.1817C52 75.1859 51.1046 75.9999 50 75.9999H46Z" fill="currentColor"/>
    <path fill-rule="evenodd" clip-rule="evenodd" d="M41.3982 9.32705C44.379 3.44699 52.7935 3.49372 55.7089 9.40655L90.7433 80.4621C93.3646 85.7786 89.4956 91.9999 83.568 91.9999H12.5124C6.54601 91.9999 2.67914 85.7043 5.37694 80.3826L41.3982 9.32705ZM48.5337 12.9443L12.5124 83.9999H83.568L48.5337 12.9443Z" fill="currentColor"/>
  </symbol>

  <symbol id="icon-stop" viewBox="0 0 96 96">
    <path fill-rule="evenodd" clip-rule="evenodd" d="M46 51.9999C44.8954 51.9999 44 51.023 44 49.8181V30.1817C44 28.9767 44.8954 27.9999 46 27.9999L50 27.9999C51.1046 27.9999 52 28.9767 52 30.1817V49.8181C52 51.023 51.1046 51.9999 50 51.9999H46Z" fill="currentColor"/>
    <path fill-rule="evenodd" clip-rule="evenodd" d="M62.0448 12.135C61.5894 12.0256 61.0553 11.9999 58.6901 11.9999H37.3056C34.9411 11.9999 34.4111 12.0256 33.9555 12.135C33.4602 12.2539 32.9841 12.4512 32.5435 12.7212C32.1518 12.9612 31.7665 13.3103 30.1236 14.9533C30.1088 14.9681 30.094 14.9827 30.079 14.9972L30.0584 15.0171L14.9951 30.0805C14.9788 30.0967 14.9624 30.1129 14.9459 30.1288C13.3139 31.7613 12.9628 32.1493 12.7213 32.5434C12.4526 32.9819 12.2545 33.4599 12.1351 33.9575C12.0257 34.4131 12 34.9431 12 37.3076V58.6922C12 61.0567 12.0257 61.587 12.1351 62.0425C12.2542 62.5388 12.4519 63.0157 12.7213 63.4555C12.9659 63.8546 13.3239 64.249 14.9951 65.9201L30.0806 81.0056C31.7522 82.6773 32.144 83.0327 32.5435 83.2775C32.9873 83.5495 33.4639 83.7472 33.9555 83.8652C34.4096 83.9742 34.938 83.9999 37.2956 83.9999H58.7C61.0583 83.9999 61.5909 83.9742 62.0448 83.8652C62.5376 83.7469 63.015 83.5489 63.4577 83.2776C63.858 83.0323 64.2533 82.6747 65.9224 81.0056L81.0079 65.9201C82.677 64.251 83.0345 63.8558 83.2798 63.4555C83.5451 63.0226 83.7421 62.5466 83.8631 62.0425C83.9728 61.5856 84 61.051 84 58.6922V37.3076C84 34.9489 83.9728 34.4145 83.8631 33.9575C83.7418 33.4522 83.5444 32.9752 83.2799 32.5434C83.035 32.1439 82.6795 31.7521 81.0079 30.0804L65.9224 14.995C64.2512 13.3238 63.8569 12.9658 63.4577 12.7212C63.0181 12.4518 62.5411 12.2541 62.0448 12.135ZM59.0434 3.99969C60.8708 3.99825 62.4172 3.99704 63.9124 4.356C65.2301 4.67235 66.4868 5.19479 67.6377 5.90008C68.9485 6.70332 70.0395 7.79601 71.3299 9.08844C71.4122 9.17086 71.4953 9.25409 71.5793 9.33812L86.6647 24.4236C86.7487 24.5075 86.8319 24.5906 86.9142 24.6728C88.2076 25.9641 89.2976 27.0524 90.101 28.3634C90.8111 29.5223 91.3279 30.7813 91.6421 32.09C92.0024 33.5908 92.0014 35.1362 92.0001 36.9793C92.0001 37.0877 92 37.1971 92 37.3076V58.6922C92 58.8027 92.0001 58.9121 92.0001 59.0205C92.0014 60.8636 92.0024 62.4093 91.6421 63.9101C91.3276 65.22 90.8104 66.4777 90.101 67.6354C89.2955 68.9498 88.2033 70.0405 86.9027 71.3392C86.8242 71.4177 86.7448 71.4969 86.6647 71.577L71.5793 86.6625C71.4992 86.7426 71.4199 86.8219 71.3414 86.9005C70.0428 88.201 68.9521 89.2933 67.6377 90.0987C66.4899 90.8021 65.2336 91.3269 63.9124 91.6441C62.4188 92.0027 60.8742 92.0015 59.0524 92.0001C58.9361 92 58.8187 91.9999 58.7 91.9999H37.2956C37.1771 91.9999 37.0597 92 36.9436 92.0001C35.1216 92.0015 33.5815 92.0027 32.0879 91.6441C30.7655 91.3267 29.5103 90.8014 28.3635 90.0987C27.0525 89.2952 25.9643 88.2054 24.6729 86.912C24.5907 86.8296 24.5077 86.7465 24.4237 86.6625L9.33824 71.577C9.25422 71.493 9.17099 71.4099 9.08857 71.3276C7.79616 70.0372 6.70344 68.9462 5.9002 67.6354C5.19492 66.4845 4.67248 65.2278 4.35612 63.9101C3.99717 62.415 3.99838 60.8727 3.99981 59.0452C3.9999 58.9287 4 58.811 4 58.6922V37.3076C4 37.1887 3.9999 37.0711 3.99981 36.9546C3.99838 35.1271 3.99717 33.5851 4.35612 32.09C4.67216 30.7736 5.1942 29.5155 5.9002 28.3634C6.70197 27.055 7.79054 25.9682 9.07619 24.6845C9.15818 24.6027 9.24097 24.52 9.32453 24.4365C9.34085 24.4201 9.35732 24.404 9.37391 24.3879L24.4237 9.33811C24.4385 9.32338 24.4533 9.30875 24.4683 9.29425L24.4886 9.27451C24.5637 9.19939 24.6381 9.12488 24.7119 9.05101C25.98 7.78089 27.0606 6.69851 28.3635 5.90008C29.5135 5.19534 30.7692 4.6726 32.0879 4.356C33.583 3.99705 35.125 3.99826 36.9526 3.99969C37.0691 3.99978 37.1867 3.99987 37.3056 3.99987H58.6901C58.8091 3.99987 58.9268 3.99978 59.0434 3.99969Z" fill="currentColor"/>
    <path fill-rule="evenodd" clip-rule="evenodd" d="M46 67.9998C44.8954 67.9998 44 67.1858 44 66.1817V61.8181C44 60.8139 44.8954 59.9999 46 59.9999H50C51.1046 59.9999 52 60.8139 52 61.8181V66.1817C52 67.1858 51.1046 67.9998 50 67.9998H46Z" fill="currentColor"/>
  </symbol>

  <symbol id="icon-correct" viewBox="0 0 96 96">
    <path fill-rule="evenodd" clip-rule="evenodd" d="M41.9463 54.2308L60.4289 35.7482C61.21 34.9671 62.4763 34.9671 63.2574 35.7482L66.0858 38.5766C66.8668 39.3577 66.8668 40.624 66.0858 41.405L43.405 64.0858C42.624 64.8668 41.3577 64.8668 40.5766 64.0858L30.4142 53.9234C29.6332 53.1423 29.6332 51.876 30.4142 51.095L33.1981 48.311C33.9792 47.53 35.2455 47.53 36.0266 48.311L41.9463 54.2308Z" fill="currentColor"/>
    <path fill-rule="evenodd" clip-rule="evenodd" d="M48 12C28.1177 12 12 28.1177 12 48C12 67.8823 28.1177 84 48 84C67.8823 84 84 67.8823 84 48C84 28.1177 67.8823 12 48 12ZM4 48C4 23.6995 23.6995 4 48 4C72.3005 4 92 23.6995 92 48C92 72.3005 72.3005 92 48 92C23.6995 92 4 72.3005 4 48Z" fill="currentColor"/>
  </symbol>

  <symbol id="icon-search" viewBox="0 0 96 96">
    <path fill-rule="evenodd" clip-rule="evenodd" d="M40.3467 4C20.273 4 4 20.273 4 40.3467C4 60.4205 20.273 76.6935 40.3467 76.6935C48.9287 76.6935 56.8159 73.7192 63.0339 68.7453L85.6972 91.4086C86.4858 92.1971 87.7643 92.1971 88.5529 91.4086L91.4086 88.5529C92.1971 87.7643 92.1971 86.4858 91.4086 85.6972L68.7453 63.0339C73.7192 56.8159 76.6935 48.9287 76.6935 40.3467C76.6935 20.273 60.4205 4 40.3467 4ZM12.0771 40.3467C12.0771 24.7338 24.7338 12.0771 40.3467 12.0771C55.9597 12.0771 68.6164 24.7338 68.6164 40.3467C68.6164 55.9597 55.9597 68.6164 40.3467 68.6164C24.7338 68.6164 12.0771 55.9597 12.0771 40.3467Z" fill="currentColor"/>
  </symbol>


  <!-- ============================================
       Product
       ============================================ -->

  <symbol id="icon-personal-car" viewBox="0 0 96 96">
    <path fill-rule="evenodd" clip-rule="evenodd" d="M22.5943 16.4178C24.8743 13.6903 28.2463 12.114 31.8013 12.114H66.8017L75.1296 35.0156L88.1067 39.882C90.4486 40.7602 92 42.9989 92 45.5V76H79.3172C77.6698 80.6608 73.2249 84 68 84C62.7751 84 58.3302 80.6608 56.6828 76H39.3172C37.6698 80.6608 33.2249 84 28 84C22.7751 84 18.3302 80.6608 16.6828 76H4V38.6624L22.5943 16.4178ZM39.3172 68H56.6828C58.3302 63.3392 62.7751 60 68 60C73.2249 60 77.6698 63.3392 79.3172 68H84V46.886L68.8704 41.2124L61.1983 20.114H31.8013C30.6163 20.114 29.4923 20.6394 28.7323 21.5486L12 41.5656V68H16.6828C18.3302 63.3392 22.7751 60 28 60C33.2249 60 37.6698 63.3392 39.3172 68ZM24 72C24 69.7909 25.7909 68 28 68C30.2091 68 32 69.7909 32 72C32 74.2091 30.2091 76 28 76C25.7909 76 24 74.2091 24 72ZM64 72C64 69.7909 65.7909 68 68 68C70.2091 68 72 69.7909 72 72C72 74.2091 70.2091 76 68 76C65.7909 76 64 74.2091 64 72Z" fill="currentColor"/>
    <path d="M59 37.5C59 40.5376 56.5376 43 53.5 43C50.4624 43 48 40.5376 48 37.5C48 34.4624 50.4624 32 53.5 32C56.5376 32 59 34.4624 59 37.5Z" fill="currentColor"/>
    <path d="M40 37.5C40 40.5376 37.5376 43 34.5 43C31.4624 43 29 40.5376 29 37.5C29 34.4624 31.4624 32 34.5 32C37.5376 32 40 34.4624 40 37.5Z" fill="currentColor"/>
  </symbol>


  <!-- ============================================
       Social
       ============================================ -->

  <symbol id="icon-mail" viewBox="0 0 96 96">
    <path fill-rule="evenodd" clip-rule="evenodd" d="M12 12C7.58172 12 4 15.5817 4 20V76C4 80.4183 7.58172 84 12 84H84C88.4183 84 92 80.4183 92 76V20C92 15.5817 88.4183 12 84 12H12ZM12 20H84V20.0395L48.0001 47.9394L12 20.0393V20ZM12 30.1606V76H84V30.1607L52.9007 54.2627C50.0161 56.4983 45.9841 56.4983 43.0995 54.2627L12 30.1606Z" fill="currentColor"/>
  </symbol>


  <!-- ============================================
       Telematics
       ============================================ -->

  <symbol id="icon-driving" viewBox="0 0 96 96">
    <path d="M54 48C54 51.3137 51.3137 54 48 54C44.6863 54 42 51.3137 42 48C42 44.6863 44.6863 42 48 42C51.3137 42 54 44.6863 54 48Z" fill="currentColor"/>
    <path fill-rule="evenodd" clip-rule="evenodd" d="M4.00054 48.2197C4.00052 48.2197 4.00055 48.2197 4.00054 48.2197C4.01384 50.9404 4.27402 53.6027 4.75993 56.1854C4.75992 56.1854 4.75995 56.1854 4.75993 56.1854C7.80978 72.396 19.7502 85.4689 35.3232 90.1464C35.36 90.1575 35.3969 90.1685 35.4338 90.1795C37.926 90.9208 40.5107 91.4473 43.1664 91.7375C44.7538 91.911 46.3665 92 48 92C49.6335 92 51.2462 91.911 52.8335 91.7375C52.9066 91.7296 52.9795 91.7214 53.0524 91.7131C55.6706 91.4138 58.2189 90.8847 60.6767 90.1464C76.2498 85.4689 88.1902 72.396 91.24 56.1854C91.2649 56.0534 91.2891 55.9212 91.3128 55.7887C91.7519 53.3304 91.9868 50.8013 91.9995 48.2197C91.9998 48.1465 92 48.0733 92 48C92 47.3273 91.9849 46.6581 91.955 45.9928C91.7994 42.5273 91.243 39.166 90.3308 35.9545C85.0924 17.5097 68.1239 4 48 4C28.1067 4 11.2969 17.2019 5.85383 35.3224C4.83202 38.7242 4.21075 42.2993 4.04492 45.9929C4.01505 46.6582 4 47.3273 4 48C4 48.0733 4.00018 48.1465 4.00054 48.2197ZM12.7506 40.6514C12.2586 43.0238 12 45.4817 12 48C12 48.0733 12.0002 48.1466 12.0007 48.2198C29.9289 50.202 43.8891 65.3495 43.9993 83.7802C45.3129 83.9254 46.6477 84 48 84C49.3523 84 50.6871 83.9254 52.0007 83.7802C52.1108 65.3495 66.0711 50.202 83.9993 48.2198C83.9998 48.1466 84 48.0733 84 48C84 45.4817 83.7414 43.0238 83.2494 40.6514C72.7138 35.1259 60.7219 32 48 32C35.2781 32 23.2862 35.1258 12.7506 40.6514ZM12.9959 56.4444C25.4126 58.6808 34.9849 69.1037 35.9242 81.9246C24.5731 77.8838 15.8475 68.3076 12.9959 56.4444ZM83.0041 56.4444C70.5874 58.6807 61.0151 69.1037 60.0757 81.9247C71.4269 77.8839 80.1525 68.3076 83.0041 56.4444ZM16.8322 29.9723C26.4694 26.1193 36.9872 24 48 24C59.0128 24 69.5306 26.1193 79.1678 29.9723C72.9393 19.2272 61.3136 12 48 12C34.6864 12 23.0607 19.2271 16.8322 29.9723Z" fill="currentColor"/>
  </symbol>


  <!-- ============================================
       Tooltip
       ============================================ -->

  <symbol id="icon-information" viewBox="0 0 96 96">
    <path d="M48 28C45.2386 28 43 30.2386 43 33C43 35.7614 45.2386 38 48 38C50.7614 38 53 35.7614 53 33C53 30.2386 50.7614 28 48 28Z" fill="currentColor"/>
    <path d="M52 46C52 44.8954 51.1046 44 50 44H46C44.8954 44 44 44.8954 44 46L44 66C44 67.1046 44.8954 68 46 68L50 68C51.1046 68 52 67.1046 52 66L52 46Z" fill="currentColor"/>
    <path fill-rule="evenodd" clip-rule="evenodd" d="M48 4C23.6995 4 4 23.6995 4 48C4 72.3005 23.6995 92 48 92C72.3005 92 92 72.3005 92 48C92 23.6995 72.3005 4 48 4ZM12 48C12 28.1177 28.1177 12 48 12C67.8823 12 84 28.1177 84 48C84 67.8823 67.8823 84 48 84C28.1177 84 12 67.8823 12 48Z" fill="currentColor"/>
  </symbol>

  <symbol id="icon-warning" viewBox="0 0 96 96">
    <path d="M44 50C44 51.1046 44.8954 52 46 52H50C51.1046 52 52 51.1046 52 50L52 30C52 28.8954 51.1046 28 50 28L46 28C44.8954 28 44 28.8954 44 30L44 50Z" fill="currentColor"/>
    <path d="M48 68C50.7614 68 53 65.7614 53 63C53 60.2386 50.7614 58 48 58C45.2386 58 43 60.2386 43 63C43 65.7614 45.2386 68 48 68Z" fill="currentColor"/>
    <path fill-rule="evenodd" clip-rule="evenodd" d="M48 4C23.6995 4 4 23.6995 4 48C4 72.3005 23.6995 92 48 92C72.3005 92 92 72.3005 92 48C92 23.6995 72.3005 4 48 4ZM12 48C12 28.1177 28.1177 12 48 12C67.8823 12 84 28.1177 84 48C84 67.8823 67.8823 84 48 84C28.1177 84 12 67.8823 12 48Z" fill="currentColor"/>
  </symbol>


  <!-- ============================================
       General
       ============================================ -->

  <symbol id="icon-connection-issue" viewBox="0 0 96 96">
    <path d="M53.6574 61.7414C54.4384 60.9606 55.7045 60.9606 56.4855 61.7414L59.3146 64.5696C60.0956 65.3506 60.0955 66.6176 59.3146 67.3987L53.6574 73.0549L59.3136 78.7121C60.0947 79.4932 60.0947 80.7592 59.3136 81.5403L56.4855 84.3694C55.7045 85.1501 54.4384 85.1501 53.6574 84.3694L48.0002 78.7121L42.3439 84.3694C41.5629 85.1504 40.2958 85.1504 39.5148 84.3694L36.6867 81.5403C35.9058 80.7592 35.9057 79.4931 36.6867 78.7121L42.3429 73.0549L36.6867 67.3987C35.9056 66.6176 35.9056 65.3506 36.6867 64.5696L39.5148 61.7414C40.2959 60.9604 41.5629 60.9604 42.3439 61.7414L48.0002 67.3977L53.6574 61.7414Z" fill="currentColor"/>
    <path d="M48.0007 12C60.9641 12.0001 73.0464 16.0979 83.2467 23.145C83.7011 23.459 83.8051 24.0842 83.4843 24.5338L79.9995 29.4175C79.6787 29.867 79.0547 29.9707 78.5997 29.6577C69.6704 23.5161 59.1939 20.0001 48.0007 20C36.8074 20 26.3302 23.516 17.4008 29.6577C16.9458 29.9707 16.3218 29.867 16.001 29.4175L12.5162 24.5338C12.1954 24.0842 12.2994 23.459 12.7538 23.145C22.9543 16.0979 35.0372 12 48.0007 12Z" fill="currentColor"/>
    <path d="M48.0007 28C57.8229 28.0001 66.9901 31.0307 74.7754 36.254C75.234 36.5618 75.3436 37.1862 75.027 37.6387L71.5868 42.5547C71.2701 43.0072 70.6472 43.1163 70.1875 42.8102C63.6665 38.4693 56.0831 36.0001 48.0007 36C39.9183 36 32.3342 38.4692 25.8131 42.8102C25.3534 43.1162 24.7304 43.0072 24.4138 42.5546L20.9744 37.6387C20.6578 37.1862 20.7674 36.5618 21.226 36.2541C29.0113 31.0308 38.1785 28 48.0007 28Z" fill="currentColor"/>
    <path d="M48.0005 44C54.6696 44.0001 60.9108 45.9636 66.2699 49.3628C66.7364 49.6586 66.8567 50.2814 66.5479 50.7394L63.1942 55.7148C62.8855 56.1727 62.265 56.2921 61.7963 56C57.6873 53.4392 52.9871 52.0001 48.0005 52C43.0137 52 38.3129 53.4391 34.2038 55.9999C33.7351 56.292 33.1145 56.1727 32.8059 55.7147L29.4529 50.7394C29.1442 50.2814 29.2646 49.6587 29.7309 49.3628C35.0901 45.9636 41.3314 44 48.0005 44Z" fill="currentColor"/>
  </symbol>

  <symbol id="icon-upload" viewBox="0 0 96 96">
    <path fill-rule="evenodd" clip-rule="evenodd" d="M60 12C49.3665 12 40.3566 18.9121 37.2019 28.483C35.5138 28.1656 33.7746 28 32 28C16.536 28 4 40.536 4 56C4 71.464 16.536 84 32 84H70C82.1503 84 92 74.1503 92 62C92 54.5478 88.2923 47.9645 82.6369 43.9896C83.5205 41.4861 84 38.7953 84 36C84 22.7452 73.2548 12 60 12ZM44.5088 31.9776C46.292 25.0857 52.5571 20 60 20C68.8366 20 76 27.1634 76 36C76 38.1932 75.561 40.2737 74.7697 42.1662C73.551 45.0812 74.6808 48.4393 77.3233 50.0652C81.3378 52.5353 84 56.9585 84 62C84 69.732 77.732 76 70 76H52V57.3077L58.5857 63.8934C59.3668 64.6745 60.6331 64.6745 61.4142 63.8934L64.2426 61.065C65.0237 60.2839 65.0237 59.0176 64.2426 58.2366L48.0061 42L31.7695 58.2366C30.9885 59.0176 30.9885 60.2839 31.7695 61.065L34.5979 63.8934C35.379 64.6745 36.6453 64.6745 37.4264 63.8934L44 57.3198V76H32C20.9543 76 12 67.0457 12 56C12 44.9543 20.9543 36 32 36C33.6661 36 35.2793 36.2029 36.8185 36.5833C40.2416 37.4294 43.6528 35.2864 44.5088 31.9776Z" fill="currentColor"/>
  </symbol>

  <symbol id="icon-documents" viewBox="0 0 96 96">
    <path d="M20 4C15.5817 4 12 7.58172 12 12V58C12 59.1046 12.8954 60 14 60H18C19.1046 60 20 59.1046 20 58V14C20 12.8954 20.8954 12 22 12H58C59.1046 12 60 11.1046 60 10V6C60 4.89543 59.1046 4 58 4H20Z" fill="currentColor"/>
    <path d="M68 46C68 47.1046 67.1046 48 66 48H46C44.8954 48 44 47.1046 44 46V42C44 40.8954 44.8954 40 46 40H66C67.1046 40 68 40.8954 68 42V46Z" fill="currentColor"/>
    <path d="M66 64C67.1046 64 68 63.1046 68 62V58C68 56.8954 67.1046 56 66 56H46C44.8954 56 44 56.8954 44 58V62C44 63.1046 44.8954 64 46 64H66Z" fill="currentColor"/>
    <path fill-rule="evenodd" clip-rule="evenodd" d="M34 20C30.6863 20 28 22.6863 28 26V84C28 88.4183 31.5817 92 36 92H76C80.4183 92 84 88.4183 84 84V26C84 22.6863 81.3137 20 78 20H34ZM36 84V28H76V84H36Z" fill="currentColor"/>
  </symbol>

  <symbol id="icon-claim-type" viewBox="0 0 96 96">
    <path d="M61.9409 20C63.0443 20 63.9388 20.8954 63.9388 22V26C63.9388 27.1046 63.0443 28 61.9409 28H27.9755V84H75.9266V70C75.9266 68.8954 76.8211 68 77.9245 68H81.9205C83.0239 68 83.9184 68.8954 83.9184 70V84C83.9184 88.4183 80.3404 92 75.9266 92H27.9755C23.5618 92 19.9837 88.4183 19.9837 84V28C19.9837 23.5817 23.5618 20 27.9755 20H61.9409Z" fill="currentColor"/>
    <path fill-rule="evenodd" clip-rule="evenodd" d="M76.1685 27.6025C78.5244 25.2416 82.3521 25.259 84.6872 27.6406L90.284 33.3496L90.4937 33.5742C92.5837 35.9332 92.4969 39.5393 90.245 41.7939L63.3379 68.7285L63.1798 68.8809C62.4307 69.5776 61.5158 70.0706 60.5224 70.3135L60.3078 70.3633L53.0622 71.8545C48.9804 72.695 45.3543 69.2243 45.9142 65.1709L45.9816 64.7764L47.3961 57.8457C47.631 56.6949 48.1982 55.6378 49.0273 54.8066L76.1685 27.6025ZM55.106 60.0342L54.4173 63.4072L58.1118 62.6465L83.1945 37.5371L80.3966 34.6846L55.106 60.0342Z" fill="currentColor"/>
    <path d="M49.9531 4C51.0565 4 51.9511 4.89543 51.9511 6V10C51.9511 11.1046 51.0565 12 49.9531 12H13.9898C12.8864 12 11.9918 12.8954 11.9918 14V58C11.9918 59.1046 11.0973 60 9.99388 60H5.99796C4.89452 60 4 59.1046 4 58V12C4 7.58172 7.57807 4 11.9918 4H49.9531Z" fill="currentColor"/>
  </symbol>

  <symbol id="icon-details" viewBox="0 0 96 96">
    <path fill-rule="evenodd" clip-rule="evenodd" d="M68.1259 50C68.1259 51.1046 67.2305 52 66.1259 52H30.1266C29.022 52 28.1266 51.1046 28.1266 50V46C28.1266 44.8954 29.022 44 30.1266 44H66.1259C67.2305 44 68.1259 44.8954 68.1259 46V50Z" fill="currentColor"/>
    <path fill-rule="evenodd" clip-rule="evenodd" d="M68.1259 34C68.1259 35.1046 67.2305 36 66.1259 36H30.1266C29.022 36 28.1266 35.1046 28.1266 34V30C28.1266 28.8954 29.022 28 30.1266 28H66.1259C67.2305 28 68.1259 28.8954 68.1259 30V34Z" fill="currentColor"/>
    <path d="M12 84V12C12 7.58172 15.5817 4 20 4H72L72.3096 4.00391C78.7939 4.16811 84 9.47608 84 16V84C84 88.4183 80.4183 92 76 92H20C15.5817 92 12 88.4183 12 84ZM20 84H76V16C76 13.86 74.3194 12.1121 72.2061 12.0049L72 12H20V84Z" fill="currentColor"/>
  </symbol>

  <symbol id="icon-passenger" viewBox="0 0 96 96">
    <path fill-rule="evenodd" clip-rule="evenodd" d="M52 24C52 15.1634 59.1634 8 68 8C76.8366 8 84 15.1634 84 24C84 32.8366 76.8366 40 68 40C59.1634 40 52 32.8366 52 24ZM68 16C63.5817 16 60 19.5817 60 24C60 28.4183 63.5817 32 68 32C72.4183 32 76 28.4183 76 24C76 19.5817 72.4183 16 68 16Z" fill="currentColor"/>
    <path fill-rule="evenodd" clip-rule="evenodd" d="M12 24C12 15.1634 19.1634 8 28 8C36.8366 8 44 15.1634 44 24C44 32.8366 36.8366 40 28 40C19.1634 40 12 32.8366 12 24ZM28 16C23.5817 16 20 19.5817 20 24C20 28.4183 23.5817 32 28 32C32.4183 32 36 28.4183 36 24C36 19.5817 32.4183 16 28 16Z" fill="currentColor"/>
    <path fill-rule="evenodd" clip-rule="evenodd" d="M44 52C44 47.5817 47.5817 44 52 44H84C88.4183 44 92 47.5817 92 52V64C92 77.2548 81.2548 88 68 88C54.7452 88 44 77.2548 44 64V52ZM84 52H52V64C52 72.8366 59.1634 80 68 80C76.8366 80 84 72.8366 84 64V52Z" fill="currentColor"/>
    <path d="M36 45C36 44.4477 35.5523 44 35 44H12C7.58172 44 4 47.5817 4 52V64C4 77.2548 14.7452 88 28 88C33.263 88 38.1303 86.3059 42.0865 83.4333C42.5332 83.109 42.604 82.4795 42.2752 82.0359C41.1403 80.5048 40.1389 78.8687 39.2881 77.145C38.9866 76.5344 38.1813 76.3619 37.6381 76.7725C34.9575 78.7984 31.619 80 28 80C19.1634 80 12 72.8366 12 64V52H35C35.5523 52 36 51.5523 36 51V45Z" fill="currentColor"/>
  </symbol>

  <symbol id="icon-folder" viewBox="0 0 96 96">
    <path fill-rule="evenodd" clip-rule="evenodd" d="M12 24V76H84V36H55.2222V28H84C88.4183 28 92 31.5817 92 36V76C92 80.4183 88.4183 84 84 84H12C7.58172 84 4 80.4183 4 76V24H12Z" fill="currentColor"/>
    <path fill-rule="evenodd" clip-rule="evenodd" d="M4 20C4 15.5817 7.58172 12 12 12H36.743C38.7967 12 40.7077 13.0504 41.8084 14.7842L50.1986 28H57.5789V36H49.0993C47.0456 36 45.1346 34.9496 44.0339 33.2158L35.6437 20H12V33H4V20Z" fill="currentColor"/>
    <path fill-rule="evenodd" clip-rule="evenodd" d="M28 58C28 56.8954 28.8954 56 30 56H66C67.1046 56 68 56.8954 68 58V62C68 63.1046 67.1046 64 66 64H30C28.8954 64 28 63.1046 28 62V58Z" fill="currentColor"/>
  </symbol>

  <symbol id="icon-calendar" viewBox="0 0 96 96">
    <path fill-rule="evenodd" clip-rule="evenodd" d="M4 20C4 15.5817 7.58172 12 12 12H84C88.4183 12 92 15.5817 92 20V84C92 88.4183 88.4183 92 84 92H12C7.58172 92 4 88.4183 4 84V20ZM84 20L12 20V84H84V20Z" fill="currentColor"/>
    <path fill-rule="evenodd" clip-rule="evenodd" d="M84 40L8 40L8 32L84 32V40Z" fill="currentColor"/>
    <path d="M64 6C64 4.89543 64.8954 4 66 4H70C71.1046 4 72 4.89543 72 6V17C72 18.1046 71.1046 19 70 19H66C64.8954 19 64 18.1046 64 17V6Z" fill="currentColor"/>
    <path d="M24 6C24 4.89543 24.8954 4 26 4H30C31.1046 4 32 4.89543 32 6V17C32 18.1046 31.1046 19 30 19H26C24.8954 19 24 18.1046 24 17V6Z" fill="currentColor"/>
  </symbol>

  <symbol id="icon-notification" viewBox="0 0 96 96">
    <path fill-rule="evenodd" clip-rule="evenodd" d="M48.0522 16.093C34.8068 16.093 24.0522 26.8601 24.0522 40.163C24.0522 40.621 24.065 41.0755 24.09 41.5264L24.1195 42.0584L24.0522 42.3751V52.2849L20.7248 64H75.5404C75.5132 63.8983 75.4842 63.7929 75.4534 63.6838C75.1325 62.5484 74.6931 61.2827 74.2086 59.917C74.1561 59.7691 74.103 59.6196 74.0494 59.4689C73.6275 58.2823 73.178 57.018 72.8282 55.8711C72.463 54.6737 72.0522 53.1366 72.0522 51.7278V43.4286C72.0504 43.4142 72.0488 43.4009 72.0473 43.389C72.0389 43.3179 72.0339 43.2594 72.031 43.2233C72.0253 43.1513 72.0223 43.0905 72.0208 43.0556C72.019 43.016 72.0178 42.9789 72.0168 42.9471C72.0135 42.8292 72.0116 42.6756 72.0103 42.4946C72.009 42.306 72.0083 42.0609 72.0083 41.7482V41.6372L72.0145 41.5264C72.0395 41.0756 72.0522 40.621 72.0522 40.163C72.0522 26.8601 61.2977 16.093 48.0522 16.093ZM80.0491 42.3119C80.0491 42.31 80.0492 42.3096 80.0491 42.3119V42.3119ZM80.0184 41.6502C80.0409 41.157 80.0522 40.6612 80.0522 40.163C80.0522 22.4606 65.7348 8.09302 48.0522 8.09302C30.3697 8.09302 16.0522 22.4606 16.0522 40.163C16.0522 40.6327 16.0624 41.1003 16.0824 41.5655C16.0624 41.7645 16.0522 41.9656 16.0522 42.168V51.1708L12 65.4379V65.995C12 69.302 14.6769 72 18 72H77.9046C81.2277 72 83.9046 69.302 83.9046 65.995C83.9046 64.4803 83.5375 62.8728 83.1519 61.5082C82.7504 60.0876 82.2268 58.5914 81.7482 57.2423C81.6947 57.0914 81.6418 56.9425 81.5896 56.7956C81.1566 55.5769 80.7729 54.4971 80.4802 53.5372C80.3191 53.009 80.2045 52.5774 80.1323 52.2337C80.0559 51.8699 80.0522 51.7215 80.0522 51.7278V42.168C80.0522 42.159 80.0522 42.1275 80.0515 42.0888C80.0513 42.0736 80.0502 42.0202 80.0468 41.9533C80.0458 41.9357 80.0433 41.8958 80.0418 41.8735C80.0396 41.844 80.0334 41.7741 80.0292 41.7337C80.027 41.7142 80.0231 41.6845 80.0184 41.6502ZM77.1343 39.0854C77.1238 39.0818 77.1136 39.0784 77.1037 39.0751C77.0383 39.0601 76.961 39.046 76.8757 39.0329C76.9627 39.049 77.0489 39.0666 77.1343 39.0854Z" fill="currentColor"/>
    <path fill-rule="evenodd" clip-rule="evenodd" d="M59.9523 86C59.9523 87.1046 59.0568 88 57.9523 88L37.9523 88C36.8477 88 35.9523 87.1046 35.9523 86L35.9523 82C35.9523 80.8954 36.8477 80 37.9523 80L57.9523 80C59.0568 80 59.9523 80.8954 59.9523 82L59.9523 86Z" fill="currentColor"/>
  </symbol>

  <symbol id="icon-inbox" viewBox="0 0 96 96">
    <path d="M64 37.0835C64 38.1909 63.1046 39.0886 62 39.0886H34C32.8954 39.0886 32 38.1909 32 37.0835V33.0734C32 31.9661 32.8954 31.0684 34 31.0684H62C63.1046 31.0684 64 31.9661 64 33.0734V37.0835Z" fill="currentColor"/>
    <path fill-rule="evenodd" clip-rule="evenodd" d="M20 4C15.5817 4 12 7.59079 12 12.0203V46.1063C7.58173 46.1063 4 49.6971 4 54.1266V83.9798C4 88.4092 7.58172 92 12 92H84C88.4183 92 92 88.4092 92 83.9798V58.1367C92 52.8882 88.6474 48.4246 83.9721 46.781C83.9906 46.5586 84 46.3336 84 46.1063V33.6771C84 30.4277 82.6889 27.3164 80.3649 25.0513L62.2599 7.40466C60.02 5.22142 57.019 4 53.895 4H20ZM76 46.1063V33.6771C76 32.5939 75.563 31.5569 74.7883 30.8018L56.6833 13.1551C55.9366 12.4274 54.9363 12.0203 53.895 12.0203H20V46.1063H27.4954C28.489 46.1063 29.4671 46.3537 30.3418 46.8263L48 56.3662L65.6582 46.8263C66.5329 46.3537 67.511 46.1063 68.5046 46.1063H76ZM12 54.1266V83.9798L84 83.9798V58.1367C84 55.922 82.2091 54.1266 80 54.1266H69.0274L50.8915 64.1266C49.091 65.1194 46.909 65.1194 45.1085 64.1266L26.9726 54.1266L12 54.1266Z" fill="currentColor"/>
  </symbol>

  <symbol id="icon-cursor" viewBox="0 0 96 96">
    <path fill-rule="evenodd" clip-rule="evenodd" d="M22.5107 14.8777C18.0133 13.6284 13.8745 17.7672 15.1237 22.2646L31.0517 79.6052C32.5581 85.0284 40.0298 85.5795 42.3157 80.4362L52.3802 57.791L69.2712 74.6821C69.6618 75.0726 70.2949 75.0726 70.6854 74.6821L74.9281 70.4394C75.3186 70.0489 75.3186 69.4157 74.9281 69.0252L58.037 52.1341L80.6823 42.0696C85.8256 39.7837 85.2744 32.312 79.8513 30.8056L22.5107 14.8777ZM37.2684 72.0949L23.7789 23.5328L72.341 37.0223L50.1688 46.8766C48.8114 47.4799 47.726 48.5653 47.1227 49.9227L37.2684 72.0949Z" fill="currentColor"/>
  </symbol>

  <symbol id="icon-profile" viewBox="0 0 96 96">
    <path fill-rule="evenodd" clip-rule="evenodd" d="M30 22C30 12.0589 38.0589 4 48 4C57.9411 4 66 12.0589 66 22C66 31.9411 57.9411 40 48 40C38.0589 40 30 31.9411 30 22ZM48 12C42.4772 12 38 16.4772 38 22C38 27.5228 42.4772 32 48 32C53.5229 32 58 27.5228 58 22C58 16.4772 53.5229 12 48 12Z" fill="currentColor"/>
    <path fill-rule="evenodd" clip-rule="evenodd" d="M16 52C16 47.5817 19.5817 44 24 44H72C76.4183 44 80 47.5817 80 52V60C80 77.6731 65.6731 92 48 92C30.3269 92 16 77.6731 16 60V52ZM72 52H24V60C24 73.2548 34.7452 84 48 84C61.2548 84 72 73.2548 72 60V52Z" fill="currentColor"/>
  </symbol>

  <symbol id="icon-delete" viewBox="0 0 96 96">
    <path d="M38 36C39.1046 36 40 36.8954 40 38V74C40 75.1046 39.1046 76 38 76H34C32.8954 76 32 75.1046 32 74V38C32 36.8954 32.8954 36 34 36H38Z" fill="currentColor"/>
    <path d="M62 36C63.1046 36 64 37.1193 64 38.5V73.5C64 74.8807 63.1046 76 62 76H58C56.8954 76 56 74.8807 56 73.5V38.5C56 37.1193 56.8954 36 58 36H62Z" fill="currentColor"/>
    <path fill-rule="evenodd" clip-rule="evenodd" d="M60 4C64.4183 4 68 7.58172 68 12V20H90C91.1046 20 92 20.8954 92 22V26C92 27.1046 91.1046 28 90 28H84V84C84 88.4183 80.4183 92 76 92H20C15.5817 92 12 88.4183 12 84V28H6C4.89543 28 4 27.1046 4 26V22C4 20.8954 4.89543 20 6 20H28V12C28 7.58177 31.5818 4.00004 36 4H60ZM20 82C20 83.1046 20.8954 84 22 84H74C75.1046 84 76 83.1046 76 82V28H20V82ZM37 12C36.4477 12 36 12.4477 36 13V20H60V13C60 12.4477 59.5523 12 59 12H37Z" fill="currentColor"/>
  </symbol>

  <symbol id="icon-download" viewBox="0 0 96 96">
    <path fill-rule="evenodd" clip-rule="evenodd" d="M64.1197 28.3605H77.944C83.0728 28.3608 85.8709 34.3117 82.5819 38.2244L52.638 73.8447C50.2218 76.7185 45.7785 76.7184 43.3622 73.8447L13.4183 38.2244C10.129 34.3116 12.9271 28.3605 18.0562 28.3605H31.8805V4H64.1197V28.3605ZM39.9403 36.3737H22.3665L48.0001 66.8664L73.6337 36.3737H56.0599V12.0132H39.9403V36.3737Z" fill="currentColor"/>
    <path d="M90 84C91.1046 84 92 84.8954 92 86V90C92 91.1046 91.1046 92 90 92H6C4.89543 92 4 91.1046 4 90V86C4 84.8954 4.89543 84 6 84H90Z" fill="currentColor"/>
  </symbol>

  <symbol id="icon-pause" viewBox="0 0 96 96">
    <path d="M37.0909 30.5455C38.2959 30.5455 39.2727 31.5223 39.2727 32.7273V63.2727C39.2727 64.4777 38.2959 65.4545 37.0909 65.4545H32.7273C31.5223 65.4545 30.5455 64.4777 30.5455 63.2727V32.7273C30.5455 31.5223 31.5223 30.5455 32.7273 30.5455H37.0909Z" fill="currentColor"/>
    <path d="M63.2727 30.5455C64.4777 30.5455 65.4545 31.5223 65.4545 32.7273V63.2727C65.4545 64.4777 64.4777 65.4545 63.2727 65.4545H58.9091C57.7041 65.4545 56.7273 64.4777 56.7273 63.2727V32.7273C56.7273 31.5223 57.7041 30.5455 58.9091 30.5455H63.2727Z" fill="currentColor"/>
    <path fill-rule="evenodd" clip-rule="evenodd" d="M48 0C74.5097 0 96 21.4903 96 48C96 74.5097 74.5097 96 48 96C21.4903 96 0 74.5097 0 48C0 21.4903 21.4903 0 48 0ZM48 8.72727C26.3103 8.72727 8.72727 26.3103 8.72727 48C8.72727 69.6897 26.3103 87.2727 48 87.2727C69.6897 87.2727 87.2727 69.6897 87.2727 48C87.2727 26.3103 69.6897 8.72727 48 8.72727Z" fill="currentColor"/>
  </symbol>

  <symbol id="icon-link" viewBox="0 0 96 96">
    <path fill-rule="evenodd" clip-rule="evenodd" d="M36.4142 56.4142C35.6332 55.6332 35.6332 54.3669 36.4142 53.5858L53.5858 36.4142C54.3668 35.6332 55.6332 35.6332 56.4142 36.4142L59.2426 39.2427C60.0237 40.0237 60.0237 41.29 59.2426 42.0711L42.0711 59.2427C41.29 60.0237 40.0237 60.0237 39.2426 59.2427L36.4142 56.4142Z" fill="currentColor"/>
    <path fill-rule="evenodd" clip-rule="evenodd" d="M31.9762 43.4342C32.7573 44.2152 32.7573 45.4816 31.9762 46.2626L22.0693 56.1695C17.3831 60.8558 17.3831 68.4538 22.0693 73.1401L22.3976 73.4683C27.0839 78.1546 34.6819 78.1546 39.3682 73.4683L49.2751 63.5615C50.0561 62.7804 51.3224 62.7804 52.1035 63.5615L54.9319 66.3899C55.713 67.1709 55.713 68.4373 54.9319 69.2183L45.025 79.1252C37.2146 86.9357 24.5513 86.9357 16.7408 79.1252L16.4125 78.7969C8.60201 70.9864 8.602 58.3231 16.4125 50.5126L26.3194 40.6058C27.1004 39.8247 28.3667 39.8247 29.1478 40.6058L31.9762 43.4342Z" fill="currentColor"/>
    <path fill-rule="evenodd" clip-rule="evenodd" d="M63.5415 52.1763C62.7604 51.3953 62.7604 50.1289 63.5415 49.3479L73.4484 39.441C78.1346 34.7547 78.1346 27.1567 73.4483 22.4704L73.1201 22.1422C68.4338 17.4559 60.8358 17.4559 56.1495 22.1422L46.2426 32.049C45.4616 32.8301 44.1953 32.8301 43.4142 32.049L40.5858 29.2206C39.8047 28.4396 39.8047 27.1732 40.5858 26.3922L50.4927 16.4853C58.3031 8.67482 70.9664 8.67482 78.7769 16.4853L79.1052 16.8136C86.9157 24.6241 86.9157 37.2874 79.1052 45.0979L69.1983 55.0047C68.4173 55.7858 67.151 55.7858 66.3699 55.0047L63.5415 52.1763Z" fill="currentColor"/>
  </symbol>

  <symbol id="icon-renew" viewBox="0 0 96 96">
    <path d="M12 48C12 32.536 24.536 20 40 20C55.464 20 68 32.536 68 48V56.8431L60.7427 49.5858C59.9616 48.8048 58.6953 48.8048 57.9143 49.5858L55.092 52.4081C54.3086 53.1916 54.3113 54.4626 55.0982 55.2427L71.7501 71.7501L88.4019 55.2427C89.1888 54.4626 89.1916 53.1916 88.4081 52.4081L85.5858 49.5858C84.8048 48.8048 83.5385 48.8048 82.7574 49.5858L76 56.3433V48C76 28.1177 59.8823 12 40 12C20.1177 12 4 28.1177 4 48C4 67.8823 20.1177 84 40 84C42.4087 84 44.7655 83.7629 47.0473 83.3097C48.1307 83.0946 48.7738 81.9984 48.4985 80.9287L47.5015 77.055C47.2262 75.9853 46.1366 75.3488 45.0499 75.5465C43.4142 75.8442 41.7268 76 40 76C24.536 76 12 63.464 12 48Z" fill="currentColor"/>
  </symbol>


  <!-- ============================================
       Interface
       ============================================ -->

  <symbol id="icon-add" viewBox="0 0 96 96">
    <path d="M46 84.0001C44.8954 84.0001 44 83.1047 44 82.0001V52.0001H13.925C12.8205 52.0001 11.925 51.1047 11.925 50.0001V46.0001C11.925 44.8956 12.8205 44.0001 13.925 44.0001H44V13.8501C44 12.7455 44.8954 11.8501 46 11.8501H50C51.1046 11.8501 52 12.7455 52 13.8501V44.0001H82.0751C83.1796 44.0001 84.0751 44.8955 84.0751 46.0001V50.0001C84.0751 51.1047 83.1796 52.0001 82.0751 52.0001H52V82.0001C52 83.1047 51.1046 84.0001 50 84.0001H46Z" fill="currentColor"/>
  </symbol>

  <symbol id="icon-home" viewBox="0 0 96 96">
    <path fill-rule="evenodd" clip-rule="evenodd" d="M43.0176 5.85375C45.9336 3.53247 50.0664 3.53247 52.9824 5.85375L88.9824 34.511C90.8891 36.0288 92 38.333 92 40.77V86.0002C92 89.3139 89.3137 92.0002 86 92.0002H64C60.6863 92.0002 58 89.3139 58 86.0002V64.0002H38V86.0002C38 89.3139 35.3137 92.0002 32 92.0002H10C6.68629 92.0002 4 89.3139 4 86.0002V40.77C4 38.333 5.11087 36.0288 7.01759 34.511L43.0176 5.85375ZM84 40.77L48 12.1128L12 40.77L12 84.0002H30V62.0002C30 58.6865 32.6863 56.0002 36 56.0002H60C63.3137 56.0002 66 58.6865 66 62.0002V84.0002H84V40.77Z" fill="currentColor"/>
  </symbol>

  <symbol id="icon-vertical-ellipsis" viewBox="0 0 96 96">
    <path d="M42 74C42 72.8954 42.8954 72 44 72L52 72C53.1046 72 54 72.8954 54 74L54 82C54 83.1046 53.1046 84 52 84L44 84C42.8954 84 42 83.1046 42 82L42 74Z" fill="currentColor"/>
    <path d="M42 44C42 42.8954 42.8954 42 44 42L52 42C53.1046 42 54 42.8954 54 44L54 52C54 53.1046 53.1046 54 52 54L44 54C42.8954 54 42 53.1046 42 52L42 44Z" fill="currentColor"/>
    <path d="M42 14C42 12.8954 42.8954 12 44 12L52 12C53.1046 12 54 12.8954 54 14L54 22C54 23.1046 53.1046 24 52 24L44 24C42.8954 24 42 23.1046 42 22L42 14Z" fill="currentColor"/>
  </symbol>

  <symbol id="icon-order" viewBox="0 0 96 96">
    <path d="M62.1456 57.7166C63.0545 56.7753 64.5556 56.7598 65.4832 57.6826L69.3065 61.4861C70.2181 62.3931 70.2329 63.8669 69.3394 64.7919L53.0852 81.6153C50.0375 84.7695 45.0002 84.799 41.9165 81.6801L25.6798 65.2577C24.7717 64.3392 24.7737 62.858 25.6842 61.942L29.4876 58.1166C30.406 57.1928 31.8984 57.1948 32.8143 58.1209L46.3319 71.7924C46.9487 72.4163 47.957 72.4104 48.5665 71.7792L62.1456 57.7166Z" fill="currentColor"/>
    <path d="M41.9143 14.3853C44.9619 11.2308 49.9991 11.2016 53.083 14.3205L69.3196 30.7429C70.2278 31.6614 70.2259 33.1426 69.3153 34.0586L65.5118 37.884C64.5934 38.8076 63.101 38.8058 62.1851 37.8797L48.6676 24.2082C48.0507 23.5843 47.0435 23.5902 46.434 24.2214L32.8538 38.284C31.945 39.225 30.4449 39.2404 29.5173 38.318L25.693 34.5134C24.7817 33.6064 24.7676 32.1335 25.6611 31.2087L41.9143 14.3853Z" fill="currentColor"/>
  </symbol>

  <symbol id="icon-settings" viewBox="0 0 96 96">
    <path fill-rule="evenodd" clip-rule="evenodd" d="M45.5911 3.64114C45.651 3.64116 45.7108 3.64117 45.7705 3.64117H50.2296C50.2893 3.64117 50.3491 3.64116 50.409 3.64114C51.6408 3.64085 52.9029 3.64055 53.9803 3.76379C55.2219 3.90583 56.645 4.24767 57.9932 5.22136C59.3408 6.19455 60.113 7.43742 60.639 8.57021C61.0958 9.55415 61.4943 10.7527 61.8837 11.9242C61.9021 11.9795 61.9204 12.0348 61.9388 12.0899L61.9403 12.0943L63.2377 15.9694C63.5112 16.6403 63.9775 17.213 64.5756 17.6153L65.7087 18.2691C66.4248 18.6159 67.2343 18.7165 68.0125 18.556L72.7651 17.2174L72.7696 17.2162C72.8293 17.1992 72.889 17.1823 72.9488 17.1653C74.2248 16.8028 75.5236 16.4339 76.6629 16.2531C77.9728 16.0451 79.534 15.9981 81.1776 16.6666C82.8206 17.3349 83.9059 18.4577 84.6992 19.5199C85.3897 20.4444 86.064 21.6151 86.7271 22.7665C86.7588 22.8216 86.7906 22.8768 86.8223 22.9318L88.8867 26.5145C89.5081 27.5922 90.1434 28.6943 90.5774 29.6966C91.0772 30.8507 91.4933 32.2629 91.3185 33.9262C91.1438 35.5897 90.4432 36.8847 89.7142 37.9098C89.0812 38.7999 88.2305 39.7455 87.3988 40.6699C87.3601 40.7129 87.3215 40.7559 87.2829 40.7987C87.2814 40.8005 87.2798 40.8022 87.2783 40.8039L83.2849 45.2686C82.9866 45.7065 82.5482 46.8626 82.5482 47.9995C82.5482 49.1379 82.9865 50.2933 83.2848 50.7313L87.2783 55.196L87.2859 55.2045L87.399 55.3302C88.2306 56.2546 89.0812 57.2001 89.7142 58.0901C90.4432 59.1152 91.1438 60.4102 91.3185 62.0737C91.4933 63.737 91.0772 65.1492 90.5774 66.3033C90.1434 67.3056 89.5081 68.4077 88.8867 69.4854C88.8567 69.5376 88.8266 69.5897 88.7966 69.6417L86.7272 73.2331C86.0642 74.3845 85.3898 75.5554 84.6993 76.48C83.906 77.5421 82.8206 78.665 81.1776 79.3333C79.5339 80.0018 77.9727 79.9548 76.6628 79.7468C75.5236 79.5659 74.2248 79.197 72.9489 78.8346C72.889 78.8175 72.8291 78.8005 72.7693 78.7836L72.765 78.7823L68.0126 77.4437C67.2343 77.2832 66.4245 77.3839 65.7084 77.7308L64.5755 78.3847C63.9775 78.787 63.5113 79.3596 63.2379 80.0305L61.9376 83.9139L61.8837 84.0761C61.4943 85.2476 61.0958 86.4461 60.639 87.4301C60.113 88.5628 59.3408 89.8057 57.9933 90.7789C56.645 91.7526 55.2219 92.0944 53.9803 92.2365C52.9029 92.3597 51.6408 92.3594 50.4089 92.3591C50.349 92.3591 50.2893 92.3591 50.2296 92.3591H45.7705C45.7108 92.3591 45.6511 92.3591 45.5912 92.3591C44.3593 92.3594 43.0972 92.3597 42.0198 92.2365C40.7782 92.0944 39.3551 91.7526 38.0069 90.7789C36.6593 89.8057 35.887 88.5628 35.3611 87.4301C34.9043 86.4461 34.5058 85.2475 34.1164 84.0761C34.0981 84.0209 34.0798 83.9658 34.0615 83.9109L34.0598 83.9059L32.7622 80.0305C32.4888 79.3596 32.0226 78.787 31.4246 78.3847L30.2917 77.7308C29.5755 77.3839 28.7658 77.2832 27.9875 77.4437L23.2351 78.7823L23.2306 78.7836C23.1709 78.8006 23.1111 78.8176 23.0512 78.8346C21.7753 79.197 20.4765 79.5659 19.3373 79.7468C18.0274 79.9548 16.4662 80.0018 14.8225 79.3333C13.1795 78.665 12.0941 77.5421 11.3008 76.48C10.6103 75.5554 9.93601 74.3846 9.27294 73.2333C9.2412 73.1781 9.20947 73.123 9.17777 73.068L7.20348 69.6417C7.1735 69.5897 7.14347 69.5376 7.1134 69.4855C6.49205 68.4077 5.85668 67.3057 5.42265 66.3033C4.9229 65.1492 4.50683 63.737 4.68158 62.0737C4.85634 60.4102 5.55692 59.1152 6.28592 58.0901C6.91888 57.2001 7.76953 56.2546 8.60115 55.3302C8.64014 55.2868 8.6791 55.2435 8.71798 55.2003L8.72182 55.196L12.7153 50.7313C13.0136 50.2933 13.4519 49.1379 13.4519 47.9995C13.4519 46.8626 13.0135 45.7065 12.7152 45.2686L8.7218 40.8039L8.71798 40.7997C8.6791 40.7564 8.64016 40.7131 8.60118 40.6698C7.76954 39.7454 6.91887 38.7998 6.2859 37.9098C5.5569 36.8847 4.85633 35.5898 4.68157 33.9263C4.50684 32.263 4.92288 30.8507 5.42264 29.6966C5.85667 28.6943 6.49206 27.5922 7.11342 26.5144C7.14348 26.4623 7.17351 26.4102 7.20348 26.3582L9.17783 22.9318C9.20954 22.8768 9.24127 22.8217 9.27303 22.7665C9.9361 21.6152 10.6104 20.4444 11.3008 19.5199C12.0942 18.4577 13.1795 17.3349 14.8225 16.6666C16.4661 15.9981 18.0273 16.0451 19.3372 16.2531C20.4765 16.4339 21.7753 16.8029 23.0513 17.1653C23.1112 17.1823 23.171 17.1993 23.2307 17.2162L23.235 17.2174L27.9876 18.556C28.7657 18.7165 29.5753 18.6159 30.2914 18.2691L31.4245 17.6153C32.0226 17.213 32.4889 16.6403 32.7623 15.9693L34.0598 12.0943L34.061 12.0908C34.0794 12.0354 34.0979 11.9799 34.1164 11.9243C34.5058 10.7528 34.9042 9.55418 35.3611 8.57021C35.887 7.43742 36.6593 6.19455 38.0068 5.22136C39.3551 4.24767 40.7782 3.90583 42.0198 3.76379C43.0972 3.64055 44.3592 3.64085 45.5911 3.64114ZM43.1944 12.4075C42.9906 12.8833 42.7512 13.5862 42.332 14.8463L40.9636 18.933L40.93 19.0209C39.9857 21.4828 38.2791 23.5789 36.0584 25.0012L35.9734 25.0557L34.4464 25.9367L34.352 25.9852C31.7616 27.3161 28.7844 27.6875 25.9464 27.0331L25.8447 27.0096L20.855 25.6042C19.4898 25.2168 18.7173 25.0035 18.1691 24.8982C17.8484 25.3574 17.4422 26.0509 16.7315 27.2843L14.7571 30.7107C14.0862 31.875 13.7167 32.527 13.4953 33C13.81 33.4162 14.3067 33.9765 15.2044 34.9748L15.212 34.9833L19.4251 39.6936L19.5078 39.7983C21.2273 41.9751 22.1698 45.2011 22.1698 47.9995C22.1698 50.7988 21.2277 54.0243 19.5079 56.2015L19.4252 56.3062L15.212 61.0166L15.2044 61.0251C14.3067 62.0234 13.81 62.5837 13.4953 62.9999C13.7167 63.473 14.0863 64.1249 14.7571 65.2892L16.7314 68.7155C17.4421 69.9489 17.8484 70.6425 18.1691 71.1017C18.7173 70.9964 19.4898 70.7831 20.855 70.3956L20.8632 70.3933L25.8444 68.9902L25.9462 68.9667C28.7846 68.3121 31.7624 68.6837 34.3531 70.0152L34.4476 70.0637L35.9743 70.9448L36.0593 70.9993C38.2795 72.4216 39.9857 74.5174 40.9298 76.979L40.9635 77.0668L42.332 81.154C42.7512 82.4141 42.9906 83.117 43.1944 83.5928C43.3991 83.6095 43.667 83.6225 44.0272 83.6304C44.5066 83.641 45.0622 83.6412 45.7705 83.6412H50.2296C50.9379 83.6412 51.4934 83.641 51.9729 83.6304C52.3331 83.6225 52.601 83.6095 52.8057 83.5928C53.0095 83.117 53.2489 82.4141 53.6681 81.154L53.6708 81.146L55.0366 77.0668L55.0702 76.979C56.0144 74.5174 57.7206 72.4216 59.9408 70.9993L60.0258 70.9448L61.5525 70.0637L61.647 70.0152C64.2377 68.6837 67.2155 68.3121 70.0539 68.9667L70.1557 68.9902L75.1451 70.3956C76.5103 70.7831 77.2828 70.9963 77.831 71.1017C78.1517 70.6425 78.558 69.9489 79.2687 68.7155L81.243 65.2892C81.9138 64.1249 82.2834 63.473 82.5048 62.9999C82.1901 62.5837 81.6934 62.0234 80.7957 61.0251L80.7881 61.0166L76.5749 56.3062L76.4922 56.2015C74.7724 54.0243 73.8303 50.7988 73.8303 47.9995C73.8303 45.2011 74.7728 41.9751 76.4923 39.7983L76.575 39.6936L80.7881 34.9833L80.7957 34.9748C81.6934 33.9765 82.1901 33.4162 82.5048 33C82.2834 32.527 81.9138 31.875 81.243 30.7107L79.2686 27.2843C78.5579 26.0509 78.1517 25.3574 77.831 24.8982C77.2828 25.0035 76.5103 25.2168 75.1451 25.6042L70.1554 27.0096L70.0536 27.0331C67.2157 27.6875 64.2385 27.3161 61.6481 25.9852L61.5537 25.9367L60.0267 25.0557L59.9417 25.0012C57.721 23.5789 56.0144 21.4828 55.0701 19.0209L55.0364 18.933L53.6708 14.8543L53.6681 14.8463C53.2489 13.5862 53.0095 12.8833 52.8057 12.4075C52.601 12.3908 52.3331 12.3777 51.9729 12.3698C51.4934 12.3593 50.9379 12.3591 50.2296 12.3591H45.7705C45.0622 12.3591 44.5066 12.3593 44.0272 12.3698C43.667 12.3777 43.3991 12.3908 43.1944 12.4075Z" fill="currentColor"/>
    <path fill-rule="evenodd" clip-rule="evenodd" d="M47.9996 40.0001C43.5813 40.0001 39.9996 43.5819 39.9996 48.0001C39.9996 52.4184 43.5813 56.0001 47.9996 56.0001C52.4179 56.0001 55.9996 52.4184 55.9996 48.0001C55.9996 43.5819 52.4179 40.0001 47.9996 40.0001ZM31.9996 48.0001C31.9996 39.1636 39.163 32.0001 47.9996 32.0001C56.8361 32.0001 63.9996 39.1636 63.9996 48.0001C63.9996 56.8367 56.8361 64.0001 47.9996 64.0001C39.163 64.0001 31.9996 56.8367 31.9996 48.0001Z" fill="currentColor"/>
  </symbol>

  <symbol id="icon-refresh" viewBox="0 0 96 96">
    <path d="M57.3694 38.7302C56.5893 39.517 55.3183 39.5198 54.5348 38.7363L51.7126 35.9141C50.9315 35.133 50.9315 33.8667 51.7126 33.0857L58.7938 26.0044L36 26.0044C29.3726 26.0044 24 31.377 24 38.0044L24 54.0261C24 55.1307 23.1046 56.0261 22 56.0261L18 56.0261C16.8954 56.0261 16 55.1307 16 54.0261L16 38.0044C16 26.9587 24.9543 18.0044 36 18.0044L58.6461 18.0044L51.7126 11.0709C50.9315 10.2899 50.9315 9.02356 51.7126 8.24251L54.5348 5.42026C55.3183 4.6368 56.5894 4.63957 57.3694 5.42643L73.8768 22.0783L57.3694 38.7302Z" fill="currentColor"/>
    <path d="M78 40.0232C79.1046 40.0232 80 40.9186 80 42.0232L80 57.9217C79.9999 68.9673 71.0456 77.9216 60 77.9216L37.5168 77.9216L44.5243 84.929C45.3053 85.7101 45.3053 86.9764 44.5243 87.7575L41.702 90.5797C40.9186 91.3632 39.6475 91.3604 38.8674 90.5735L22.36 73.9217L38.8674 57.2698C39.6475 56.483 40.9186 56.4802 41.702 57.2636L44.5243 60.0859C45.3053 60.8669 45.3053 62.1333 44.5243 62.9143L37.517 69.9216L60 69.9216C66.6274 69.9216 71.9999 64.549 72 57.9216L72 42.0232C72 40.9186 72.8954 40.0232 74 40.0232L78 40.0232Z" fill="currentColor"/>
  </symbol>

  <symbol id="icon-edit" viewBox="0 0 96 96">
    <path d="M74.0003 83.9995C75.1046 83.9996 76.0001 84.8952 76.0003 85.9995V89.9995C76.0003 91.104 75.1048 91.9993 74.0003 91.9995L54.0003 92.0005C52.8959 92.0005 52.0006 91.1048 52.0003 90.0005V86.0005C52.0003 84.8959 52.8957 83.9995 54.0003 83.9995H74.0003ZM90.0003 83.9995C91.1046 83.9996 92.0001 84.8952 92.0003 85.9995V90.0005C92.0001 91.1047 91.1046 92.0003 90.0003 92.0005H86.0003C84.8959 92.0005 84.0006 91.1048 84.0003 90.0005V86.0005C84.0003 84.8959 84.8957 83.9995 86.0003 83.9995H90.0003ZM66.2698 6.57664C69.4141 3.42829 74.5232 3.45084 77.64 6.62644L89.4847 18.6948C92.5586 21.8272 92.5351 26.8511 89.432 29.9546L33.3138 86.0727C32.4802 86.9064 31.4194 87.476 30.264 87.7104L11.4476 91.5278C7.24138 92.3811 3.52532 88.6707 4.37239 84.4634L8.02864 66.31C8.26171 65.1528 8.83118 64.0896 9.66536 63.2544L66.2698 6.57664ZM15.7523 68.4809L12.8099 83.0884L28.0833 79.9897L67.0648 41.0073L54.7786 29.4038L15.7523 68.4809ZM60.4339 23.7417L72.7239 35.3481L83.7747 24.2983L71.931 12.23L60.4339 23.7417Z" fill="currentColor"/>
  </symbol>


  <!-- ============================================
       Telematics
       ============================================ -->

  <symbol id="icon-rest" viewBox="0 0 96 96">
    <path fill-rule="evenodd" clip-rule="evenodd" d="M43.9414 26C43.9414 24.8954 44.8368 24 45.9414 24H49.9414C51.046 24 51.9414 24.8954 51.9414 26V45.5453C51.9414 46.0698 52.1474 46.5732 52.5149 46.9472L61.1854 55.7698C61.9597 56.5576 61.9486 57.8239 61.1608 58.5981L58.3079 61.4019C57.5201 62.1761 56.2538 62.1651 55.4796 61.3773L44.5149 50.2202C44.1474 49.8462 43.9414 49.3428 43.9414 48.8184V26Z" fill="currentColor"/>
    <path fill-rule="evenodd" clip-rule="evenodd" d="M48.2075 12C28.3576 12 12.2661 28.0915 12.2661 47.9414C12.2661 67.7913 28.3576 83.8828 48.2075 83.8828C68.0574 83.8828 84.1489 67.7913 84.1489 47.9414C84.1489 28.0915 68.0574 12 48.2075 12ZM4.26611 47.9414C4.26611 23.6732 23.9394 4 48.2075 4C72.4757 4 92.1489 23.6732 92.1489 47.9414C92.1489 72.2096 72.4757 91.8828 48.2075 91.8828C23.9394 91.8828 4.26611 72.2096 4.26611 47.9414Z" fill="currentColor"/>
  </symbol>


  <!-- ============================================
       Social
       ============================================ -->

  <symbol id="icon-customer" viewBox="0 0 96 96">
    <path fill-rule="evenodd" clip-rule="evenodd" d="M48 4.00851C48.3318 4.00285 48.6651 4 49 4V4.03423C76.2954 4.97403 92.6527 25.1129 90.8689 45.7954L90.8677 45.8094L88.484 72.3577L88.4434 72.3541L88.0761 77.6216C87.5353 85.3784 81.7777 92.8322 73.5703 91.931L73.5688 91.9308L73.057 91.8744C72.965 91.8643 72.8735 91.8532 72.7824 91.8412C72.5421 91.9434 72.2776 92 72 92H46C44.8954 92 44 91.1046 44 90V86C44 84.8954 44.8954 84 46 84H62.733C61.4281 81.2416 60.8302 78.0638 61.0457 74.9738L61.9239 62.3783C62.4648 54.6216 68.2227 47.1681 76.4299 48.0691L76.9437 48.1255C79.0182 48.3533 80.8614 49.0804 82.4442 50.1676L82.8985 45.108L82.8991 45.1012C84.2582 29.296 71.6541 12.4713 48 12.0097C24.3475 12.4713 11.7435 29.2937 13.1006 45.0979L13.1015 45.108L13.564 50.162C15.1449 49.0779 16.9854 48.3529 19.0563 48.1255L19.5701 48.0691C27.7773 47.1681 33.5352 54.6216 34.0761 62.3783L34.9543 74.9738C35.4938 82.7106 30.9347 90.9978 22.943 91.8744L22.4312 91.9308L22.4297 91.931C14.2223 92.8322 8.46472 85.3784 7.92387 77.6216L7.52241 71.864L7.51665 71.8645L5.13197 45.8058L5.13107 45.7954C3.34731 25.1129 19.7046 4.97403 47 4.03423V4C47.3349 4 47.6682 4.00285 48 4.00851ZM20.4434 56.0212L19.9299 56.0777C17.6839 56.3242 14.6701 59.3615 15.0262 64.4695L15.9045 77.0651C16.2592 82.1522 19.5251 84.2006 21.5549 83.9789L20.4434 56.0212ZM20.4434 56.0212C22.4733 55.7987 25.7407 57.8471 26.0955 62.9348L26.9737 75.5303C27.3299 80.6387 24.3162 83.6758 22.0706 83.9221L21.5565 83.9788L20.4434 56.0212ZM76.0701 56.0777L75.5566 56.0212C73.5267 55.7987 70.2593 57.8471 69.9045 62.9348L69.0263 75.5303C68.6701 80.6387 71.6838 83.6758 73.9294 83.9221L74.4435 83.9788L75.5566 56.0212L74.4451 83.9789C76.4749 84.2006 79.7408 82.1522 80.0955 77.0651L80.9738 64.4695C81.3299 59.3615 78.3161 56.3242 76.0701 56.0777Z" fill="currentColor"/>
  </symbol>


</svg>
