<svg width="110" height="32" viewBox="0 0 110 32" fill="none" xmlns="http://www.w3.org/2000/svg">
<path d="M22.103 8.61685H2.37345C1.80892 8.61685 1.3632 8.18585 1.3632 7.63993V3.87587C1.3632 3.32995 1.80892 2.89895 2.37345 2.89895H22.103C22.6676 2.89895 23.1133 3.32995 23.1133 3.87587V7.63993C23.1133 8.18585 22.6378 8.61685 22.103 8.61685ZM48.9933 28.1267V24.3626C48.9933 23.8167 48.5476 23.3857 47.9831 23.3857H28.7586C28.194 23.3857 27.7483 23.8167 27.7483 24.3626V28.1267C27.7483 28.6726 28.194 29.1037 28.7586 29.1037H47.9831C48.5476 29.1037 48.9933 28.6726 48.9933 28.1267ZM9.29661 23.3857L16.3088 15.8862C16.6654 15.5129 16.6654 14.9094 16.2793 14.5359L13.5159 11.8637C13.0999 11.4614 12.4462 11.4902 12.0599 11.8924L1.60091 23.0983C1.42263 23.2708 1.3335 23.5006 1.3335 23.7593V28.1267C1.3335 28.6726 1.77919 29.1037 2.34374 29.1037H22.0732C22.6378 29.1037 23.0835 28.6726 23.0835 28.1267V24.3626C23.0835 23.8167 22.6378 23.3857 22.0732 23.3857H9.29661ZM48.9933 7.63993V3.87587C48.9933 3.32995 48.5476 2.89895 47.9831 2.89895H28.7586C28.194 2.89895 27.7483 3.32995 27.7483 3.87587V17.8688C27.7483 18.415 28.194 18.8457 28.7586 18.8457H44.1203C44.6848 18.8457 45.1305 18.415 45.1305 17.8688V14.1336C45.1305 13.5877 44.6848 13.1567 44.1203 13.1567H33.6614V8.61685H47.9831C48.5476 8.61685 48.9933 8.18585 48.9933 7.63993ZM71.3377 22.0352L74.1009 24.7073C74.5168 25.1096 74.4873 25.7706 74.0413 26.1439C68.4851 30.7126 60.0763 30.3678 54.9953 25.0521C50.1225 19.9952 50.1225 12.0361 54.9953 6.95034C60.0763 1.6347 68.4851 1.26118 74.0413 5.85847C74.4873 6.232 74.5168 6.89285 74.1009 7.29513L71.3377 9.96731C70.9811 10.3121 70.3867 10.3408 70.0006 10.0535C66.7914 7.58246 62.0077 7.8698 59.1849 10.973C56.5701 13.8175 56.5701 18.185 59.1849 21.0296C62.0077 24.1326 66.7914 24.4488 70.0006 21.9491C70.4165 21.6616 70.9811 21.6903 71.3377 22.0352ZM107.172 16.0014C107.172 23.357 100.991 29.3334 93.3847 29.3334C85.7782 29.3334 79.5978 23.357 79.5978 16.0014C79.5978 8.64557 85.7782 2.66911 93.3847 2.66911C100.991 2.66911 107.172 8.64557 107.172 16.0014ZM101.259 16.0014C101.259 11.8062 97.7227 8.38698 93.3847 8.38698C89.0467 8.38698 85.5107 11.8062 85.5107 16.0014C85.5107 20.1962 89.0467 23.6155 93.3847 23.6155C97.7525 23.6155 101.259 20.1962 101.259 16.0014ZM76.6562 17.8688V14.1336C76.6562 13.5877 76.2105 13.1567 75.6459 13.1567H64.4441C63.8795 13.1567 63.4338 13.5877 63.4338 14.1336V17.8688C63.4338 18.415 63.8795 18.8457 64.4441 18.8457H75.6459C76.2105 18.8457 76.6562 18.415 76.6562 17.8688Z" fill="white"/>
</svg>
